NotoSerifGeorgian-Bold.ufo
<glyph name="circumflexcomb" format="2">
  <unicode hex="0302"/>
  <anchor x="0" y="536" name="_top"/>
  <anchor x="0" y="766" name="top"/>
  <outline>
    <contour>
      <point x="-200" y="606" type="line"/>
      <point x="-109" y="606" type="line"/>
      <point x="-88" y="628"/>
      <point x="-31" y="673"/>
      <point x="-1" y="696" type="curve"/>
      <point x="29" y="673"/>
      <point x="87" y="628"/>
      <point x="108" y="606" type="curve"/>
      <point x="199" y="606" type="line"/>
      <point x="199" y="619" type="line"/>
      <point x="168" y="657"/>
      <point x="103" y="721"/>
      <point x="82" y="766" type="curve"/>
      <point x="-83" y="766" type="line"/>
      <point x="-104" y="721"/>
      <point x="-169" y="657"/>
      <point x="-200" y="619" type="curve"/>
    </contour>
  </outline>
</glyph>
<glyph name="macroncomb" format="2">
  <unicode hex="0304"/>
  <anchor x="0" y="536" name="_top"/>
  <anchor x="0" y="692" name="top"/>
  <outline>
    <contour>
      <point x="-145" y="609" type="line"/>
      <point x="145" y="609" type="line"/>
      <point x="145" y="702" type="line"/>
      <point x="-145" y="702" type="line"/>
    </contour>
  </outline>
</glyph>
<glyph name="dieresiscomb" format="2">
  <unicode hex="0308"/>
  <anchor x="0" y="536" name="_top"/>
  <anchor x="0" y="762" name="top"/>
  <outline>
    <contour>
      <point x="109" y="594" type="curve" smooth="yes"/>
      <point x="144" y="594"/>
      <point x="182" y="614"/>
      <point x="182" y="668" type="curve" smooth="yes"/>
      <point x="182" y="723"/>
      <point x="144" y="742"/>
      <point x="109" y="742" type="curve" smooth="yes"/>
      <point x="70" y="742"/>
      <point x="34" y="723"/>
      <point x="34" y="668" type="curve" smooth="yes"/>
      <point x="34" y="614"/>
      <point x="70" y="594"/>
    </contour>
    <contour>
      <point x="-109" y="594" type="curve" smooth="yes"/>
      <point x="-72" y="594"/>
      <point x="-34" y="614"/>
      <point x="-34" y="668" type="curve" smooth="yes"/>
      <point x="-34" y="723"/>
      <point x="-72" y="742"/>
      <point x="-109" y="742" type="curve" smooth="yes"/>
      <point x="-146" y="742"/>
      <point x="-182" y="723"/>
      <point x="-182" y="668" type="curve" smooth="yes"/>
      <point x="-182" y="614"/>
      <point x="-146" y="594"/>
    </contour>
  </outline>
</glyph>
<glyph name="An-oldgeorgian" format="2">
  <advance width="740"/>
  <unicode hex="10A0"/>
  <note>
uni10A0
</note>
  <outline>
    <contour>
      <point x="435" y="-14" type="curve" smooth="yes"/>
      <point x="610" y="-14"/>
      <point x="702" y="46"/>
      <point x="702" y="103" type="curve" smooth="yes"/>
      <point x="702" y="165"/>
      <point x="653" y="208"/>
      <point x="549" y="208" type="curve"/>
      <point x="549" y="141"/>
      <point x="524" y="58"/>
      <point x="434" y="58" type="curve" smooth="yes"/>
      <point x="325" y="58"/>
      <point x="274" y="155"/>
      <point x="274" y="308" type="curve" smooth="yes"/>
      <point x="274" y="546"/>
      <point x="380" y="632"/>
      <point x="474" y="632" type="curve" smooth="yes"/>
      <point x="529" y="632"/>
      <point x="555" y="606"/>
      <point x="555" y="537" type="curve"/>
      <point x="628" y="537"/>
      <point x="690" y="570"/>
      <point x="690" y="632" type="curve" smooth="yes"/>
      <point x="690" y="689"/>
      <point x="646" y="728"/>
      <point x="568" y="728" type="curve" smooth="yes"/>
      <point x="510" y="728"/>
      <point x="447" y="711"/>
      <point x="392" y="693" type="curve" smooth="yes"/>
      <point x="330" y="673"/>
      <point x="276" y="652"/>
      <point x="247" y="652" type="curve" smooth="yes"/>
      <point x="190" y="652"/>
      <point x="170" y="677"/>
      <point x="170" y="724" type="curve"/>
      <point x="97" y="724"/>
      <point x="50" y="682"/>
      <point x="50" y="638" type="curve" smooth="yes"/>
      <point x="50" y="572"/>
      <point x="99" y="549"/>
      <point x="145" y="549" type="curve" smooth="yes"/>
      <point x="164" y="549"/>
      <point x="184" y="554"/>
      <point x="207" y="564" type="curve"/>
      <point x="112" y="500"/>
      <point x="64" y="404"/>
      <point x="64" y="279" type="curve" smooth="yes"/>
      <point x="64" y="111"/>
      <point x="202" y="-14"/>
    </contour>
  </outline>
</glyph>
<glyph name="Ban-oldgeorgian" format="2">
  <advance width="944"/>
  <unicode hex="10A1"/>
  <note>
uni10A1
</note>
  <outline>
    <contour>
      <point x="800" y="-151" type="curve"/>
      <point x="887" y="-151"/>
      <point x="932" y="-105"/>
      <point x="932" y="-40" type="curve" smooth="yes"/>
      <point x="932" y="44"/>
      <point x="870" y="76"/>
      <point x="735" y="76" type="curve" smooth="yes"/>
      <point x="695" y="76" type="line"/>
      <point x="695" y="599" type="line" smooth="yes"/>
      <point x="695" y="636"/>
      <point x="709" y="653"/>
      <point x="737" y="653" type="curve" smooth="yes"/>
      <point x="762" y="653" type="line"/>
      <point x="762" y="714" type="line"/>
      <point x="429" y="714" type="line"/>
      <point x="429" y="653" type="line"/>
      <point x="452" y="653" type="line" smooth="yes"/>
      <point x="474" y="653"/>
      <point x="495" y="636"/>
      <point x="495" y="600" type="curve" smooth="yes"/>
      <point x="495" y="415" type="line" smooth="yes"/>
      <point x="495" y="357"/>
      <point x="443" y="288"/>
      <point x="362" y="288" type="curve" smooth="yes"/>
      <point x="272" y="288"/>
      <point x="242" y="348"/>
      <point x="242" y="469" type="curve" smooth="yes"/>
      <point x="242" y="597"/>
      <point x="272" y="657"/>
      <point x="332" y="657" type="curve"/>
      <point x="332" y="677"/>
      <point x="332" y="727"/>
      <point x="259" y="727" type="curve" smooth="yes"/>
      <point x="138" y="727"/>
      <point x="42" y="635"/>
      <point x="42" y="466" type="curve" smooth="yes"/>
      <point x="42" y="295"/>
      <point x="144" y="212"/>
      <point x="321" y="212" type="curve" smooth="yes"/>
      <point x="410" y="212"/>
      <point x="456" y="243"/>
      <point x="491" y="280" type="curve"/>
      <point x="501" y="280" type="line"/>
      <point x="496" y="252"/>
      <point x="495" y="223"/>
      <point x="495" y="191" type="curve" smooth="yes"/>
      <point x="495" y="0" type="line"/>
      <point x="677" y="0" type="line" smooth="yes"/>
      <point x="756" y="0"/>
      <point x="800" y="-28"/>
    </contour>
  </outline>
</glyph>
<glyph name="Gan-oldgeorgian" format="2">
  <advance width="937"/>
  <unicode hex="10A2"/>
  <note>
uni10A2
</note>
  <outline>
    <contour>
      <point x="728" y="76" type="curve" smooth="yes"/>
      <point x="688" y="76" type="line"/>
      <point x="688" y="599" type="line" smooth="yes"/>
      <point x="688" y="636"/>
      <point x="702" y="653"/>
      <point x="730" y="653" type="curve" smooth="yes"/>
      <point x="755" y="653" type="line"/>
      <point x="755" y="714" type="line"/>
      <point x="21" y="714" type="line"/>
      <point x="21" y="653" type="line"/>
      <point x="46" y="653" type="line" smooth="yes"/>
      <point x="74" y="653"/>
      <point x="88" y="636"/>
      <point x="88" y="599" type="curve" smooth="yes"/>
      <point x="88" y="413" type="line" smooth="yes"/>
      <point x="88" y="376"/>
      <point x="74" y="359"/>
      <point x="46" y="359" type="curve" smooth="yes"/>
      <point x="21" y="359" type="line"/>
      <point x="21" y="298" type="line"/>
      <point x="288" y="298" type="line"/>
      <point x="288" y="638" type="line"/>
      <point x="488" y="638" type="line"/>
      <point x="488" y="0" type="line"/>
      <point x="670" y="0" type="line" smooth="yes"/>
      <point x="749" y="0"/>
      <point x="793" y="-28"/>
      <point x="793" y="-151" type="curve"/>
      <point x="880" y="-151"/>
      <point x="925" y="-105"/>
      <point x="925" y="-40" type="curve" smooth="yes"/>
      <point x="925" y="44"/>
      <point x="863" y="76"/>
    </contour>
  </outline>
</glyph>
<glyph name="Don-oldgeorgian" format="2">
  <advance width="820"/>
  <unicode hex="10A3"/>
  <note>
uni10A3
</note>
  <outline>
    <contour>
      <point x="411" y="-14" type="curve" smooth="yes"/>
      <point x="639" y="-14"/>
      <point x="766" y="96"/>
      <point x="766" y="265" type="curve" smooth="yes"/>
      <point x="766" y="413"/>
      <point x="665" y="516"/>
      <point x="481" y="536" type="curve"/>
      <point x="481" y="622" type="line"/>
      <point x="504" y="626"/>
      <point x="525" y="627"/>
      <point x="544" y="628" type="curve" smooth="yes"/>
      <point x="599" y="631"/>
      <point x="625" y="606"/>
      <point x="625" y="537" type="curve"/>
      <point x="698" y="537"/>
      <point x="760" y="570"/>
      <point x="760" y="632" type="curve" smooth="yes"/>
      <point x="760" y="689"/>
      <point x="716" y="728"/>
      <point x="648" y="728" type="curve" smooth="yes"/>
      <point x="575" y="728"/>
      <point x="511" y="698"/>
      <point x="448" y="682" type="curve" smooth="yes"/>
      <point x="364" y="661"/>
      <point x="311" y="652"/>
      <point x="257" y="652" type="curve" smooth="yes"/>
      <point x="200" y="652"/>
      <point x="180" y="677"/>
      <point x="180" y="724" type="curve"/>
      <point x="107" y="724"/>
      <point x="60" y="682"/>
      <point x="60" y="638" type="curve" smooth="yes"/>
      <point x="60" y="572"/>
      <point x="109" y="549"/>
      <point x="155" y="549" type="curve" smooth="yes"/>
      <point x="191" y="549"/>
      <point x="230" y="555"/>
      <point x="346" y="588" type="curve"/>
      <point x="346" y="537" type="line"/>
      <point x="150" y="519"/>
      <point x="54" y="415"/>
      <point x="54" y="266" type="curve" smooth="yes"/>
      <point x="54" y="96"/>
      <point x="171" y="-14"/>
    </contour>
    <contour>
      <point x="411" y="59" type="curve" smooth="yes"/>
      <point x="304" y="59"/>
      <point x="264" y="134"/>
      <point x="264" y="265" type="curve" smooth="yes"/>
      <point x="264" y="393"/>
      <point x="304" y="467"/>
      <point x="412" y="467" type="curve" smooth="yes"/>
      <point x="518" y="467"/>
      <point x="556" y="393"/>
      <point x="556" y="265" type="curve" smooth="yes"/>
      <point x="556" y="134"/>
      <point x="518" y="59"/>
    </contour>
  </outline>
</glyph>
<glyph name="En-oldgeorgian" format="2">
  <advance width="786"/>
  <unicode hex="10A4"/>
  <note>
uni10A4
</note>
  <outline>
    <contour>
      <point x="488" y="0" type="line"/>
      <point x="688" y="0" type="line"/>
      <point x="688" y="599" type="line" smooth="yes"/>
      <point x="688" y="636"/>
      <point x="702" y="653"/>
      <point x="730" y="653" type="curve" smooth="yes"/>
      <point x="755" y="653" type="line"/>
      <point x="755" y="714" type="line"/>
      <point x="21" y="714" type="line"/>
      <point x="21" y="653" type="line"/>
      <point x="46" y="653" type="line" smooth="yes"/>
      <point x="74" y="653"/>
      <point x="88" y="636"/>
      <point x="88" y="599" type="curve" smooth="yes"/>
      <point x="88" y="413" type="line" smooth="yes"/>
      <point x="88" y="376"/>
      <point x="74" y="359"/>
      <point x="46" y="359" type="curve" smooth="yes"/>
      <point x="21" y="359" type="line"/>
      <point x="21" y="298" type="line"/>
      <point x="288" y="298" type="line"/>
      <point x="288" y="638" type="line"/>
      <point x="488" y="638" type="line"/>
    </contour>
  </outline>
</glyph>
<glyph name="Vin-oldgeorgian" format="2">
  <advance width="937"/>
  <unicode hex="10A5"/>
  <note>
uni10A5
</note>
  <outline>
    <contour>
      <point x="728" y="416" type="curve" smooth="yes"/>
      <point x="688" y="416" type="line"/>
      <point x="688" y="599" type="line" smooth="yes"/>
      <point x="688" y="636"/>
      <point x="702" y="653"/>
      <point x="730" y="653" type="curve" smooth="yes"/>
      <point x="755" y="653" type="line"/>
      <point x="755" y="714" type="line"/>
      <point x="21" y="714" type="line"/>
      <point x="21" y="653" type="line"/>
      <point x="46" y="653" type="line" smooth="yes"/>
      <point x="74" y="653"/>
      <point x="88" y="636"/>
      <point x="88" y="599" type="curve" smooth="yes"/>
      <point x="88" y="413" type="line" smooth="yes"/>
      <point x="88" y="376"/>
      <point x="74" y="359"/>
      <point x="46" y="359" type="curve" smooth="yes"/>
      <point x="21" y="359" type="line"/>
      <point x="21" y="298" type="line"/>
      <point x="288" y="298" type="line"/>
      <point x="288" y="638" type="line"/>
      <point x="488" y="638" type="line"/>
      <point x="488" y="0" type="line"/>
      <point x="688" y="0" type="line"/>
      <point x="688" y="340" type="line"/>
      <point x="713" y="340" type="line" smooth="yes"/>
      <point x="759" y="340"/>
      <point x="793" y="312"/>
      <point x="793" y="189" type="curve"/>
      <point x="880" y="189"/>
      <point x="925" y="235"/>
      <point x="925" y="300" type="curve" smooth="yes"/>
      <point x="925" y="384"/>
      <point x="863" y="416"/>
    </contour>
  </outline>
</glyph>
<glyph name="Zen-oldgeorgian" format="2">
  <advance width="849"/>
  <unicode hex="10A6"/>
  <note>
uni10A6
</note>
  <outline>
    <contour>
      <point x="517" y="-14" type="curve" smooth="yes"/>
      <point x="732" y="-14"/>
      <point x="824" y="95"/>
      <point x="824" y="286" type="curve" smooth="yes"/>
      <point x="824" y="454"/>
      <point x="749" y="550"/>
      <point x="594" y="550" type="curve" smooth="yes"/>
      <point x="518" y="550"/>
      <point x="476" y="526"/>
      <point x="445" y="483" type="curve"/>
      <point x="435" y="483" type="line"/>
      <point x="440" y="511"/>
      <point x="441" y="540"/>
      <point x="441" y="572" type="curve" smooth="yes"/>
      <point x="441" y="714" type="line"/>
      <point x="10" y="714" type="line"/>
      <point x="10" y="645" type="line"/>
      <point x="241" y="645" type="line"/>
      <point x="241" y="271" type="line" smooth="yes"/>
      <point x="241" y="75"/>
      <point x="345" y="-14"/>
    </contour>
    <contour>
      <point x="517" y="53" type="curve" smooth="yes"/>
      <point x="462" y="53"/>
      <point x="441" y="97"/>
      <point x="441" y="266" type="curve" smooth="yes"/>
      <point x="441" y="404"/>
      <point x="471" y="454"/>
      <point x="527" y="454" type="curve" smooth="yes"/>
      <point x="579" y="454"/>
      <point x="610" y="409"/>
      <point x="610" y="261" type="curve" smooth="yes"/>
      <point x="610" y="113"/>
      <point x="574" y="53"/>
    </contour>
  </outline>
</glyph>
<glyph name="Tan-oldgeorgian" format="2">
  <advance width="932"/>
  <unicode hex="10A7"/>
  <note>
uni10A7
</note>
  <outline>
    <contour>
      <point x="723" y="416" type="curve" smooth="yes"/>
      <point x="683" y="416" type="line"/>
      <point x="683" y="599" type="line" smooth="yes"/>
      <point x="683" y="636"/>
      <point x="702" y="653"/>
      <point x="730" y="653" type="curve" smooth="yes"/>
      <point x="775" y="653" type="line"/>
      <point x="775" y="714" type="line"/>
      <point x="427" y="714" type="line" smooth="yes"/>
      <point x="195" y="714"/>
      <point x="53" y="606"/>
      <point x="53" y="379" type="curve" smooth="yes"/>
      <point x="53" y="160"/>
      <point x="183" y="0"/>
      <point x="427" y="0" type="curve" smooth="yes"/>
      <point x="775" y="0" type="line"/>
      <point x="775" y="61" type="line"/>
      <point x="722" y="61" type="line" smooth="yes"/>
      <point x="698" y="61"/>
      <point x="683" y="85"/>
      <point x="683" y="115" type="curve" smooth="yes"/>
      <point x="683" y="340" type="line"/>
      <point x="708" y="340" type="line" smooth="yes"/>
      <point x="754" y="340"/>
      <point x="788" y="312"/>
      <point x="788" y="189" type="curve"/>
      <point x="875" y="189"/>
      <point x="920" y="235"/>
      <point x="920" y="300" type="curve" smooth="yes"/>
      <point x="920" y="384"/>
      <point x="858" y="416"/>
    </contour>
    <contour>
      <point x="484" y="70" type="line"/>
      <point x="451" y="70" type="line" smooth="yes"/>
      <point x="330" y="70"/>
      <point x="265" y="193"/>
      <point x="265" y="379" type="curve" smooth="yes"/>
      <point x="265" y="565"/>
      <point x="330" y="645"/>
      <point x="450" y="645" type="curve" smooth="yes"/>
      <point x="484" y="645" type="line"/>
    </contour>
  </outline>
</glyph>
<glyph name="In-oldgeorgian" format="2">
  <advance width="544"/>
  <unicode hex="10A8"/>
  <note>
uni10A8
</note>
  <outline>
    <contour>
      <point x="510" y="714" type="line"/>
      <point x="10" y="714" type="line"/>
      <point x="10" y="638" type="line"/>
      <point x="243" y="638" type="line"/>
      <point x="243" y="0" type="line"/>
      <point x="443" y="0" type="line"/>
      <point x="443" y="599" type="line" smooth="yes"/>
      <point x="443" y="636"/>
      <point x="457" y="653"/>
      <point x="485" y="653" type="curve" smooth="yes"/>
      <point x="510" y="653" type="line"/>
    </contour>
  </outline>
</glyph>
<glyph name="Kan-oldgeorgian" format="2">
  <advance width="756"/>
  <unicode hex="10A9"/>
  <note>
uni10A9
</note>
  <outline>
    <contour>
      <point x="403" y="0" type="line"/>
      <point x="736" y="0" type="line"/>
      <point x="736" y="61" type="line"/>
      <point x="711" y="61" type="line" smooth="yes"/>
      <point x="683" y="61"/>
      <point x="669" y="78"/>
      <point x="669" y="115" type="curve" smooth="yes"/>
      <point x="669" y="360" type="line" smooth="yes"/>
      <point x="669" y="482"/>
      <point x="594" y="571"/>
      <point x="439" y="571" type="curve" smooth="yes"/>
      <point x="363" y="571"/>
      <point x="321" y="546"/>
      <point x="290" y="503" type="curve"/>
      <point x="280" y="503" type="line"/>
      <point x="285" y="531"/>
      <point x="286" y="560"/>
      <point x="286" y="592" type="curve" smooth="yes"/>
      <point x="286" y="599" type="line" smooth="yes"/>
      <point x="286" y="636"/>
      <point x="300" y="653"/>
      <point x="328" y="653" type="curve" smooth="yes"/>
      <point x="353" y="653" type="line"/>
      <point x="353" y="714" type="line"/>
      <point x="20" y="714" type="line"/>
      <point x="20" y="653" type="line"/>
      <point x="43" y="653" type="line" smooth="yes"/>
      <point x="65" y="653"/>
      <point x="86" y="636"/>
      <point x="86" y="600" type="curve" smooth="yes"/>
      <point x="86" y="360" type="line" smooth="yes"/>
      <point x="86" y="238"/>
      <point x="161" y="149"/>
      <point x="316" y="149" type="curve" smooth="yes"/>
      <point x="392" y="149"/>
      <point x="434" y="174"/>
      <point x="465" y="217" type="curve"/>
      <point x="475" y="217" type="line"/>
      <point x="470" y="189"/>
      <point x="469" y="160"/>
      <point x="469" y="128" type="curve" smooth="yes"/>
      <point x="469" y="114" type="line" smooth="yes"/>
      <point x="469" y="78"/>
      <point x="448" y="61"/>
      <point x="426" y="61" type="curve" smooth="yes"/>
      <point x="403" y="61" type="line"/>
    </contour>
    <contour>
      <point x="376" y="245" type="curve" smooth="yes"/>
      <point x="317" y="245"/>
      <point x="286" y="286"/>
      <point x="286" y="360" type="curve" smooth="yes"/>
      <point x="286" y="428"/>
      <point x="316" y="475"/>
      <point x="379" y="475" type="curve" smooth="yes"/>
      <point x="438" y="475"/>
      <point x="469" y="434"/>
      <point x="469" y="360" type="curve" smooth="yes"/>
      <point x="469" y="292"/>
      <point x="437" y="245"/>
    </contour>
  </outline>
</glyph>
<glyph name="Las-oldgeorgian" format="2">
  <advance width="1056"/>
  <unicode hex="10AA"/>
  <note>
uni10AA
</note>
  <outline>
    <contour>
      <point x="724" y="-14" type="curve" smooth="yes"/>
      <point x="939" y="-14"/>
      <point x="1031" y="95"/>
      <point x="1031" y="286" type="curve" smooth="yes"/>
      <point x="1031" y="454"/>
      <point x="956" y="550"/>
      <point x="801" y="550" type="curve"/>
      <point x="725" y="550"/>
      <point x="683" y="526"/>
      <point x="652" y="483" type="curve"/>
      <point x="642" y="483" type="line"/>
      <point x="647" y="511"/>
      <point x="648" y="540"/>
      <point x="648" y="572" type="curve" smooth="yes"/>
      <point x="648" y="599" type="line" smooth="yes"/>
      <point x="648" y="636"/>
      <point x="662" y="653"/>
      <point x="690" y="653" type="curve" smooth="yes"/>
      <point x="715" y="653" type="line"/>
      <point x="715" y="714" type="line"/>
      <point x="21" y="714" type="line"/>
      <point x="21" y="653" type="line"/>
      <point x="46" y="653" type="line" smooth="yes"/>
      <point x="74" y="653"/>
      <point x="88" y="636"/>
      <point x="88" y="599" type="curve" smooth="yes"/>
      <point x="88" y="413" type="line" smooth="yes"/>
      <point x="88" y="376"/>
      <point x="74" y="359"/>
      <point x="46" y="359" type="curve" smooth="yes"/>
      <point x="21" y="359" type="line"/>
      <point x="21" y="298" type="line"/>
      <point x="288" y="298" type="line"/>
      <point x="288" y="638" type="line"/>
      <point x="448" y="638" type="line"/>
      <point x="448" y="271" type="line" smooth="yes"/>
      <point x="448" y="75"/>
      <point x="552" y="-14"/>
    </contour>
    <contour>
      <point x="724" y="53" type="curve" smooth="yes"/>
      <point x="669" y="53"/>
      <point x="648" y="97"/>
      <point x="648" y="266" type="curve" smooth="yes"/>
      <point x="648" y="404"/>
      <point x="678" y="454"/>
      <point x="734" y="454" type="curve"/>
      <point x="786" y="454"/>
      <point x="817" y="409"/>
      <point x="817" y="261" type="curve" smooth="yes"/>
      <point x="817" y="113"/>
      <point x="781" y="53"/>
    </contour>
  </outline>
</glyph>
<glyph name="Man-oldgeorgian" format="2">
  <advance width="742"/>
  <unicode hex="10AB"/>
  <note>
uni10AB
</note>
  <outline>
    <contour>
      <point x="342" y="-14" type="curve" smooth="yes"/>
      <point x="532" y="-14"/>
      <point x="624" y="87"/>
      <point x="624" y="239" type="curve" smooth="yes"/>
      <point x="624" y="380" type="line"/>
      <point x="711" y="380" type="line"/>
      <point x="711" y="452" type="line"/>
      <point x="624" y="452" type="line"/>
      <point x="624" y="599" type="line" smooth="yes"/>
      <point x="624" y="636"/>
      <point x="638" y="653"/>
      <point x="666" y="653" type="curve" smooth="yes"/>
      <point x="691" y="653" type="line"/>
      <point x="691" y="714" type="line"/>
      <point x="100" y="714" type="line"/>
      <point x="100" y="638" type="line"/>
      <point x="430" y="638" type="line"/>
      <point x="430" y="452" type="line"/>
      <point x="352" y="452" type="line" smooth="yes"/>
      <point x="149" y="452"/>
      <point x="45" y="353"/>
      <point x="45" y="218" type="curve" smooth="yes"/>
      <point x="45" y="74"/>
      <point x="144" y="-14"/>
    </contour>
    <contour>
      <point x="346" y="62" type="curve" smooth="yes"/>
      <point x="280" y="62"/>
      <point x="252" y="94"/>
      <point x="252" y="218" type="curve" smooth="yes"/>
      <point x="252" y="328"/>
      <point x="285" y="380"/>
      <point x="365" y="380" type="curve" smooth="yes"/>
      <point x="430" y="380" type="line"/>
      <point x="430" y="207" type="line" smooth="yes"/>
      <point x="430" y="120"/>
      <point x="404" y="62"/>
    </contour>
  </outline>
</glyph>
<glyph name="Nar-oldgeorgian" format="2">
  <advance width="819"/>
  <unicode hex="10AC"/>
  <note>
uni10AC
</note>
  <outline>
    <contour>
      <point x="21" y="0" type="line"/>
      <point x="386" y="0" type="line"/>
      <point x="386" y="61" type="line"/>
      <point x="349" y="61" type="line" smooth="yes"/>
      <point x="325" y="61"/>
      <point x="313" y="84"/>
      <point x="313" y="111" type="curve" smooth="yes"/>
      <point x="313" y="282" type="line" smooth="yes"/>
      <point x="313" y="330"/>
      <point x="341" y="401"/>
      <point x="407" y="401" type="curve" smooth="yes"/>
      <point x="467" y="401"/>
      <point x="496" y="372"/>
      <point x="496" y="274" type="curve" smooth="yes"/>
      <point x="496" y="0" type="line"/>
      <point x="788" y="0" type="line"/>
      <point x="788" y="61" type="line"/>
      <point x="735" y="61" type="line" smooth="yes"/>
      <point x="712" y="61"/>
      <point x="696" y="83"/>
      <point x="696" y="113" type="curve" smooth="yes"/>
      <point x="696" y="259" type="line" smooth="yes"/>
      <point x="696" y="419"/>
      <point x="633" y="485"/>
      <point x="477" y="485" type="curve" smooth="yes"/>
      <point x="392" y="485"/>
      <point x="352" y="454"/>
      <point x="317" y="417" type="curve"/>
      <point x="307" y="417" type="line"/>
      <point x="312" y="445"/>
      <point x="313" y="474"/>
      <point x="313" y="506" type="curve" smooth="yes"/>
      <point x="313" y="638" type="line"/>
      <point x="670" y="638" type="line"/>
      <point x="670" y="714" type="line"/>
      <point x="35" y="714" type="line"/>
      <point x="35" y="654" type="line"/>
      <point x="65" y="654" type="line" smooth="yes"/>
      <point x="101" y="654"/>
      <point x="113" y="630"/>
      <point x="113" y="609" type="curve" smooth="yes"/>
      <point x="113" y="111" type="line" smooth="yes"/>
      <point x="113" y="84"/>
      <point x="97" y="61"/>
      <point x="74" y="61" type="curve" smooth="yes"/>
      <point x="21" y="61" type="line"/>
    </contour>
  </outline>
</glyph>
<glyph name="On-oldgeorgian" format="2">
  <advance width="910"/>
  <unicode hex="10AD"/>
  <note>
uni10AD
</note>
  <outline>
    <contour>
      <point x="855" y="219" type="curve" smooth="yes"/>
      <point x="821" y="219"/>
      <point x="801" y="213"/>
      <point x="791" y="205" type="curve"/>
      <point x="806" y="186"/>
      <point x="809" y="170"/>
      <point x="809" y="145" type="curve" smooth="yes"/>
      <point x="809" y="110"/>
      <point x="788" y="81"/>
      <point x="747" y="81" type="curve" smooth="yes"/>
      <point x="722" y="81"/>
      <point x="701" y="90"/>
      <point x="682" y="103" type="curve"/>
      <point x="736" y="167"/>
      <point x="766" y="254"/>
      <point x="766" y="358" type="curve" smooth="yes"/>
      <point x="766" y="580"/>
      <point x="639" y="728"/>
      <point x="412" y="728" type="curve" smooth="yes"/>
      <point x="171" y="728"/>
      <point x="54" y="580"/>
      <point x="54" y="359" type="curve" smooth="yes"/>
      <point x="54" y="137"/>
      <point x="171" y="-14"/>
      <point x="411" y="-14" type="curve" smooth="yes"/>
      <point x="494" y="-14"/>
      <point x="565" y="8"/>
      <point x="622" y="48" type="curve"/>
      <point x="654" y="19"/>
      <point x="706" y="-14"/>
      <point x="777" y="-14" type="curve" smooth="yes"/>
      <point x="845" y="-14"/>
      <point x="930" y="30"/>
      <point x="931" y="109" type="curve" smooth="yes"/>
      <point x="932" y="176"/>
      <point x="904" y="219"/>
    </contour>
    <contour>
      <point x="411" y="59" type="curve" smooth="yes"/>
      <point x="304" y="59"/>
      <point x="264" y="172"/>
      <point x="264" y="358" type="curve" smooth="yes"/>
      <point x="264" y="544"/>
      <point x="304" y="655"/>
      <point x="412" y="655" type="curve" smooth="yes"/>
      <point x="518" y="655"/>
      <point x="556" y="544"/>
      <point x="556" y="358" type="curve" smooth="yes"/>
      <point x="556" y="172"/>
      <point x="518" y="59"/>
    </contour>
  </outline>
</glyph>
<glyph name="Par-oldgeorgian" format="2">
  <advance width="934"/>
  <unicode hex="10AE"/>
  <note>
uni10AE
</note>
  <outline>
    <contour>
      <point x="903" y="714" type="line"/>
      <point x="570" y="714" type="line"/>
      <point x="570" y="653" type="line"/>
      <point x="593" y="653" type="line" smooth="yes"/>
      <point x="615" y="653"/>
      <point x="636" y="636"/>
      <point x="636" y="600" type="curve" smooth="yes"/>
      <point x="636" y="188" type="line" smooth="yes"/>
      <point x="636" y="102"/>
      <point x="597" y="62"/>
      <point x="537" y="62" type="curve" smooth="yes"/>
      <point x="470" y="62"/>
      <point x="435" y="109"/>
      <point x="435" y="191" type="curve" smooth="yes"/>
      <point x="435" y="714" type="line"/>
      <point x="10" y="714" type="line"/>
      <point x="10" y="638" type="line"/>
      <point x="241" y="638" type="line"/>
      <point x="241" y="221" type="line" smooth="yes"/>
      <point x="241" y="76"/>
      <point x="347" y="-14"/>
      <point x="536" y="-14" type="curve" smooth="yes"/>
      <point x="719" y="-14"/>
      <point x="830" y="65"/>
      <point x="830" y="220" type="curve" smooth="yes"/>
      <point x="830" y="599" type="line" smooth="yes"/>
      <point x="830" y="636"/>
      <point x="850" y="653"/>
      <point x="878" y="653" type="curve" smooth="yes"/>
      <point x="903" y="653" type="line"/>
    </contour>
  </outline>
</glyph>
<glyph name="Zhar-oldgeorgian" format="2">
  <advance width="871"/>
  <unicode hex="10AF"/>
  <note>
uni10AF
</note>
  <outline>
    <contour>
      <point x="776" y="115" type="curve" smooth="yes"/>
      <point x="776" y="599" type="line" smooth="yes"/>
      <point x="776" y="636"/>
      <point x="788" y="653"/>
      <point x="818" y="653" type="curve" smooth="yes"/>
      <point x="843" y="653" type="line"/>
      <point x="843" y="714" type="line"/>
      <point x="510" y="714" type="line"/>
      <point x="510" y="653" type="line"/>
      <point x="533" y="653" type="line" smooth="yes"/>
      <point x="555" y="653"/>
      <point x="576" y="636"/>
      <point x="576" y="600" type="curve" smooth="yes"/>
      <point x="576" y="415" type="line" smooth="yes"/>
      <point x="576" y="357"/>
      <point x="524" y="288"/>
      <point x="443" y="288" type="curve" smooth="yes"/>
      <point x="353" y="288"/>
      <point x="323" y="348"/>
      <point x="323" y="466" type="curve" smooth="yes"/>
      <point x="323" y="594"/>
      <point x="343" y="654"/>
      <point x="403" y="654" type="curve"/>
      <point x="403" y="714" type="line"/>
      <point x="10" y="714" type="line"/>
      <point x="10" y="638" type="line"/>
      <point x="197" y="638" type="line"/>
      <point x="149" y="596"/>
      <point x="123" y="539"/>
      <point x="123" y="463" type="curve" smooth="yes"/>
      <point x="123" y="295"/>
      <point x="230" y="212"/>
      <point x="402" y="212" type="curve" smooth="yes"/>
      <point x="497" y="212"/>
      <point x="537" y="243"/>
      <point x="572" y="280" type="curve"/>
      <point x="582" y="280" type="line"/>
      <point x="578" y="256"/>
      <point x="576" y="232"/>
      <point x="576" y="206" type="curve" smooth="yes"/>
      <point x="576" y="114" type="line" smooth="yes"/>
      <point x="576" y="78"/>
      <point x="555" y="61"/>
      <point x="533" y="61" type="curve" smooth="yes"/>
      <point x="510" y="61" type="line"/>
      <point x="510" y="0" type="line"/>
      <point x="843" y="0" type="line"/>
      <point x="843" y="61" type="line"/>
      <point x="818" y="61" type="line" smooth="yes"/>
      <point x="788" y="61"/>
      <point x="776" y="78"/>
    </contour>
  </outline>
</glyph>
<glyph name="Rae-oldgeorgian" format="2">
  <advance width="971"/>
  <unicode hex="10B0"/>
  <note>
uni10B0
</note>
  <outline>
    <contour>
      <point x="324" y="-14" type="curve" smooth="yes"/>
      <point x="500" y="-14"/>
      <point x="608" y="80"/>
      <point x="608" y="225" type="curve" smooth="yes"/>
      <point x="608" y="315" type="line" smooth="yes"/>
      <point x="608" y="366"/>
      <point x="633" y="401"/>
      <point x="674" y="401" type="curve" smooth="yes"/>
      <point x="715" y="401"/>
      <point x="742" y="371"/>
      <point x="742" y="318" type="curve" smooth="yes"/>
      <point x="742" y="277"/>
      <point x="736" y="250"/>
      <point x="712" y="203" type="curve"/>
      <point x="740" y="189"/>
      <point x="767" y="177"/>
      <point x="806" y="177" type="curve" smooth="yes"/>
      <point x="874" y="177"/>
      <point x="931" y="229"/>
      <point x="931" y="319" type="curve" smooth="yes"/>
      <point x="931" y="419"/>
      <point x="852" y="487"/>
      <point x="750" y="487" type="curve" smooth="yes"/>
      <point x="691" y="487"/>
      <point x="647" y="467"/>
      <point x="612" y="430" type="curve"/>
      <point x="602" y="430" type="line"/>
      <point x="607" y="458"/>
      <point x="608" y="487"/>
      <point x="608" y="519" type="curve" smooth="yes"/>
      <point x="608" y="599" type="line" smooth="yes"/>
      <point x="608" y="636"/>
      <point x="622" y="653"/>
      <point x="650" y="653" type="curve" smooth="yes"/>
      <point x="675" y="653" type="line"/>
      <point x="675" y="714" type="line"/>
      <point x="342" y="714" type="line"/>
      <point x="342" y="653" type="line"/>
      <point x="365" y="653" type="line" smooth="yes"/>
      <point x="387" y="653"/>
      <point x="408" y="636"/>
      <point x="408" y="600" type="curve" smooth="yes"/>
      <point x="408" y="195" type="line" smooth="yes"/>
      <point x="408" y="113"/>
      <point x="370" y="62"/>
      <point x="323" y="62" type="curve" smooth="yes"/>
      <point x="271" y="62"/>
      <point x="234" y="109"/>
      <point x="234" y="195" type="curve" smooth="yes"/>
      <point x="234" y="257"/>
      <point x="256" y="314"/>
      <point x="294" y="361" type="curve"/>
      <point x="266" y="375"/>
      <point x="229" y="387"/>
      <point x="190" y="387" type="curve" smooth="yes"/>
      <point x="97" y="387"/>
      <point x="40" y="315"/>
      <point x="40" y="225" type="curve" smooth="yes"/>
      <point x="40" y="79"/>
      <point x="147" y="-14"/>
    </contour>
  </outline>
</glyph>
<glyph name="San-oldgeorgian" format="2">
  <advance width="722"/>
  <unicode hex="10B1"/>
  <note>
uni10B1
</note>
  <outline>
    <contour>
      <point x="401" y="-14" type="curve" smooth="yes"/>
      <point x="575" y="-14"/>
      <point x="682" y="79"/>
      <point x="682" y="225" type="curve" smooth="yes"/>
      <point x="682" y="315"/>
      <point x="625" y="387"/>
      <point x="532" y="387" type="curve" smooth="yes"/>
      <point x="493" y="387"/>
      <point x="456" y="375"/>
      <point x="428" y="361" type="curve"/>
      <point x="466" y="314"/>
      <point x="488" y="257"/>
      <point x="488" y="195" type="curve" smooth="yes"/>
      <point x="488" y="109"/>
      <point x="451" y="62"/>
      <point x="402" y="62" type="curve" smooth="yes"/>
      <point x="352" y="62"/>
      <point x="314" y="113"/>
      <point x="314" y="195" type="curve" smooth="yes"/>
      <point x="314" y="714" type="line"/>
      <point x="28" y="714" type="line"/>
      <point x="28" y="654" type="line"/>
      <point x="70" y="654" type="line" smooth="yes"/>
      <point x="107" y="654"/>
      <point x="120" y="640"/>
      <point x="120" y="593" type="curve" smooth="yes"/>
      <point x="120" y="224" type="line" smooth="yes"/>
      <point x="120" y="79"/>
      <point x="222" y="-14"/>
    </contour>
  </outline>
</glyph>
<glyph name="Tar-oldgeorgian" format="2">
  <advance width="663"/>
  <unicode hex="10B2"/>
  <note>
uni10B2
</note>
  <outline>
    <contour>
      <point x="478" y="-151" type="curve"/>
      <point x="565" y="-151"/>
      <point x="610" y="-105"/>
      <point x="610" y="-40" type="curve" smooth="yes"/>
      <point x="610" y="44"/>
      <point x="548" y="76"/>
      <point x="413" y="76" type="curve" smooth="yes"/>
      <point x="313" y="76" type="line"/>
      <point x="313" y="269" type="line"/>
      <point x="335" y="269" type="line" smooth="yes"/>
      <point x="572" y="269"/>
      <point x="660" y="367"/>
      <point x="660" y="500" type="curve" smooth="yes"/>
      <point x="660" y="643"/>
      <point x="565" y="714"/>
      <point x="357" y="714" type="curve" smooth="yes"/>
      <point x="21" y="714" type="line"/>
      <point x="21" y="653" type="line"/>
      <point x="66" y="653" type="line" smooth="yes"/>
      <point x="88" y="653"/>
      <point x="113" y="646"/>
      <point x="113" y="597" type="curve" smooth="yes"/>
      <point x="113" y="0" type="line"/>
      <point x="368" y="0" type="line" smooth="yes"/>
      <point x="414" y="0"/>
      <point x="478" y="-28"/>
    </contour>
    <contour>
      <point x="312" y="335" type="line"/>
      <point x="312" y="647" type="line"/>
      <point x="340" y="647" type="line" smooth="yes"/>
      <point x="416" y="647"/>
      <point x="452" y="599"/>
      <point x="452" y="496" type="curve" smooth="yes"/>
      <point x="452" y="381"/>
      <point x="413" y="335"/>
      <point x="326" y="335" type="curve" smooth="yes"/>
    </contour>
  </outline>
</glyph>
<glyph name="Un-oldgeorgian" format="2">
  <advance width="820"/>
  <unicode hex="10B3"/>
  <note>
uni10B3
</note>
  <outline>
    <contour>
      <point x="613" y="-185" type="curve" smooth="yes"/>
      <point x="706" y="-185"/>
      <point x="791" y="-137"/>
      <point x="791" y="-27" type="curve" smooth="yes"/>
      <point x="791" y="50"/>
      <point x="753" y="99"/>
      <point x="698" y="121" type="curve"/>
      <point x="743" y="182"/>
      <point x="766" y="263"/>
      <point x="766" y="358" type="curve" smooth="yes"/>
      <point x="766" y="580"/>
      <point x="639" y="728"/>
      <point x="412" y="728" type="curve" smooth="yes"/>
      <point x="171" y="728"/>
      <point x="54" y="580"/>
      <point x="54" y="359" type="curve" smooth="yes"/>
      <point x="54" y="137"/>
      <point x="171" y="-14"/>
      <point x="411" y="-14" type="curve" smooth="yes"/>
      <point x="505" y="-14"/>
      <point x="582" y="15"/>
      <point x="640" y="60" type="curve"/>
      <point x="656" y="49"/>
      <point x="664" y="23"/>
      <point x="664" y="-20" type="curve" smooth="yes"/>
      <point x="664" y="-71"/>
      <point x="628" y="-91"/>
      <point x="606" y="-91" type="curve" smooth="yes"/>
      <point x="575" y="-91"/>
      <point x="565" y="-77"/>
      <point x="560" y="-68" type="curve"/>
      <point x="514" y="-68"/>
      <point x="500" y="-88"/>
      <point x="500" y="-118" type="curve" smooth="yes"/>
      <point x="500" y="-137"/>
      <point x="524" y="-185"/>
    </contour>
    <contour>
      <point x="411" y="59" type="curve" smooth="yes"/>
      <point x="304" y="59"/>
      <point x="264" y="172"/>
      <point x="264" y="358" type="curve" smooth="yes"/>
      <point x="264" y="544"/>
      <point x="304" y="655"/>
      <point x="412" y="655" type="curve" smooth="yes"/>
      <point x="518" y="655"/>
      <point x="556" y="544"/>
      <point x="556" y="358" type="curve" smooth="yes"/>
      <point x="556" y="172"/>
      <point x="518" y="59"/>
    </contour>
  </outline>
</glyph>
<glyph name="Phar-oldgeorgian" format="2">
  <advance width="864"/>
  <unicode hex="10B4"/>
  <note>
uni10B4
</note>
  <outline>
    <contour>
      <point x="340" y="0" type="line"/>
      <point x="523" y="0" type="line"/>
      <point x="523" y="163" type="line"/>
      <point x="730" y="173"/>
      <point x="836" y="295"/>
      <point x="836" y="440" type="curve" smooth="yes"/>
      <point x="836" y="613"/>
      <point x="739" y="728"/>
      <point x="436" y="728" type="curve" smooth="yes"/>
      <point x="133" y="728"/>
      <point x="28" y="611"/>
      <point x="28" y="440" type="curve" smooth="yes"/>
      <point x="28" y="296"/>
      <point x="132" y="173"/>
      <point x="340" y="163" type="curve"/>
    </contour>
    <contour>
      <point x="340" y="229" type="line"/>
      <point x="241" y="239"/>
      <point x="210" y="311"/>
      <point x="210" y="436" type="curve" smooth="yes"/>
      <point x="210" y="557"/>
      <point x="240" y="646"/>
      <point x="340" y="661" type="curve"/>
    </contour>
    <contour>
      <point x="523" y="229" type="curve"/>
      <point x="523" y="661" type="line"/>
      <point x="621" y="651"/>
      <point x="653" y="562"/>
      <point x="653" y="436" type="curve" smooth="yes"/>
      <point x="653" y="316"/>
      <point x="621" y="239"/>
    </contour>
  </outline>
</glyph>
<glyph name="Khar-oldgeorgian" format="2">
  <advance width="748"/>
  <unicode hex="10B5"/>
  <note>
uni10B5
</note>
  <outline>
    <contour>
      <point x="612" y="514" type="curve" smooth="yes"/>
      <point x="562" y="514"/>
      <point x="517" y="502"/>
      <point x="473" y="486" type="curve"/>
      <point x="473" y="599" type="line" smooth="yes"/>
      <point x="473" y="636"/>
      <point x="487" y="653"/>
      <point x="515" y="653" type="curve" smooth="yes"/>
      <point x="540" y="653" type="line"/>
      <point x="540" y="714" type="line"/>
      <point x="207" y="714" type="line"/>
      <point x="207" y="653" type="line"/>
      <point x="230" y="653" type="line" smooth="yes"/>
      <point x="252" y="653"/>
      <point x="273" y="636"/>
      <point x="273" y="600" type="curve" smooth="yes"/>
      <point x="273" y="448" type="line"/>
      <point x="256" y="444"/>
      <point x="237" y="442"/>
      <point x="221" y="442" type="curve" smooth="yes"/>
      <point x="172" y="442"/>
      <point x="152" y="467"/>
      <point x="152" y="514" type="curve"/>
      <point x="70" y="514"/>
      <point x="24" y="472"/>
      <point x="24" y="428" type="curve" smooth="yes"/>
      <point x="24" y="362"/>
      <point x="73" y="339"/>
      <point x="119" y="339" type="curve" smooth="yes"/>
      <point x="151" y="339"/>
      <point x="205" y="348"/>
      <point x="273" y="370" type="curve"/>
      <point x="273" y="0" type="line"/>
      <point x="473" y="0" type="line"/>
      <point x="473" y="413" type="line"/>
      <point x="486" y="416"/>
      <point x="496" y="418"/>
      <point x="508" y="418" type="curve" smooth="yes"/>
      <point x="563" y="418"/>
      <point x="596" y="392"/>
      <point x="596" y="323" type="curve"/>
      <point x="669" y="323"/>
      <point x="724" y="356"/>
      <point x="724" y="418" type="curve" smooth="yes"/>
      <point x="724" y="475"/>
      <point x="680" y="514"/>
    </contour>
  </outline>
</glyph>
<glyph name="Ghan-oldgeorgian" format="2">
  <advance width="779"/>
  <unicode hex="10B6"/>
  <note>
uni10B6
</note>
  <outline>
    <contour>
      <point x="727" y="61" type="line" smooth="yes"/>
      <point x="705" y="61"/>
      <point x="684" y="78"/>
      <point x="684" y="114" type="curve" smooth="yes"/>
      <point x="684" y="493" type="line" smooth="yes"/>
      <point x="684" y="638"/>
      <point x="578" y="728"/>
      <point x="389" y="728" type="curve" smooth="yes"/>
      <point x="206" y="728"/>
      <point x="95" y="649"/>
      <point x="95" y="494" type="curve" smooth="yes"/>
      <point x="95" y="114" type="line" smooth="yes"/>
      <point x="95" y="78"/>
      <point x="74" y="61"/>
      <point x="52" y="61" type="curve" smooth="yes"/>
      <point x="29" y="61" type="line"/>
      <point x="29" y="0" type="line"/>
      <point x="346" y="0" type="line"/>
      <point x="346" y="61" type="line"/>
      <point x="331" y="61" type="line" smooth="yes"/>
      <point x="303" y="61"/>
      <point x="289" y="78"/>
      <point x="289" y="115" type="curve" smooth="yes"/>
      <point x="289" y="526" type="line" smooth="yes"/>
      <point x="289" y="612"/>
      <point x="328" y="652"/>
      <point x="389" y="652" type="curve" smooth="yes"/>
      <point x="455" y="652"/>
      <point x="490" y="605"/>
      <point x="490" y="523" type="curve" smooth="yes"/>
      <point x="490" y="115" type="line" smooth="yes"/>
      <point x="490" y="78"/>
      <point x="476" y="61"/>
      <point x="448" y="61" type="curve" smooth="yes"/>
      <point x="433" y="61" type="line"/>
      <point x="433" y="0" type="line"/>
      <point x="750" y="0" type="line"/>
      <point x="750" y="61" type="line"/>
    </contour>
  </outline>
</glyph>
<glyph name="Qar-oldgeorgian" format="2">
  <advance width="803"/>
  <unicode hex="10B7"/>
  <note>
uni10B7
</note>
  <outline>
    <contour>
      <point x="429" y="0" type="line"/>
      <point x="752" y="0" type="line"/>
      <point x="752" y="61" type="line"/>
      <point x="737" y="61" type="line" smooth="yes"/>
      <point x="709" y="61"/>
      <point x="695" y="78"/>
      <point x="695" y="115" type="curve" smooth="yes"/>
      <point x="695" y="599" type="line" smooth="yes"/>
      <point x="695" y="636"/>
      <point x="709" y="653"/>
      <point x="737" y="653" type="curve" smooth="yes"/>
      <point x="762" y="653" type="line"/>
      <point x="762" y="714" type="line"/>
      <point x="429" y="714" type="line"/>
      <point x="429" y="653" type="line"/>
      <point x="452" y="653" type="line" smooth="yes"/>
      <point x="474" y="653"/>
      <point x="495" y="636"/>
      <point x="495" y="600" type="curve" smooth="yes"/>
      <point x="495" y="415" type="line" smooth="yes"/>
      <point x="495" y="357"/>
      <point x="443" y="288"/>
      <point x="362" y="288" type="curve" smooth="yes"/>
      <point x="272" y="288"/>
      <point x="242" y="348"/>
      <point x="242" y="469" type="curve" smooth="yes"/>
      <point x="242" y="597"/>
      <point x="272" y="657"/>
      <point x="332" y="657" type="curve"/>
      <point x="332" y="677"/>
      <point x="332" y="727"/>
      <point x="259" y="727" type="curve" smooth="yes"/>
      <point x="138" y="727"/>
      <point x="42" y="635"/>
      <point x="42" y="466" type="curve" smooth="yes"/>
      <point x="42" y="295"/>
      <point x="144" y="212"/>
      <point x="321" y="212" type="curve" smooth="yes"/>
      <point x="410" y="212"/>
      <point x="456" y="243"/>
      <point x="491" y="280" type="curve"/>
      <point x="501" y="280" type="line"/>
      <point x="496" y="252"/>
      <point x="495" y="223"/>
      <point x="495" y="191" type="curve" smooth="yes"/>
      <point x="495" y="114" type="line" smooth="yes"/>
      <point x="495" y="78"/>
      <point x="474" y="61"/>
      <point x="452" y="61" type="curve" smooth="yes"/>
      <point x="429" y="61" type="line"/>
    </contour>
  </outline>
</glyph>
<glyph name="Shin-oldgeorgian" format="2">
  <advance width="789"/>
  <unicode hex="10B8"/>
  <note>
uni10B8
</note>
  <outline>
    <contour>
      <point x="431" y="714" type="line"/>
      <point x="431" y="653" type="line"/>
      <point x="454" y="653" type="line" smooth="yes"/>
      <point x="476" y="653"/>
      <point x="497" y="636"/>
      <point x="497" y="600" type="curve" smooth="yes"/>
      <point x="497" y="485" type="line" smooth="yes"/>
      <point x="497" y="437"/>
      <point x="459" y="366"/>
      <point x="378" y="366" type="curve" smooth="yes"/>
      <point x="333" y="366"/>
      <point x="304" y="385"/>
      <point x="304" y="513" type="curve" smooth="yes"/>
      <point x="304" y="714" type="line"/>
      <point x="36" y="714" type="line"/>
      <point x="36" y="654" type="line"/>
      <point x="56" y="654" type="line" smooth="yes"/>
      <point x="92" y="654"/>
      <point x="104" y="630"/>
      <point x="104" y="609" type="curve" smooth="yes"/>
      <point x="104" y="508" type="line" smooth="yes"/>
      <point x="104" y="348"/>
      <point x="167" y="282"/>
      <point x="323" y="282" type="curve" smooth="yes"/>
      <point x="418" y="282"/>
      <point x="458" y="313"/>
      <point x="493" y="350" type="curve"/>
      <point x="503" y="350" type="line"/>
      <point x="498" y="322"/>
      <point x="497" y="293"/>
      <point x="497" y="261" type="curve" smooth="yes"/>
      <point x="497" y="191" type="line" smooth="yes"/>
      <point x="497" y="109"/>
      <point x="462" y="62"/>
      <point x="403" y="62" type="curve" smooth="yes"/>
      <point x="342" y="62"/>
      <point x="304" y="102"/>
      <point x="304" y="168" type="curve" smooth="yes"/>
      <point x="304" y="181"/>
      <point x="306" y="201"/>
      <point x="311" y="210" type="curve"/>
      <point x="293" y="218"/>
      <point x="269" y="222"/>
      <point x="244" y="222" type="curve" smooth="yes"/>
      <point x="178" y="222"/>
      <point x="104" y="193"/>
      <point x="104" y="130" type="curve" smooth="yes"/>
      <point x="104" y="45"/>
      <point x="214" y="-14"/>
      <point x="404" y="-14" type="curve" smooth="yes"/>
      <point x="592" y="-14"/>
      <point x="697" y="76"/>
      <point x="697" y="221" type="curve" smooth="yes"/>
      <point x="697" y="599" type="line" smooth="yes"/>
      <point x="697" y="636"/>
      <point x="711" y="653"/>
      <point x="739" y="653" type="curve" smooth="yes"/>
      <point x="764" y="653" type="line"/>
      <point x="764" y="714" type="line"/>
    </contour>
  </outline>
</glyph>
<glyph name="Chin-oldgeorgian" format="2">
  <advance width="801"/>
  <unicode hex="10B9"/>
  <note>
uni10B9
</note>
  <outline>
    <contour>
      <point x="736" y="61" type="line" smooth="yes"/>
      <point x="713" y="61"/>
      <point x="697" y="83"/>
      <point x="697" y="113" type="curve" smooth="yes"/>
      <point x="697" y="450" type="line"/>
      <point x="314" y="450" type="line"/>
      <point x="314" y="600" type="line" smooth="yes"/>
      <point x="314" y="636"/>
      <point x="335" y="653"/>
      <point x="357" y="653" type="curve" smooth="yes"/>
      <point x="380" y="653" type="line"/>
      <point x="380" y="714" type="line"/>
      <point x="57" y="714" type="line"/>
      <point x="57" y="653" type="line"/>
      <point x="72" y="653" type="line" smooth="yes"/>
      <point x="100" y="653"/>
      <point x="114" y="636"/>
      <point x="114" y="599" type="curve" smooth="yes"/>
      <point x="114" y="111" type="line" smooth="yes"/>
      <point x="114" y="84"/>
      <point x="98" y="61"/>
      <point x="75" y="61" type="curve" smooth="yes"/>
      <point x="32" y="61" type="line"/>
      <point x="32" y="0" type="line"/>
      <point x="387" y="0" type="line"/>
      <point x="387" y="61" type="line"/>
      <point x="350" y="61" type="line" smooth="yes"/>
      <point x="326" y="61"/>
      <point x="314" y="84"/>
      <point x="314" y="111" type="curve" smooth="yes"/>
      <point x="314" y="381" type="line"/>
      <point x="497" y="381" type="line"/>
      <point x="497" y="0" type="line"/>
      <point x="789" y="0" type="line"/>
      <point x="789" y="61" type="line"/>
    </contour>
  </outline>
</glyph>
<glyph name="Can-oldgeorgian" format="2">
  <advance width="708"/>
  <unicode hex="10BA"/>
  <note>
uni10BA
</note>
  <outline>
    <contour>
      <point x="391" y="-205" type="curve" smooth="yes"/>
      <point x="433" y="-205"/>
      <point x="501" y="-183"/>
      <point x="545" y="-137" type="curve" smooth="yes"/>
      <point x="624" y="-55"/>
      <point x="665" y="54"/>
      <point x="665" y="137" type="curve" smooth="yes"/>
      <point x="665" y="152"/>
      <point x="659" y="174"/>
      <point x="650" y="183" type="curve"/>
      <point x="616" y="138"/>
      <point x="559" y="80"/>
      <point x="452" y="80" type="curve" smooth="yes"/>
      <point x="313" y="80"/>
      <point x="264" y="155"/>
      <point x="264" y="358" type="curve" smooth="yes"/>
      <point x="264" y="546"/>
      <point x="297" y="656"/>
      <point x="406" y="656" type="curve" smooth="yes"/>
      <point x="486" y="656"/>
      <point x="511" y="574"/>
      <point x="511" y="506" type="curve"/>
      <point x="615" y="506"/>
      <point x="664" y="550"/>
      <point x="664" y="605" type="curve" smooth="yes"/>
      <point x="664" y="671"/>
      <point x="582" y="728"/>
      <point x="417" y="728" type="curve" smooth="yes"/>
      <point x="178" y="728"/>
      <point x="54" y="574"/>
      <point x="54" y="358" type="curve" smooth="yes"/>
      <point x="54" y="137"/>
      <point x="175" y="-10"/>
      <point x="418" y="-10" type="curve" smooth="yes"/>
      <point x="475" y="-10"/>
      <point x="524" y="0"/>
      <point x="559" y="13" type="curve"/>
      <point x="516" y="-60"/>
      <point x="452" y="-77"/>
      <point x="420" y="-77" type="curve" smooth="yes"/>
      <point x="389" y="-77"/>
      <point x="357" y="-69"/>
      <point x="333" y="-54" type="curve"/>
      <point x="312" y="-80"/>
      <point x="301" y="-101"/>
      <point x="301" y="-129" type="curve" smooth="yes"/>
      <point x="301" y="-178"/>
      <point x="335" y="-205"/>
    </contour>
  </outline>
</glyph>
<glyph name="Jil-oldgeorgian" format="2">
  <advance width="1051"/>
  <unicode hex="10BB"/>
  <note>
uni10BB
</note>
  <outline>
    <contour>
      <point x="338" y="-14" type="curve" smooth="yes"/>
      <point x="536" y="-14"/>
      <point x="624" y="87"/>
      <point x="624" y="239" type="curve" smooth="yes"/>
      <point x="624" y="381" type="line"/>
      <point x="747" y="381" type="line"/>
      <point x="747" y="0" type="line"/>
      <point x="1039" y="0" type="line"/>
      <point x="1039" y="61" type="line"/>
      <point x="986" y="61" type="line" smooth="yes"/>
      <point x="963" y="61"/>
      <point x="947" y="83"/>
      <point x="947" y="113" type="curve" smooth="yes"/>
      <point x="947" y="453" type="line"/>
      <point x="624" y="453" type="line"/>
      <point x="624" y="599" type="line" smooth="yes"/>
      <point x="624" y="636"/>
      <point x="638" y="653"/>
      <point x="666" y="653" type="curve" smooth="yes"/>
      <point x="681" y="653" type="line"/>
      <point x="681" y="714" type="line"/>
      <point x="364" y="714" type="line"/>
      <point x="364" y="653" type="line"/>
      <point x="387" y="653" type="line" smooth="yes"/>
      <point x="409" y="653"/>
      <point x="430" y="636"/>
      <point x="430" y="600" type="curve" smooth="yes"/>
      <point x="430" y="453" type="line"/>
      <point x="330" y="453" type="line" smooth="yes"/>
      <point x="136" y="453"/>
      <point x="45" y="353"/>
      <point x="45" y="218" type="curve" smooth="yes"/>
      <point x="45" y="74"/>
      <point x="144" y="-14"/>
    </contour>
    <contour>
      <point x="345" y="62" type="curve" smooth="yes"/>
      <point x="280" y="62"/>
      <point x="252" y="94"/>
      <point x="252" y="218" type="curve" smooth="yes"/>
      <point x="252" y="328"/>
      <point x="275" y="381"/>
      <point x="355" y="381" type="curve" smooth="yes"/>
      <point x="430" y="381" type="line"/>
      <point x="430" y="207" type="line" smooth="yes"/>
      <point x="430" y="120"/>
      <point x="406" y="62"/>
    </contour>
  </outline>
</glyph>
<glyph name="Cil-oldgeorgian" format="2">
  <advance width="663"/>
  <unicode hex="10BC"/>
  <note>
uni10BC
</note>
  <outline>
    <contour>
      <point x="113" y="0" type="line"/>
      <point x="313" y="0" type="line"/>
      <point x="313" y="144" type="line"/>
      <point x="333" y="144" type="line" smooth="yes"/>
      <point x="389" y="144"/>
      <point x="413" y="123"/>
      <point x="413" y="29" type="curve"/>
      <point x="500" y="29"/>
      <point x="545" y="68"/>
      <point x="545" y="122" type="curve" smooth="yes"/>
      <point x="545" y="183"/>
      <point x="483" y="220"/>
      <point x="368" y="220" type="curve" smooth="yes"/>
      <point x="313" y="220" type="line"/>
      <point x="313" y="269" type="line"/>
      <point x="335" y="269" type="line" smooth="yes"/>
      <point x="572" y="269"/>
      <point x="660" y="367"/>
      <point x="660" y="500" type="curve" smooth="yes"/>
      <point x="660" y="643"/>
      <point x="565" y="714"/>
      <point x="357" y="714" type="curve" smooth="yes"/>
      <point x="21" y="714" type="line"/>
      <point x="21" y="653" type="line"/>
      <point x="66" y="653" type="line" smooth="yes"/>
      <point x="88" y="653"/>
      <point x="113" y="646"/>
      <point x="113" y="597" type="curve" smooth="yes"/>
    </contour>
    <contour>
      <point x="312" y="335" type="line"/>
      <point x="312" y="647" type="line"/>
      <point x="340" y="647" type="line" smooth="yes"/>
      <point x="416" y="647"/>
      <point x="452" y="599"/>
      <point x="452" y="496" type="curve" smooth="yes"/>
      <point x="452" y="381"/>
      <point x="413" y="335"/>
      <point x="326" y="335" type="curve" smooth="yes"/>
    </contour>
  </outline>
</glyph>
<glyph name="Char-oldgeorgian" format="2">
  <advance width="605"/>
  <unicode hex="10BD"/>
  <note>
uni10BD
</note>
  <outline>
    <contour>
      <point x="284" y="-14" type="curve" smooth="yes"/>
      <point x="462" y="-14"/>
      <point x="575" y="82"/>
      <point x="575" y="212" type="curve" smooth="yes"/>
      <point x="575" y="307"/>
      <point x="532" y="377"/>
      <point x="380" y="438" type="curve" smooth="yes"/>
      <point x="231" y="498"/>
      <point x="203" y="539"/>
      <point x="203" y="579" type="curve" smooth="yes"/>
      <point x="203" y="632"/>
      <point x="242" y="659"/>
      <point x="291" y="659" type="curve" smooth="yes"/>
      <point x="362" y="659"/>
      <point x="402" y="576"/>
      <point x="402" y="509" type="curve"/>
      <point x="509" y="509"/>
      <point x="547" y="548"/>
      <point x="547" y="598" type="curve" smooth="yes"/>
      <point x="547" y="659"/>
      <point x="477" y="728"/>
      <point x="315" y="728" type="curve" smooth="yes"/>
      <point x="163" y="728"/>
      <point x="46" y="646"/>
      <point x="46" y="518" type="curve" smooth="yes"/>
      <point x="46" y="429"/>
      <point x="88" y="355"/>
      <point x="240" y="293" type="curve" smooth="yes"/>
      <point x="348" y="249"/>
      <point x="416" y="217"/>
      <point x="416" y="153" type="curve" smooth="yes"/>
      <point x="416" y="107"/>
      <point x="376" y="54"/>
      <point x="306" y="54" type="curve" smooth="yes"/>
      <point x="236" y="54"/>
      <point x="157" y="105"/>
      <point x="157" y="241" type="curve"/>
      <point x="90" y="241"/>
      <point x="24" y="218"/>
      <point x="24" y="129" type="curve" smooth="yes"/>
      <point x="24" y="78"/>
      <point x="69" y="-14"/>
    </contour>
  </outline>
</glyph>
<glyph name="Xan-oldgeorgian" format="2">
  <advance width="795"/>
  <unicode hex="10BE"/>
  <note>
uni10BE
</note>
  <outline>
    <contour>
      <point x="21" y="0" type="line"/>
      <point x="696" y="0" type="line"/>
      <point x="696" y="61" type="line"/>
      <point x="313" y="61" type="line"/>
      <point x="313" y="287" type="line"/>
      <point x="686" y="287" type="line"/>
      <point x="686" y="601" type="line" smooth="yes"/>
      <point x="686" y="631"/>
      <point x="702" y="653"/>
      <point x="725" y="653" type="curve" smooth="yes"/>
      <point x="778" y="653" type="line"/>
      <point x="778" y="714" type="line"/>
      <point x="486" y="714" type="line"/>
      <point x="486" y="356" type="line"/>
      <point x="313" y="356" type="line"/>
      <point x="313" y="603" type="line" smooth="yes"/>
      <point x="313" y="630"/>
      <point x="325" y="653"/>
      <point x="349" y="653" type="curve" smooth="yes"/>
      <point x="386" y="653" type="line"/>
      <point x="386" y="714" type="line"/>
      <point x="21" y="714" type="line"/>
      <point x="21" y="653" type="line"/>
      <point x="74" y="653" type="line" smooth="yes"/>
      <point x="97" y="653"/>
      <point x="113" y="630"/>
      <point x="113" y="603" type="curve" smooth="yes"/>
      <point x="113" y="114" type="line" smooth="yes"/>
      <point x="113" y="78"/>
      <point x="92" y="61"/>
      <point x="65" y="61" type="curve" smooth="yes"/>
      <point x="21" y="61" type="line"/>
    </contour>
  </outline>
</glyph>
<glyph name="Jhan-oldgeorgian" format="2">
  <advance width="785"/>
  <unicode hex="10BF"/>
  <note>
uni10BF
</note>
  <outline>
    <contour>
      <point x="11" y="0" type="line"/>
      <point x="63" y="0" type="line" smooth="yes"/>
      <point x="106" y="0"/>
      <point x="133" y="29"/>
      <point x="179" y="82" type="curve" smooth="yes"/>
      <point x="349" y="280" type="line"/>
      <point x="431" y="163" type="line" smooth="yes"/>
      <point x="461" y="121"/>
      <point x="464" y="109"/>
      <point x="464" y="94" type="curve" smooth="yes"/>
      <point x="464" y="72"/>
      <point x="444" y="61"/>
      <point x="404" y="61" type="curve" smooth="yes"/>
      <point x="399" y="61" type="line"/>
      <point x="399" y="0" type="line"/>
      <point x="773" y="0" type="line"/>
      <point x="773" y="61" type="line"/>
      <point x="760" y="61" type="line" smooth="yes"/>
      <point x="735" y="61"/>
      <point x="707" y="74"/>
      <point x="680" y="114" type="curve" smooth="yes"/>
      <point x="489" y="401" type="line"/>
      <point x="697" y="653" type="line"/>
      <point x="697" y="714" type="line"/>
      <point x="38" y="714" type="line"/>
      <point x="38" y="653" type="line"/>
      <point x="103" y="653" type="line"/>
      <point x="307" y="344" type="line"/>
      <point x="121" y="131" type="line" smooth="yes"/>
      <point x="72" y="75"/>
      <point x="55" y="61"/>
      <point x="17" y="61" type="curve" smooth="yes"/>
      <point x="11" y="61" type="line"/>
    </contour>
    <contour>
      <point x="448" y="467" type="line"/>
      <point x="322" y="653" type="line"/>
      <point x="505" y="653" type="line" smooth="yes"/>
      <point x="536" y="653"/>
      <point x="561" y="648"/>
      <point x="561" y="624" type="curve" smooth="yes"/>
      <point x="561" y="606"/>
      <point x="544" y="576"/>
      <point x="532" y="563" type="curve" smooth="yes"/>
    </contour>
  </outline>
</glyph>
<glyph name="Hae-oldgeorgian" format="2">
  <advance width="1084"/>
  <unicode hex="10C0"/>
  <note>
uni10C0
</note>
  <outline>
    <contour>
      <point x="746" y="-14" type="curve" smooth="yes"/>
      <point x="937" y="-14"/>
      <point x="1044" y="79"/>
      <point x="1044" y="225" type="curve" smooth="yes"/>
      <point x="1044" y="312"/>
      <point x="989" y="387"/>
      <point x="894" y="387" type="curve" smooth="yes"/>
      <point x="855" y="387"/>
      <point x="818" y="375"/>
      <point x="790" y="361" type="curve"/>
      <point x="828" y="314"/>
      <point x="850" y="257"/>
      <point x="850" y="195" type="curve" smooth="yes"/>
      <point x="850" y="109"/>
      <point x="813" y="62"/>
      <point x="746" y="62" type="curve" smooth="yes"/>
      <point x="681" y="62"/>
      <point x="642" y="105"/>
      <point x="642" y="192" type="curve" smooth="yes"/>
      <point x="642" y="599" type="line" smooth="yes"/>
      <point x="642" y="636"/>
      <point x="655" y="653"/>
      <point x="683" y="653" type="curve" smooth="yes"/>
      <point x="708" y="653" type="line"/>
      <point x="708" y="714" type="line"/>
      <point x="21" y="714" type="line"/>
      <point x="21" y="653" type="line"/>
      <point x="46" y="653" type="line" smooth="yes"/>
      <point x="74" y="653"/>
      <point x="88" y="636"/>
      <point x="88" y="599" type="curve" smooth="yes"/>
      <point x="88" y="413" type="line" smooth="yes"/>
      <point x="88" y="376"/>
      <point x="74" y="359"/>
      <point x="46" y="359" type="curve" smooth="yes"/>
      <point x="21" y="359" type="line"/>
      <point x="21" y="298" type="line"/>
      <point x="288" y="298" type="line"/>
      <point x="288" y="638" type="line"/>
      <point x="448" y="638" type="line"/>
      <point x="448" y="224" type="line" smooth="yes"/>
      <point x="448" y="70"/>
      <point x="559" y="-14"/>
    </contour>
  </outline>
</glyph>
<glyph name="He-oldgeorgian" format="2">
  <advance width="840"/>
  <unicode hex="10C1"/>
  <note>
uni10C1
</note>
  <outline>
    <contour>
      <point x="102" y="0" type="line"/>
      <point x="302" y="0" type="line"/>
      <point x="302" y="348" type="line" smooth="yes"/>
      <point x="302" y="408"/>
      <point x="340" y="467"/>
      <point x="406" y="467" type="curve" smooth="yes"/>
      <point x="466" y="467"/>
      <point x="495" y="439"/>
      <point x="495" y="320" type="curve" smooth="yes"/>
      <point x="495" y="234" type="line"/>
      <point x="830" y="234" type="line"/>
      <point x="830" y="303" type="line"/>
      <point x="695" y="303" type="line"/>
      <point x="695" y="325" type="line" smooth="yes"/>
      <point x="695" y="485"/>
      <point x="632" y="551"/>
      <point x="476" y="551" type="curve" smooth="yes"/>
      <point x="381" y="551"/>
      <point x="341" y="520"/>
      <point x="306" y="483" type="curve"/>
      <point x="296" y="483" type="line"/>
      <point x="301" y="511"/>
      <point x="302" y="540"/>
      <point x="302" y="572" type="curve" smooth="yes"/>
      <point x="302" y="714" type="line"/>
      <point x="24" y="714" type="line"/>
      <point x="24" y="654" type="line"/>
      <point x="54" y="654" type="line" smooth="yes"/>
      <point x="90" y="654"/>
      <point x="102" y="630"/>
      <point x="102" y="609" type="curve" smooth="yes"/>
    </contour>
  </outline>
</glyph>
<glyph name="Hie-oldgeorgian" format="2">
  <advance width="708"/>
  <unicode hex="10C2"/>
  <note>
uni10C2
</note>
  <outline>
    <contour>
      <point x="291" y="-14" type="curve" smooth="yes"/>
      <point x="530" y="-14"/>
      <point x="654" y="124"/>
      <point x="654" y="311" type="curve" smooth="yes"/>
      <point x="654" y="481"/>
      <point x="553" y="612"/>
      <point x="348" y="612" type="curve" smooth="yes"/>
      <point x="321" y="612" type="line"/>
      <point x="321" y="714" type="line"/>
      <point x="28" y="714" type="line"/>
      <point x="28" y="653" type="line"/>
      <point x="92" y="653" type="line" smooth="yes"/>
      <point x="109" y="653"/>
      <point x="120" y="646"/>
      <point x="120" y="593" type="curve" smooth="yes"/>
      <point x="120" y="535" type="line"/>
      <point x="246" y="535" type="line" smooth="yes"/>
      <point x="395" y="535"/>
      <point x="444" y="473"/>
      <point x="444" y="306" type="curve" smooth="yes"/>
      <point x="444" y="150"/>
      <point x="411" y="58"/>
      <point x="302" y="58" type="curve" smooth="yes"/>
      <point x="222" y="58"/>
      <point x="197" y="141"/>
      <point x="197" y="208" type="curve"/>
      <point x="93" y="208"/>
      <point x="44" y="165"/>
      <point x="44" y="103" type="curve" smooth="yes"/>
      <point x="44" y="46"/>
      <point x="126" y="-14"/>
    </contour>
  </outline>
</glyph>
<glyph name="We-oldgeorgian" format="2">
  <advance width="745"/>
  <unicode hex="10C3"/>
  <note>
uni10C3
</note>
  <outline>
    <contour>
      <point x="399" y="714" type="line"/>
      <point x="399" y="653" type="line"/>
      <point x="422" y="653" type="line" smooth="yes"/>
      <point x="444" y="653"/>
      <point x="465" y="636"/>
      <point x="465" y="600" type="curve" smooth="yes"/>
      <point x="465" y="415" type="line" smooth="yes"/>
      <point x="465" y="342"/>
      <point x="413" y="288"/>
      <point x="342" y="288" type="curve" smooth="yes"/>
      <point x="282" y="288"/>
      <point x="242" y="328"/>
      <point x="242" y="418" type="curve" smooth="yes"/>
      <point x="242" y="494"/>
      <point x="255" y="536"/>
      <point x="285" y="573" type="curve"/>
      <point x="256" y="586"/>
      <point x="227" y="592"/>
      <point x="200" y="592" type="curve" smooth="yes"/>
      <point x="114" y="592"/>
      <point x="42" y="532"/>
      <point x="42" y="413" type="curve" smooth="yes"/>
      <point x="42" y="275"/>
      <point x="159" y="212"/>
      <point x="283" y="212" type="curve" smooth="yes"/>
      <point x="376" y="212"/>
      <point x="426" y="243"/>
      <point x="461" y="280" type="curve"/>
      <point x="471" y="280" type="line"/>
      <point x="466" y="252"/>
      <point x="465" y="223"/>
      <point x="465" y="191" type="curve" smooth="yes"/>
      <point x="465" y="0" type="line"/>
      <point x="665" y="0" type="line"/>
      <point x="665" y="599" type="line" smooth="yes"/>
      <point x="665" y="636"/>
      <point x="679" y="653"/>
      <point x="707" y="653" type="curve" smooth="yes"/>
      <point x="732" y="653" type="line"/>
      <point x="732" y="714" type="line"/>
    </contour>
  </outline>
</glyph>
<glyph name="Har-oldgeorgian" format="2">
  <advance width="771"/>
  <unicode hex="10C4"/>
  <note>
uni10C4
</note>
  <outline>
    <contour>
      <point x="437" y="714" type="line"/>
      <point x="437" y="653" type="line"/>
      <point x="450" y="653" type="line" smooth="yes"/>
      <point x="472" y="653"/>
      <point x="493" y="636"/>
      <point x="493" y="600" type="curve" smooth="yes"/>
      <point x="493" y="425" type="line" smooth="yes"/>
      <point x="493" y="343"/>
      <point x="458" y="296"/>
      <point x="395" y="296" type="curve" smooth="yes"/>
      <point x="338" y="296"/>
      <point x="300" y="336"/>
      <point x="300" y="422" type="curve" smooth="yes"/>
      <point x="300" y="599" type="line" smooth="yes"/>
      <point x="300" y="636"/>
      <point x="314" y="653"/>
      <point x="342" y="653" type="curve" smooth="yes"/>
      <point x="357" y="653" type="line"/>
      <point x="357" y="714" type="line"/>
      <point x="34" y="714" type="line"/>
      <point x="34" y="653" type="line"/>
      <point x="57" y="653" type="line" smooth="yes"/>
      <point x="79" y="653"/>
      <point x="100" y="636"/>
      <point x="100" y="600" type="curve" smooth="yes"/>
      <point x="100" y="434" type="line" smooth="yes"/>
      <point x="100" y="317"/>
      <point x="172" y="249"/>
      <point x="297" y="228" type="curve"/>
      <point x="297" y="0" type="line"/>
      <point x="497" y="0" type="line"/>
      <point x="497" y="230" type="line"/>
      <point x="625" y="257"/>
      <point x="693" y="338"/>
      <point x="693" y="455" type="curve" smooth="yes"/>
      <point x="693" y="599" type="line" smooth="yes"/>
      <point x="693" y="636"/>
      <point x="707" y="653"/>
      <point x="735" y="653" type="curve" smooth="yes"/>
      <point x="760" y="653" type="line"/>
      <point x="760" y="714" type="line"/>
    </contour>
  </outline>
</glyph>
<glyph name="Hoe-oldgeorgian" format="2">
  <advance width="846"/>
  <unicode hex="10C5"/>
  <note>
uni10C5
</note>
  <outline>
    <contour>
      <point x="249" y="-14" type="curve" smooth="yes"/>
      <point x="381" y="-14"/>
      <point x="496" y="39"/>
      <point x="496" y="161" type="curve" smooth="yes"/>
      <point x="496" y="212" type="line"/>
      <point x="550" y="212" type="line"/>
      <point x="606" y="212"/>
      <point x="630" y="191"/>
      <point x="630" y="97" type="curve"/>
      <point x="717" y="97"/>
      <point x="762" y="136"/>
      <point x="762" y="190" type="curve" smooth="yes"/>
      <point x="762" y="251"/>
      <point x="700" y="282"/>
      <point x="605" y="282" type="curve"/>
      <point x="496" y="282" type="line"/>
      <point x="496" y="347" type="line"/>
      <point x="518" y="347" type="line" smooth="yes"/>
      <point x="755" y="347"/>
      <point x="843" y="428"/>
      <point x="843" y="538" type="curve" smooth="yes"/>
      <point x="843" y="655"/>
      <point x="748" y="714"/>
      <point x="540" y="714" type="curve" smooth="yes"/>
      <point x="204" y="714" type="line"/>
      <point x="204" y="653" type="line"/>
      <point x="249" y="653" type="line" smooth="yes"/>
      <point x="271" y="653"/>
      <point x="296" y="646"/>
      <point x="296" y="597" type="curve" smooth="yes"/>
      <point x="296" y="282" type="line"/>
      <point x="233" y="282" type="line" smooth="yes"/>
      <point x="87" y="282"/>
      <point x="12" y="239"/>
      <point x="12" y="135" type="curve" smooth="yes"/>
      <point x="12" y="47"/>
      <point x="94" y="-14"/>
    </contour>
    <contour>
      <point x="251" y="57" type="curve" smooth="yes"/>
      <point x="218" y="57"/>
      <point x="212" y="102"/>
      <point x="212" y="135" type="curve" smooth="yes"/>
      <point x="212" y="187"/>
      <point x="226" y="212"/>
      <point x="267" y="212" type="curve" smooth="yes"/>
      <point x="296" y="212" type="line"/>
      <point x="296" y="166" type="line" smooth="yes"/>
      <point x="296" y="96"/>
      <point x="291" y="57"/>
    </contour>
    <contour>
      <point x="495" y="413" type="line"/>
      <point x="495" y="647" type="line"/>
      <point x="523" y="647" type="line" smooth="yes"/>
      <point x="599" y="647"/>
      <point x="635" y="611"/>
      <point x="635" y="534" type="curve" smooth="yes"/>
      <point x="635" y="448"/>
      <point x="596" y="413"/>
      <point x="509" y="413" type="curve" smooth="yes"/>
    </contour>
  </outline>
</glyph>
<glyph name="Yn-oldgeorgian" format="2">
  <advance width="605"/>
  <unicode hex="10C7"/>
  <outline>
    <contour>
      <point x="291" y="-14" type="curve" smooth="yes"/>
      <point x="536" y="-14"/>
      <point x="581" y="78"/>
      <point x="581" y="129" type="curve" smooth="yes"/>
      <point x="581" y="218"/>
      <point x="515" y="241"/>
      <point x="448" y="241" type="curve"/>
      <point x="448" y="105"/>
      <point x="369" y="54"/>
      <point x="299" y="54" type="curve" smooth="yes"/>
      <point x="229" y="54"/>
      <point x="189" y="107"/>
      <point x="189" y="153" type="curve" smooth="yes"/>
      <point x="189" y="217"/>
      <point x="257" y="249"/>
      <point x="365" y="293" type="curve" smooth="yes"/>
      <point x="517" y="355"/>
      <point x="559" y="429"/>
      <point x="559" y="518" type="curve" smooth="yes"/>
      <point x="559" y="648"/>
      <point x="464" y="728"/>
      <point x="290" y="728" type="curve" smooth="yes"/>
      <point x="128" y="728"/>
      <point x="58" y="659"/>
      <point x="58" y="598" type="curve" smooth="yes"/>
      <point x="58" y="548"/>
      <point x="96" y="509"/>
      <point x="203" y="509" type="curve"/>
      <point x="203" y="576"/>
      <point x="243" y="659"/>
      <point x="314" y="659" type="curve" smooth="yes"/>
      <point x="363" y="659"/>
      <point x="402" y="632"/>
      <point x="402" y="579" type="curve" smooth="yes"/>
      <point x="402" y="539"/>
      <point x="374" y="498"/>
      <point x="225" y="438" type="curve" smooth="yes"/>
      <point x="73" y="377"/>
      <point x="30" y="307"/>
      <point x="30" y="212" type="curve" smooth="yes"/>
      <point x="30" y="82"/>
      <point x="132" y="-14"/>
    </contour>
  </outline>
</glyph>
<glyph name="Aen-oldgeorgian" format="2">
  <advance width="721"/>
  <unicode hex="10CD"/>
  <outline>
    <contour>
      <point x="46" y="0" type="line"/>
      <point x="670" y="0" type="line"/>
      <point x="675" y="229" type="line"/>
      <point x="588" y="229" type="line"/>
      <point x="583" y="182" type="line" smooth="yes"/>
      <point x="577" y="128"/>
      <point x="560" y="69"/>
      <point x="462" y="69" type="curve" smooth="yes"/>
      <point x="272" y="69" type="line"/>
      <point x="648" y="656" type="line"/>
      <point x="648" y="714" type="line"/>
      <point x="70" y="714" type="line"/>
      <point x="65" y="485" type="line"/>
      <point x="152" y="485" type="line"/>
      <point x="157" y="547" type="line" smooth="yes"/>
      <point x="162" y="610"/>
      <point x="173" y="645"/>
      <point x="239" y="645" type="curve" smooth="yes"/>
      <point x="421" y="645" type="line"/>
      <point x="46" y="57" type="line"/>
    </contour>
  </outline>
</glyph>
<glyph name="an-georgian" format="2">
  <advance width="595"/>
  <unicode hex="10D0"/>
  <note>
uni10D0
</note>
  <anchor x="298" y="536" name="top"/>
  <outline>
    <contour>
      <point x="291" y="-14" type="curve" smooth="yes"/>
      <point x="439" y="-14"/>
      <point x="553" y="59"/>
      <point x="553" y="178" type="curve" smooth="yes"/>
      <point x="553" y="275"/>
      <point x="490" y="327"/>
      <point x="437" y="373" type="curve" smooth="yes"/>
      <point x="398" y="406"/>
      <point x="365" y="437"/>
      <point x="365" y="479" type="curve" smooth="yes"/>
      <point x="365" y="494"/>
      <point x="368" y="510"/>
      <point x="375" y="528" type="curve"/>
      <point x="356" y="542"/>
      <point x="332" y="550"/>
      <point x="295" y="550" type="curve" smooth="yes"/>
      <point x="238" y="550"/>
      <point x="202" y="515"/>
      <point x="202" y="465" type="curve" smooth="yes"/>
      <point x="202" y="404"/>
      <point x="246" y="358"/>
      <point x="286" y="317" type="curve" smooth="yes"/>
      <point x="322" y="281"/>
      <point x="356" y="241"/>
      <point x="356" y="170" type="curve" smooth="yes"/>
      <point x="356" y="98"/>
      <point x="338" y="57"/>
      <point x="291" y="57" type="curve" smooth="yes"/>
      <point x="246" y="57"/>
      <point x="226" y="98"/>
      <point x="226" y="170" type="curve" smooth="yes"/>
      <point x="226" y="206"/>
      <point x="231" y="235"/>
      <point x="241" y="261" type="curve"/>
      <point x="216" y="275"/>
      <point x="183" y="285"/>
      <point x="152" y="285" type="curve" smooth="yes"/>
      <point x="91" y="285"/>
      <point x="37" y="242"/>
      <point x="37" y="167" type="curve" smooth="yes"/>
      <point x="37" y="73"/>
      <point x="105" y="-14"/>
    </contour>
  </outline>
</glyph>
<glyph name="ban-georgian" format="2">
  <advance width="641"/>
  <unicode hex="10D1"/>
  <note>
uni10D1
</note>
  <outline>
    <contour>
      <point x="412" y="536" type="curve"/>
      <point x="419" y="549"/>
      <point x="423" y="564"/>
      <point x="423" y="581" type="curve" smooth="yes"/>
      <point x="423" y="621"/>
      <point x="403" y="644"/>
      <point x="382" y="663" type="curve" smooth="yes"/>
      <point x="361" y="682"/>
      <point x="345" y="699"/>
      <point x="345" y="721" type="curve" smooth="yes"/>
      <point x="345" y="732"/>
      <point x="347" y="742"/>
      <point x="352" y="752" type="curve"/>
      <point x="333" y="766"/>
      <point x="312" y="774"/>
      <point x="275" y="774" type="curve" smooth="yes"/>
      <point x="222" y="774"/>
      <point x="177" y="749"/>
      <point x="177" y="696" type="curve" smooth="yes"/>
      <point x="177" y="663"/>
      <point x="203" y="641"/>
      <point x="227" y="621" type="curve" smooth="yes"/>
      <point x="247" y="605"/>
      <point x="265" y="588"/>
      <point x="265" y="559" type="curve" smooth="yes"/>
      <point x="265" y="553"/>
      <point x="264" y="547"/>
      <point x="263" y="541" type="curve"/>
      <point x="124" y="523"/>
      <point x="42" y="436"/>
      <point x="42" y="271" type="curve" smooth="yes"/>
      <point x="42" y="79"/>
      <point x="147" y="-14"/>
      <point x="319" y="-14" type="curve" smooth="yes"/>
      <point x="503" y="-14"/>
      <point x="599" y="79"/>
      <point x="599" y="271" type="curve" smooth="yes"/>
      <point x="599" y="423"/>
      <point x="530" y="508"/>
    </contour>
    <contour>
      <point x="321" y="57" type="curve" smooth="yes"/>
      <point x="261" y="57"/>
      <point x="240" y="130"/>
      <point x="240" y="271" type="curve" smooth="yes"/>
      <point x="240" y="408"/>
      <point x="260" y="478"/>
      <point x="320" y="478" type="curve" smooth="yes"/>
      <point x="380" y="478"/>
      <point x="402" y="408"/>
      <point x="402" y="271" type="curve" smooth="yes"/>
      <point x="402" y="130"/>
      <point x="381" y="57"/>
    </contour>
  </outline>
</glyph>
<glyph name="gan-georgian" format="2">
  <advance width="631"/>
  <unicode hex="10D2"/>
  <note>
uni10D2
</note>
  <outline>
    <contour>
      <point x="314" y="-254" type="curve" smooth="yes"/>
      <point x="488" y="-254"/>
      <point x="594" y="-161"/>
      <point x="594" y="31" type="curve" smooth="yes"/>
      <point x="594" y="171"/>
      <point x="526" y="257"/>
      <point x="423" y="287" type="curve"/>
      <point x="423" y="292" type="line"/>
      <point x="486" y="308"/>
      <point x="526" y="358"/>
      <point x="526" y="407" type="curve" smooth="yes"/>
      <point x="526" y="507"/>
      <point x="409" y="550"/>
      <point x="303" y="550" type="curve" smooth="yes"/>
      <point x="172" y="550"/>
      <point x="81" y="501"/>
      <point x="81" y="427" type="curve" smooth="yes"/>
      <point x="81" y="377"/>
      <point x="127" y="351"/>
      <point x="186" y="351" type="curve" smooth="yes"/>
      <point x="208" y="351"/>
      <point x="250" y="356"/>
      <point x="271" y="365" type="curve"/>
      <point x="267" y="376"/>
      <point x="262" y="400"/>
      <point x="262" y="421" type="curve" smooth="yes"/>
      <point x="262" y="455"/>
      <point x="273" y="485"/>
      <point x="303" y="485" type="curve" smooth="yes"/>
      <point x="336" y="485"/>
      <point x="346" y="455"/>
      <point x="346" y="412" type="curve" smooth="yes"/>
      <point x="346" y="358"/>
      <point x="329" y="318"/>
      <point x="258" y="303" type="curve" smooth="yes"/>
      <point x="115" y="273"/>
      <point x="37" y="199"/>
      <point x="37" y="31" type="curve" smooth="yes"/>
      <point x="37" y="-161"/>
      <point x="142" y="-254"/>
    </contour>
    <contour>
      <point x="316" y="-183" type="curve" smooth="yes"/>
      <point x="256" y="-183"/>
      <point x="235" y="-110"/>
      <point x="235" y="31" type="curve" smooth="yes"/>
      <point x="235" y="168"/>
      <point x="255" y="238"/>
      <point x="315" y="238" type="curve" smooth="yes"/>
      <point x="375" y="238"/>
      <point x="397" y="168"/>
      <point x="397" y="31" type="curve" smooth="yes"/>
      <point x="397" y="-110"/>
      <point x="376" y="-183"/>
    </contour>
  </outline>
</glyph>
<glyph name="don-georgian" format="2">
  <advance width="930"/>
  <unicode hex="10D3"/>
  <note>
uni10D3
</note>
  <outline>
    <contour>
      <point x="617" y="10" type="curve" smooth="yes"/>
      <point x="788" y="10"/>
      <point x="888" y="103"/>
      <point x="888" y="278" type="curve" smooth="yes"/>
      <point x="888" y="458"/>
      <point x="787" y="550"/>
      <point x="629" y="550" type="curve" smooth="yes"/>
      <point x="547" y="550"/>
      <point x="476" y="514"/>
      <point x="448" y="450" type="curve"/>
      <point x="443" y="450" type="line"/>
      <point x="413" y="513"/>
      <point x="363" y="550"/>
      <point x="279" y="550" type="curve" smooth="yes"/>
      <point x="147" y="550"/>
      <point x="42" y="457"/>
      <point x="42" y="281" type="curve" smooth="yes"/>
      <point x="42" y="98"/>
      <point x="153" y="-26"/>
      <point x="284" y="-81" type="curve"/>
      <point x="284" y="-85" type="line"/>
      <point x="226" y="-92"/>
      <point x="177" y="-124"/>
      <point x="153" y="-154" type="curve"/>
      <point x="185" y="-200" type="line"/>
      <point x="224" y="-169"/>
      <point x="284" y="-144"/>
      <point x="371" y="-144" type="curve" smooth="yes"/>
      <point x="489" y="-144"/>
      <point x="602" y="-176"/>
      <point x="602" y="-254" type="curve"/>
      <point x="662" y="-254"/>
      <point x="721" y="-240"/>
      <point x="721" y="-185" type="curve" smooth="yes"/>
      <point x="721" y="-108"/>
      <point x="599" y="-59"/>
      <point x="465" y="-24" type="curve" smooth="yes"/>
      <point x="327" y="12"/>
      <point x="239" y="106"/>
      <point x="239" y="281" type="curve" smooth="yes"/>
      <point x="239" y="417"/>
      <point x="261" y="478"/>
      <point x="301" y="478" type="curve" smooth="yes"/>
      <point x="341" y="478"/>
      <point x="355" y="438"/>
      <point x="355" y="343" type="curve" smooth="yes"/>
      <point x="355" y="281" type="line" smooth="yes"/>
      <point x="355" y="103"/>
      <point x="456" y="10"/>
    </contour>
    <contour>
      <point x="617" y="479" type="curve" smooth="yes"/>
      <point x="671" y="479"/>
      <point x="690" y="426"/>
      <point x="690" y="278" type="curve" smooth="yes"/>
      <point x="690" y="134"/>
      <point x="671" y="81"/>
      <point x="617" y="81" type="curve" smooth="yes"/>
      <point x="565" y="81"/>
      <point x="544" y="134"/>
      <point x="544" y="278" type="curve" smooth="yes"/>
      <point x="544" y="426"/>
      <point x="565" y="479"/>
    </contour>
  </outline>
</glyph>
<glyph name="en-georgian" format="2">
  <advance width="637"/>
  <unicode hex="10D4"/>
  <note>
uni10D4
</note>
  <anchor x="319" y="536" name="top"/>
  <outline>
    <contour>
      <point x="301" y="-254" type="curve" smooth="yes"/>
      <point x="505" y="-254"/>
      <point x="567" y="-134"/>
      <point x="567" y="3" type="curve" smooth="yes"/>
      <point x="567" y="309" type="line" smooth="yes"/>
      <point x="567" y="468"/>
      <point x="450" y="549"/>
      <point x="309" y="549" type="curve" smooth="yes"/>
      <point x="170" y="549"/>
      <point x="57" y="470"/>
      <point x="57" y="370" type="curve" smooth="yes"/>
      <point x="57" y="304"/>
      <point x="103" y="250"/>
      <point x="176" y="250" type="curve" smooth="yes"/>
      <point x="204" y="250"/>
      <point x="235" y="258"/>
      <point x="267" y="270" type="curve"/>
      <point x="253" y="302"/>
      <point x="247" y="335"/>
      <point x="247" y="374" type="curve" smooth="yes"/>
      <point x="247" y="425"/>
      <point x="265" y="478"/>
      <point x="309" y="478" type="curve" smooth="yes"/>
      <point x="358" y="478"/>
      <point x="372" y="427"/>
      <point x="372" y="319" type="curve" smooth="yes"/>
      <point x="372" y="-7" type="line" smooth="yes"/>
      <point x="372" y="-140"/>
      <point x="353" y="-183"/>
      <point x="302" y="-183" type="curve" smooth="yes"/>
      <point x="252" y="-183"/>
      <point x="232" y="-136"/>
      <point x="232" y="-45" type="curve" smooth="yes"/>
      <point x="232" y="18"/>
      <point x="245" y="55"/>
      <point x="263" y="94" type="curve"/>
      <point x="232" y="111"/>
      <point x="203" y="119"/>
      <point x="177" y="119" type="curve" smooth="yes"/>
      <point x="93" y="119"/>
      <point x="37" y="40"/>
      <point x="37" y="-39" type="curve" smooth="yes"/>
      <point x="37" y="-171"/>
      <point x="132" y="-254"/>
    </contour>
  </outline>
</glyph>
<glyph name="vin-georgian" format="2">
  <advance width="626"/>
  <unicode hex="10D5"/>
  <note>
uni10D5
</note>
  <outline>
    <contour>
      <point x="311" y="-254" type="curve" smooth="yes"/>
      <point x="491" y="-254"/>
      <point x="589" y="-134"/>
      <point x="589" y="-22" type="curve" smooth="yes"/>
      <point x="589" y="101"/>
      <point x="501" y="159"/>
      <point x="407" y="179" type="curve"/>
      <point x="407" y="183" type="line"/>
      <point x="501" y="205"/>
      <point x="567" y="267"/>
      <point x="567" y="362" type="curve" smooth="yes"/>
      <point x="567" y="475"/>
      <point x="452" y="549"/>
      <point x="309" y="549" type="curve" smooth="yes"/>
      <point x="170" y="549"/>
      <point x="57" y="475"/>
      <point x="57" y="380" type="curve" smooth="yes"/>
      <point x="57" y="324"/>
      <point x="98" y="280"/>
      <point x="169" y="280" type="curve" smooth="yes"/>
      <point x="197" y="280"/>
      <point x="228" y="288"/>
      <point x="260" y="300" type="curve"/>
      <point x="251" y="329"/>
      <point x="247" y="345"/>
      <point x="247" y="384" type="curve" smooth="yes"/>
      <point x="247" y="425"/>
      <point x="265" y="478"/>
      <point x="309" y="478" type="curve" smooth="yes"/>
      <point x="358" y="478"/>
      <point x="372" y="427"/>
      <point x="372" y="352" type="curve" smooth="yes"/>
      <point x="372" y="273"/>
      <point x="358" y="218"/>
      <point x="300" y="218" type="curve" smooth="yes"/>
      <point x="263" y="218" type="line"/>
      <point x="263" y="142" type="line"/>
      <point x="300" y="142" type="line" smooth="yes"/>
      <point x="363" y="142"/>
      <point x="392" y="88"/>
      <point x="392" y="-27" type="curve" smooth="yes"/>
      <point x="392" y="-136"/>
      <point x="363" y="-183"/>
      <point x="312" y="-183" type="curve" smooth="yes"/>
      <point x="262" y="-183"/>
      <point x="232" y="-136"/>
      <point x="232" y="-60" type="curve" smooth="yes"/>
      <point x="232" y="-2"/>
      <point x="240" y="22"/>
      <point x="257" y="61" type="curve"/>
      <point x="226" y="78"/>
      <point x="197" y="86"/>
      <point x="171" y="86" type="curve" smooth="yes"/>
      <point x="90" y="86"/>
      <point x="37" y="20"/>
      <point x="37" y="-49" type="curve" smooth="yes"/>
      <point x="37" y="-171"/>
      <point x="142" y="-254"/>
    </contour>
  </outline>
</glyph>
<glyph name="zen-georgian" format="2">
  <advance width="669"/>
  <unicode hex="10D6"/>
  <note>
uni10D6
</note>
  <outline>
    <contour>
      <point x="349" y="-14" type="curve" smooth="yes"/>
      <point x="529" y="-14"/>
      <point x="627" y="89"/>
      <point x="627" y="260" type="curve" smooth="yes"/>
      <point x="627" y="407"/>
      <point x="544" y="496"/>
      <point x="418" y="517" type="curve" smooth="yes"/>
      <point x="413" y="518"/>
      <point x="404" y="518"/>
      <point x="400" y="518" type="curve"/>
      <point x="399" y="522" type="line"/>
      <point x="418" y="542"/>
      <point x="430" y="583"/>
      <point x="430" y="614" type="curve" smooth="yes"/>
      <point x="430" y="720"/>
      <point x="322" y="774"/>
      <point x="206" y="774" type="curve" smooth="yes"/>
      <point x="81" y="774"/>
      <point x="-20" y="715"/>
      <point x="-20" y="599" type="curve" smooth="yes"/>
      <point x="-20" y="512"/>
      <point x="42" y="453"/>
      <point x="129" y="438" type="curve"/>
      <point x="129" y="434" type="line"/>
      <point x="92" y="393"/>
      <point x="71" y="332"/>
      <point x="71" y="251" type="curve" smooth="yes"/>
      <point x="71" y="89"/>
      <point x="175" y="-14"/>
    </contour>
    <contour>
      <point x="349" y="57" type="curve" smooth="yes"/>
      <point x="291" y="57"/>
      <point x="268" y="130"/>
      <point x="268" y="260" type="curve" smooth="yes"/>
      <point x="268" y="387"/>
      <point x="291" y="457"/>
      <point x="348" y="457" type="curve" smooth="yes"/>
      <point x="408" y="457"/>
      <point x="430" y="387"/>
      <point x="430" y="260" type="curve" smooth="yes"/>
      <point x="430" y="130"/>
      <point x="408" y="57"/>
    </contour>
    <contour>
      <point x="205" y="501" type="curve" smooth="yes"/>
      <point x="170" y="501"/>
      <point x="157" y="544"/>
      <point x="157" y="608" type="curve" smooth="yes"/>
      <point x="157" y="669"/>
      <point x="169" y="712"/>
      <point x="205" y="712" type="curve" smooth="yes"/>
      <point x="241" y="712"/>
      <point x="253" y="669"/>
      <point x="253" y="608" type="curve" smooth="yes"/>
      <point x="253" y="544"/>
      <point x="241" y="501"/>
    </contour>
  </outline>
</glyph>
<glyph name="tan-georgian" format="2">
  <advance width="930"/>
  <unicode hex="10D7"/>
  <note>
uni10D7
</note>
  <outline>
    <contour>
      <point x="313" y="-14" type="curve" smooth="yes"/>
      <point x="474" y="-14"/>
      <point x="575" y="79"/>
      <point x="575" y="271" type="curve" smooth="yes"/>
      <point x="575" y="343" type="line" smooth="yes"/>
      <point x="575" y="438"/>
      <point x="589" y="478"/>
      <point x="629" y="478" type="curve" smooth="yes"/>
      <point x="669" y="478"/>
      <point x="691" y="418"/>
      <point x="691" y="268" type="curve" smooth="yes"/>
      <point x="691" y="150"/>
      <point x="666" y="74"/>
      <point x="621" y="64" type="curve"/>
      <point x="621" y="20"/>
      <point x="643" y="-9"/>
      <point x="692" y="-9" type="curve" smooth="yes"/>
      <point x="793" y="-9"/>
      <point x="888" y="94"/>
      <point x="888" y="268" type="curve" smooth="yes"/>
      <point x="888" y="458"/>
      <point x="783" y="550"/>
      <point x="651" y="550" type="curve" smooth="yes"/>
      <point x="567" y="550"/>
      <point x="517" y="513"/>
      <point x="487" y="450" type="curve"/>
      <point x="482" y="450" type="line"/>
      <point x="454" y="514"/>
      <point x="383" y="550"/>
      <point x="301" y="550" type="curve" smooth="yes"/>
      <point x="143" y="550"/>
      <point x="42" y="458"/>
      <point x="42" y="268" type="curve" smooth="yes"/>
      <point x="42" y="79"/>
      <point x="142" y="-14"/>
    </contour>
    <contour>
      <point x="313" y="57" type="curve" smooth="yes"/>
      <point x="259" y="57"/>
      <point x="240" y="110"/>
      <point x="240" y="268" type="curve" smooth="yes"/>
      <point x="240" y="426"/>
      <point x="259" y="479"/>
      <point x="313" y="479" type="curve" smooth="yes"/>
      <point x="365" y="479"/>
      <point x="386" y="426"/>
      <point x="386" y="268" type="curve" smooth="yes"/>
      <point x="386" y="110"/>
      <point x="365" y="57"/>
    </contour>
  </outline>
</glyph>
<glyph name="in-georgian" format="2">
  <advance width="631"/>
  <unicode hex="10D8"/>
  <note>
uni10D8
</note>
  <anchor x="316" y="536" name="top"/>
  <outline>
    <contour>
      <point x="223" y="-9" type="curve" smooth="yes"/>
      <point x="279" y="-9"/>
      <point x="292" y="19"/>
      <point x="292" y="63" type="curve"/>
      <point x="253" y="74"/>
      <point x="240" y="147"/>
      <point x="240" y="271" type="curve" smooth="yes"/>
      <point x="240" y="408"/>
      <point x="260" y="478"/>
      <point x="315" y="478" type="curve" smooth="yes"/>
      <point x="370" y="478"/>
      <point x="392" y="408"/>
      <point x="392" y="271" type="curve" smooth="yes"/>
      <point x="392" y="150"/>
      <point x="382" y="74"/>
      <point x="341" y="64" type="curve"/>
      <point x="341" y="20"/>
      <point x="353" y="-9"/>
      <point x="398" y="-9" type="curve" smooth="yes"/>
      <point x="509" y="-9"/>
      <point x="589" y="93"/>
      <point x="589" y="275" type="curve" smooth="yes"/>
      <point x="589" y="458"/>
      <point x="484" y="550"/>
      <point x="317" y="550" type="curve" smooth="yes"/>
      <point x="138" y="550"/>
      <point x="42" y="458"/>
      <point x="42" y="275" type="curve" smooth="yes"/>
      <point x="42" y="93"/>
      <point x="130" y="-9"/>
    </contour>
  </outline>
</glyph>
<glyph name="kan-georgian" format="2">
  <advance width="611"/>
  <unicode hex="10D9"/>
  <note>
uni10D9
</note>
  <outline>
    <contour>
      <point x="301" y="-254" type="curve" smooth="yes"/>
      <point x="476" y="-254"/>
      <point x="574" y="-139"/>
      <point x="574" y="-17" type="curve" smooth="yes"/>
      <point x="574" y="126"/>
      <point x="486" y="187"/>
      <point x="392" y="207" type="curve"/>
      <point x="392" y="211" type="line"/>
      <point x="486" y="233"/>
      <point x="552" y="279"/>
      <point x="552" y="367" type="curve" smooth="yes"/>
      <point x="552" y="475"/>
      <point x="437" y="542"/>
      <point x="284" y="542" type="curve"/>
      <point x="284" y="478" type="line"/>
      <point x="333" y="478"/>
      <point x="357" y="427"/>
      <point x="357" y="357" type="curve" smooth="yes"/>
      <point x="357" y="303"/>
      <point x="343" y="248"/>
      <point x="285" y="248" type="curve" smooth="yes"/>
      <point x="248" y="248" type="line"/>
      <point x="248" y="172" type="line"/>
      <point x="285" y="172" type="line" smooth="yes"/>
      <point x="348" y="172"/>
      <point x="377" y="118"/>
      <point x="377" y="-17" type="curve" smooth="yes"/>
      <point x="377" y="-143"/>
      <point x="348" y="-183"/>
      <point x="302" y="-183" type="curve" smooth="yes"/>
      <point x="257" y="-183"/>
      <point x="227" y="-143"/>
      <point x="227" y="-60" type="curve" smooth="yes"/>
      <point x="227" y="-2"/>
      <point x="235" y="22"/>
      <point x="252" y="61" type="curve"/>
      <point x="221" y="78"/>
      <point x="192" y="86"/>
      <point x="166" y="86" type="curve" smooth="yes"/>
      <point x="85" y="86"/>
      <point x="32" y="20"/>
      <point x="32" y="-49" type="curve" smooth="yes"/>
      <point x="32" y="-171"/>
      <point x="136" y="-254"/>
    </contour>
  </outline>
</glyph>
<glyph name="las-georgian" format="2">
  <advance width="1164"/>
  <unicode hex="10DA"/>
  <note>
uni10DA
</note>
  <outline>
    <contour>
      <point x="895" y="550" type="curve" smooth="yes"/>
      <point x="811" y="550"/>
      <point x="753" y="513"/>
      <point x="727" y="450" type="curve"/>
      <point x="722" y="450" type="line"/>
      <point x="701" y="513"/>
      <point x="651" y="550"/>
      <point x="582" y="550" type="curve" smooth="yes"/>
      <point x="509" y="550"/>
      <point x="465" y="513"/>
      <point x="442" y="450" type="curve"/>
      <point x="437" y="450" type="line"/>
      <point x="413" y="513"/>
      <point x="354" y="550"/>
      <point x="271" y="550" type="curve" smooth="yes"/>
      <point x="137" y="550"/>
      <point x="42" y="458"/>
      <point x="42" y="281" type="curve" smooth="yes"/>
      <point x="42" y="78"/>
      <point x="163" y="-26"/>
      <point x="304" y="-81" type="curve"/>
      <point x="304" y="-85" type="line"/>
      <point x="246" y="-92"/>
      <point x="197" y="-124"/>
      <point x="173" y="-154" type="curve"/>
      <point x="205" y="-200" type="line"/>
      <point x="244" y="-169"/>
      <point x="314" y="-144"/>
      <point x="401" y="-144" type="curve" smooth="yes"/>
      <point x="519" y="-144"/>
      <point x="652" y="-176"/>
      <point x="652" y="-254" type="curve"/>
      <point x="712" y="-254"/>
      <point x="771" y="-240"/>
      <point x="771" y="-185" type="curve" smooth="yes"/>
      <point x="771" y="-104"/>
      <point x="649" y="-50"/>
      <point x="502" y="-20" type="curve" smooth="yes"/>
      <point x="355" y="10"/>
      <point x="239" y="86"/>
      <point x="239" y="281" type="curve" smooth="yes"/>
      <point x="239" y="428"/>
      <point x="259" y="478"/>
      <point x="299" y="478" type="curve" smooth="yes"/>
      <point x="339" y="478"/>
      <point x="345" y="443"/>
      <point x="345" y="348" type="curve" smooth="yes"/>
      <point x="345" y="179" type="line"/>
      <point x="534" y="179" type="line"/>
      <point x="534" y="348" type="line" smooth="yes"/>
      <point x="534" y="443"/>
      <point x="546" y="478"/>
      <point x="582" y="478" type="curve" smooth="yes"/>
      <point x="618" y="478"/>
      <point x="630" y="443"/>
      <point x="630" y="348" type="curve" smooth="yes"/>
      <point x="630" y="179" type="line"/>
      <point x="819" y="179" type="line"/>
      <point x="819" y="348" type="line" smooth="yes"/>
      <point x="819" y="443"/>
      <point x="833" y="478"/>
      <point x="869" y="478" type="curve" smooth="yes"/>
      <point x="912" y="478"/>
      <point x="925" y="428"/>
      <point x="925" y="281" type="curve" smooth="yes"/>
      <point x="925" y="169"/>
      <point x="900" y="93"/>
      <point x="855" y="83" type="curve"/>
      <point x="855" y="39"/>
      <point x="877" y="10"/>
      <point x="926" y="10" type="curve" smooth="yes"/>
      <point x="1027" y="10"/>
      <point x="1122" y="113"/>
      <point x="1122" y="281" type="curve" smooth="yes"/>
      <point x="1122" y="458"/>
      <point x="1027" y="550"/>
    </contour>
  </outline>
</glyph>
<glyph name="man-georgian" format="2">
  <advance width="657"/>
  <unicode hex="10DB"/>
  <note>
uni10DB
</note>
  <outline>
    <contour>
      <point x="311" y="-14" type="curve" smooth="yes"/>
      <point x="487" y="-14"/>
      <point x="582" y="91"/>
      <point x="582" y="272" type="curve" smooth="yes"/>
      <point x="582" y="530" type="line" smooth="yes"/>
      <point x="582" y="702"/>
      <point x="473" y="774"/>
      <point x="307" y="774" type="curve" smooth="yes"/>
      <point x="154" y="774"/>
      <point x="61" y="719"/>
      <point x="61" y="649" type="curve" smooth="yes"/>
      <point x="61" y="618"/>
      <point x="86" y="579"/>
      <point x="154" y="579" type="curve" smooth="yes"/>
      <point x="181" y="579"/>
      <point x="217" y="582"/>
      <point x="245" y="591" type="curve"/>
      <point x="240" y="604"/>
      <point x="238" y="618"/>
      <point x="238" y="631" type="curve" smooth="yes"/>
      <point x="238" y="671"/>
      <point x="260" y="705"/>
      <point x="307" y="705" type="curve" smooth="yes"/>
      <point x="364" y="705"/>
      <point x="385" y="663"/>
      <point x="385" y="608" type="curve" smooth="yes"/>
      <point x="385" y="576" type="line" smooth="yes"/>
      <point x="385" y="547"/>
      <point x="385" y="492"/>
      <point x="387" y="462" type="curve"/>
      <point x="382" y="462" type="line"/>
      <point x="354" y="500"/>
      <point x="314" y="529"/>
      <point x="241" y="529" type="curve" smooth="yes"/>
      <point x="97" y="529"/>
      <point x="42" y="418"/>
      <point x="42" y="272" type="curve" smooth="yes"/>
      <point x="42" y="94"/>
      <point x="139" y="-14"/>
    </contour>
    <contour>
      <point x="312" y="57" type="curve" smooth="yes"/>
      <point x="255" y="57"/>
      <point x="236" y="125"/>
      <point x="236" y="258" type="curve" smooth="yes"/>
      <point x="236" y="378"/>
      <point x="255" y="448"/>
      <point x="310" y="448" type="curve" smooth="yes"/>
      <point x="375" y="448"/>
      <point x="385" y="354"/>
      <point x="385" y="258" type="curve" smooth="yes"/>
      <point x="385" y="125"/>
      <point x="375" y="57"/>
    </contour>
  </outline>
</glyph>
<glyph name="nar-georgian" format="2">
  <advance width="657"/>
  <unicode hex="10DC"/>
  <note>
uni10DC
</note>
  <outline>
    <contour>
      <point x="346" y="-14" type="curve" smooth="yes"/>
      <point x="518" y="-14"/>
      <point x="615" y="94"/>
      <point x="615" y="272" type="curve" smooth="yes"/>
      <point x="615" y="439"/>
      <point x="560" y="550"/>
      <point x="416" y="550" type="curve" smooth="yes"/>
      <point x="343" y="550"/>
      <point x="303" y="521"/>
      <point x="275" y="483" type="curve"/>
      <point x="270" y="483" type="line"/>
      <point x="272" y="513"/>
      <point x="272" y="558"/>
      <point x="272" y="576" type="curve" smooth="yes"/>
      <point x="272" y="608" type="line" smooth="yes"/>
      <point x="272" y="663"/>
      <point x="293" y="697"/>
      <point x="349" y="697" type="curve" smooth="yes"/>
      <point x="381" y="697"/>
      <point x="402" y="684"/>
      <point x="426" y="667" type="curve" smooth="yes"/>
      <point x="446" y="653"/>
      <point x="470" y="641"/>
      <point x="502" y="641" type="curve" smooth="yes"/>
      <point x="533" y="641"/>
      <point x="574" y="660"/>
      <point x="574" y="714" type="curve" smooth="yes"/>
      <point x="574" y="748"/>
      <point x="555" y="763"/>
      <point x="534" y="774" type="curve"/>
      <point x="506" y="749"/>
      <point x="482" y="747"/>
      <point x="457" y="747" type="curve" smooth="yes"/>
      <point x="441" y="747"/>
      <point x="424" y="749"/>
      <point x="405" y="754" type="curve" smooth="yes"/>
      <point x="380" y="760"/>
      <point x="353" y="764"/>
      <point x="320" y="764" type="curve" smooth="yes"/>
      <point x="184" y="764"/>
      <point x="75" y="702"/>
      <point x="75" y="540" type="curve" smooth="yes"/>
      <point x="75" y="272" type="line" smooth="yes"/>
      <point x="75" y="91"/>
      <point x="170" y="-14"/>
    </contour>
    <contour>
      <point x="345" y="57" type="curve" smooth="yes"/>
      <point x="282" y="57"/>
      <point x="272" y="125"/>
      <point x="272" y="258" type="curve" smooth="yes"/>
      <point x="272" y="375"/>
      <point x="282" y="469"/>
      <point x="347" y="469" type="curve" smooth="yes"/>
      <point x="402" y="469"/>
      <point x="421" y="399"/>
      <point x="421" y="258" type="curve" smooth="yes"/>
      <point x="421" y="125"/>
      <point x="402" y="57"/>
    </contour>
  </outline>
</glyph>
<glyph name="on-georgian" format="2">
  <advance width="899"/>
  <unicode hex="10DD"/>
  <note>
uni10DD
</note>
  <anchor x="450" y="536" name="top"/>
  <outline>
    <contour>
      <point x="237" y="-9" type="curve" smooth="yes"/>
      <point x="297" y="-9"/>
      <point x="310" y="19"/>
      <point x="310" y="63" type="curve"/>
      <point x="262" y="73"/>
      <point x="239" y="147"/>
      <point x="239" y="271" type="curve" smooth="yes"/>
      <point x="239" y="418"/>
      <point x="259" y="478"/>
      <point x="299" y="478" type="curve" smooth="yes"/>
      <point x="339" y="478"/>
      <point x="355" y="438"/>
      <point x="355" y="343" type="curve" smooth="yes"/>
      <point x="355" y="179" type="line"/>
      <point x="544" y="179" type="line"/>
      <point x="544" y="343" type="line" smooth="yes"/>
      <point x="544" y="438"/>
      <point x="558" y="478"/>
      <point x="598" y="478" type="curve" smooth="yes"/>
      <point x="638" y="478"/>
      <point x="660" y="418"/>
      <point x="660" y="271" type="curve" smooth="yes"/>
      <point x="660" y="150"/>
      <point x="635" y="74"/>
      <point x="590" y="64" type="curve"/>
      <point x="590" y="20"/>
      <point x="612" y="-9"/>
      <point x="661" y="-9" type="curve" smooth="yes"/>
      <point x="762" y="-9"/>
      <point x="857" y="94"/>
      <point x="857" y="271" type="curve" smooth="yes"/>
      <point x="857" y="458"/>
      <point x="752" y="550"/>
      <point x="620" y="550" type="curve" smooth="yes"/>
      <point x="536" y="550"/>
      <point x="478" y="513"/>
      <point x="452" y="450" type="curve"/>
      <point x="447" y="450" type="line"/>
      <point x="423" y="513"/>
      <point x="364" y="550"/>
      <point x="281" y="550" type="curve" smooth="yes"/>
      <point x="137" y="550"/>
      <point x="42" y="458"/>
      <point x="42" y="271" type="curve" smooth="yes"/>
      <point x="42" y="93"/>
      <point x="144" y="-9"/>
    </contour>
  </outline>
</glyph>
<glyph name="par-georgian" format="2">
  <advance width="594"/>
  <unicode hex="10DE"/>
  <note>
uni10DE
</note>
  <outline>
    <contour>
      <point x="290" y="-14" type="curve" smooth="yes"/>
      <point x="479" y="-14"/>
      <point x="552" y="87"/>
      <point x="552" y="203" type="curve" smooth="yes"/>
      <point x="552" y="306"/>
      <point x="485" y="367"/>
      <point x="386" y="385" type="curve"/>
      <point x="386" y="389" type="line"/>
      <point x="485" y="407"/>
      <point x="533" y="454"/>
      <point x="533" y="516" type="curve" smooth="yes"/>
      <point x="533" y="585"/>
      <point x="478" y="622"/>
      <point x="428" y="650" type="curve" smooth="yes"/>
      <point x="389" y="672"/>
      <point x="355" y="692"/>
      <point x="355" y="721" type="curve" smooth="yes"/>
      <point x="355" y="732"/>
      <point x="357" y="742"/>
      <point x="362" y="752" type="curve"/>
      <point x="343" y="766"/>
      <point x="322" y="774"/>
      <point x="285" y="774" type="curve" smooth="yes"/>
      <point x="237" y="774"/>
      <point x="192" y="749"/>
      <point x="192" y="694" type="curve" smooth="yes"/>
      <point x="192" y="639"/>
      <point x="229" y="611"/>
      <point x="266" y="585" type="curve" smooth="yes"/>
      <point x="303" y="559"/>
      <point x="339" y="531"/>
      <point x="339" y="484" type="curve" smooth="yes"/>
      <point x="339" y="447"/>
      <point x="311" y="427"/>
      <point x="277" y="427" type="curve" smooth="yes"/>
      <point x="228" y="427" type="line"/>
      <point x="228" y="346" type="line"/>
      <point x="277" y="346" type="line" smooth="yes"/>
      <point x="331" y="346"/>
      <point x="356" y="300"/>
      <point x="356" y="203" type="curve" smooth="yes"/>
      <point x="356" y="95"/>
      <point x="337" y="57"/>
      <point x="291" y="57" type="curve" smooth="yes"/>
      <point x="246" y="57"/>
      <point x="226" y="92"/>
      <point x="226" y="170" type="curve" smooth="yes"/>
      <point x="226" y="206"/>
      <point x="231" y="235"/>
      <point x="241" y="261" type="curve"/>
      <point x="216" y="275"/>
      <point x="183" y="285"/>
      <point x="152" y="285" type="curve" smooth="yes"/>
      <point x="91" y="285"/>
      <point x="37" y="242"/>
      <point x="37" y="167" type="curve" smooth="yes"/>
      <point x="37" y="75"/>
      <point x="126" y="-14"/>
    </contour>
  </outline>
</glyph>
<glyph name="zhar-georgian" format="2">
  <advance width="718"/>
  <unicode hex="10DF"/>
  <note>
uni10DF
</note>
  <outline>
    <contour>
      <point x="372" y="-254" type="curve" smooth="yes"/>
      <point x="547" y="-254"/>
      <point x="643" y="-150"/>
      <point x="643" y="-7" type="curve" smooth="yes"/>
      <point x="643" y="536" type="line"/>
      <point x="448" y="536" type="line"/>
      <point x="379" y="507"/>
      <point x="299" y="488"/>
      <point x="210" y="479" type="curve"/>
      <point x="210" y="409" type="line"/>
      <point x="239" y="400"/>
      <point x="254" y="371"/>
      <point x="254" y="305" type="curve" smooth="yes"/>
      <point x="254" y="261"/>
      <point x="246" y="234"/>
      <point x="221" y="234" type="curve" smooth="yes"/>
      <point x="199" y="234"/>
      <point x="191" y="265"/>
      <point x="191" y="293" type="curve" smooth="yes"/>
      <point x="191" y="313"/>
      <point x="192" y="334"/>
      <point x="197" y="351" type="curve"/>
      <point x="177" y="362"/>
      <point x="148" y="367"/>
      <point x="133" y="367" type="curve" smooth="yes"/>
      <point x="62" y="367"/>
      <point x="37" y="320"/>
      <point x="37" y="282" type="curve" smooth="yes"/>
      <point x="37" y="218"/>
      <point x="100" y="167"/>
      <point x="222" y="167" type="curve" smooth="yes"/>
      <point x="347" y="167"/>
      <point x="408" y="232"/>
      <point x="408" y="309" type="curve" smooth="yes"/>
      <point x="408" y="361"/>
      <point x="370" y="413"/>
      <point x="327" y="424" type="curve"/>
      <point x="327" y="428" type="line"/>
      <point x="368" y="435"/>
      <point x="409" y="445"/>
      <point x="448" y="460" type="curve"/>
      <point x="453" y="460" type="line"/>
      <point x="450" y="430"/>
      <point x="448" y="399"/>
      <point x="448" y="369" type="curve" smooth="yes"/>
      <point x="448" y="-7" type="line" smooth="yes"/>
      <point x="448" y="-143"/>
      <point x="419" y="-183"/>
      <point x="373" y="-183" type="curve" smooth="yes"/>
      <point x="328" y="-183"/>
      <point x="298" y="-143"/>
      <point x="298" y="-60" type="curve" smooth="yes"/>
      <point x="298" y="-2"/>
      <point x="306" y="22"/>
      <point x="323" y="61" type="curve"/>
      <point x="292" y="78"/>
      <point x="263" y="86"/>
      <point x="237" y="86" type="curve" smooth="yes"/>
      <point x="156" y="86"/>
      <point x="103" y="26"/>
      <point x="103" y="-51" type="curve" smooth="yes"/>
      <point x="103" y="-171"/>
      <point x="207" y="-254"/>
    </contour>
  </outline>
</glyph>
<glyph name="rae-georgian" format="2">
  <advance width="897"/>
  <unicode hex="10E0"/>
  <note>
uni10E0
</note>
  <outline>
    <contour>
      <point x="235" y="-9" type="curve" smooth="yes"/>
      <point x="295" y="-9"/>
      <point x="308" y="19"/>
      <point x="308" y="63" type="curve"/>
      <point x="260" y="73"/>
      <point x="237" y="147"/>
      <point x="237" y="271" type="curve" smooth="yes"/>
      <point x="237" y="398"/>
      <point x="257" y="458"/>
      <point x="297" y="458" type="curve" smooth="yes"/>
      <point x="337" y="458"/>
      <point x="353" y="418"/>
      <point x="353" y="323" type="curve" smooth="yes"/>
      <point x="353" y="179" type="line"/>
      <point x="542" y="179" type="line"/>
      <point x="542" y="323" type="line" smooth="yes"/>
      <point x="542" y="418"/>
      <point x="556" y="458"/>
      <point x="596" y="458" type="curve" smooth="yes"/>
      <point x="636" y="458"/>
      <point x="658" y="398"/>
      <point x="658" y="271" type="curve" smooth="yes"/>
      <point x="658" y="150"/>
      <point x="633" y="74"/>
      <point x="588" y="64" type="curve"/>
      <point x="588" y="20"/>
      <point x="610" y="-9"/>
      <point x="659" y="-9" type="curve" smooth="yes"/>
      <point x="760" y="-9"/>
      <point x="855" y="94"/>
      <point x="855" y="271" type="curve" smooth="yes"/>
      <point x="855" y="438"/>
      <point x="750" y="530"/>
      <point x="618" y="530" type="curve" smooth="yes"/>
      <point x="534" y="530"/>
      <point x="476" y="493"/>
      <point x="450" y="430" type="curve"/>
      <point x="445" y="430" type="line"/>
      <point x="421" y="493"/>
      <point x="362" y="530"/>
      <point x="279" y="530" type="curve" smooth="yes"/>
      <point x="225" y="530"/>
      <point x="160" y="506"/>
      <point x="125" y="458" type="curve"/>
      <point x="121" y="458" type="line"/>
      <point x="146" y="543"/>
      <point x="203" y="562"/>
      <point x="385" y="581" type="curve" smooth="yes"/>
      <point x="557" y="599"/>
      <point x="642" y="632"/>
      <point x="642" y="774" type="curve"/>
      <point x="580" y="774" type="line"/>
      <point x="572" y="756"/>
      <point x="537" y="749"/>
      <point x="393" y="737" type="curve" smooth="yes"/>
      <point x="146" y="717"/>
      <point x="42" y="587"/>
      <point x="42" y="346" type="curve" smooth="yes"/>
      <point x="42" y="291" type="line" smooth="yes"/>
      <point x="42" y="93"/>
      <point x="142" y="-9"/>
    </contour>
  </outline>
</glyph>
<glyph name="san-georgian" format="2">
  <advance width="675"/>
  <unicode hex="10E1"/>
  <note>
uni10E1
</note>
  <outline>
    <contour>
      <point x="349" y="-14" type="curve" smooth="yes"/>
      <point x="542" y="-14"/>
      <point x="633" y="86"/>
      <point x="633" y="205" type="curve" smooth="yes"/>
      <point x="633" y="283"/>
      <point x="596" y="328"/>
      <point x="563" y="370" type="curve" smooth="yes"/>
      <point x="537" y="403"/>
      <point x="514" y="435"/>
      <point x="514" y="479" type="curve" smooth="yes"/>
      <point x="514" y="494"/>
      <point x="517" y="510"/>
      <point x="524" y="528" type="curve"/>
      <point x="505" y="542"/>
      <point x="481" y="550"/>
      <point x="444" y="550" type="curve" smooth="yes"/>
      <point x="387" y="550"/>
      <point x="351" y="515"/>
      <point x="351" y="456" type="curve" smooth="yes"/>
      <point x="351" y="394"/>
      <point x="372" y="361"/>
      <point x="393" y="328" type="curve" smooth="yes"/>
      <point x="415" y="294"/>
      <point x="436" y="259"/>
      <point x="436" y="195" type="curve" smooth="yes"/>
      <point x="436" y="103"/>
      <point x="406" y="57"/>
      <point x="353" y="57" type="curve" smooth="yes"/>
      <point x="302" y="57"/>
      <point x="271" y="101"/>
      <point x="271" y="224" type="curve" smooth="yes"/>
      <point x="271" y="760" type="line"/>
      <point x="22" y="760" type="line"/>
      <point x="22" y="699" type="line"/>
      <point x="28" y="699" type="line" smooth="yes"/>
      <point x="69" y="699"/>
      <point x="76" y="684"/>
      <point x="76" y="639" type="curve" smooth="yes"/>
      <point x="76" y="241" type="line" smooth="yes"/>
      <point x="76" y="97"/>
      <point x="159" y="-14"/>
    </contour>
  </outline>
</glyph>
<glyph name="tar-georgian" format="2">
  <advance width="918"/>
  <unicode hex="10E2"/>
  <note>
uni10E2
</note>
  <outline>
    <contour>
      <point x="458" y="-254" type="curve" smooth="yes"/>
      <point x="725" y="-254"/>
      <point x="876" y="-95"/>
      <point x="876" y="154" type="curve" smooth="yes"/>
      <point x="876" y="361"/>
      <point x="753" y="503"/>
      <point x="553" y="539" type="curve"/>
      <point x="553" y="543" type="line"/>
      <point x="585" y="561"/>
      <point x="623" y="596"/>
      <point x="623" y="654" type="curve" smooth="yes"/>
      <point x="623" y="709"/>
      <point x="576" y="774"/>
      <point x="459" y="774" type="curve" smooth="yes"/>
      <point x="344" y="774"/>
      <point x="295" y="709"/>
      <point x="295" y="654" type="curve" smooth="yes"/>
      <point x="295" y="594"/>
      <point x="333" y="561"/>
      <point x="364" y="544" type="curve"/>
      <point x="364" y="540" type="line"/>
      <point x="154" y="505"/>
      <point x="42" y="362"/>
      <point x="42" y="155" type="curve" smooth="yes"/>
      <point x="42" y="-95"/>
      <point x="178" y="-254"/>
    </contour>
    <contour>
      <point x="458" y="-183" type="curve" smooth="yes"/>
      <point x="311" y="-183"/>
      <point x="239" y="-61"/>
      <point x="239" y="154" type="curve" smooth="yes"/>
      <point x="239" y="333"/>
      <point x="271" y="431"/>
      <point x="359" y="474" type="curve"/>
      <point x="359" y="470" type="line"/>
      <point x="328" y="438"/>
      <point x="315" y="407"/>
      <point x="315" y="350" type="curve" smooth="yes"/>
      <point x="315" y="283"/>
      <point x="361" y="222"/>
      <point x="459" y="222" type="curve" smooth="yes"/>
      <point x="557" y="222"/>
      <point x="603" y="283"/>
      <point x="603" y="350" type="curve" smooth="yes"/>
      <point x="603" y="408"/>
      <point x="591" y="438"/>
      <point x="559" y="469" type="curve"/>
      <point x="559" y="473" type="line"/>
      <point x="644" y="430"/>
      <point x="679" y="333"/>
      <point x="679" y="154" type="curve" smooth="yes"/>
      <point x="679" y="-61"/>
      <point x="606" y="-183"/>
    </contour>
    <contour>
      <point x="459" y="277" type="curve" smooth="yes"/>
      <point x="428" y="277"/>
      <point x="415" y="305"/>
      <point x="415" y="360" type="curve" smooth="yes"/>
      <point x="415" y="427"/>
      <point x="432" y="459"/>
      <point x="459" y="480" type="curve"/>
      <point x="486" y="459"/>
      <point x="503" y="427"/>
      <point x="503" y="360" type="curve" smooth="yes"/>
      <point x="503" y="305"/>
      <point x="490" y="277"/>
    </contour>
    <contour>
      <point x="459" y="550" type="curve"/>
      <point x="427" y="575"/>
      <point x="415" y="608"/>
      <point x="415" y="653" type="curve" smooth="yes"/>
      <point x="415" y="695"/>
      <point x="429" y="726"/>
      <point x="459" y="726" type="curve" smooth="yes"/>
      <point x="489" y="726"/>
      <point x="503" y="695"/>
      <point x="503" y="653" type="curve" smooth="yes"/>
      <point x="503" y="608"/>
      <point x="492" y="575"/>
    </contour>
  </outline>
</glyph>
<glyph name="un-georgian" format="2">
  <advance width="768"/>
  <unicode hex="10E3"/>
  <note>
uni10E3
</note>
  <anchor x="384" y="536" name="top"/>
  <outline>
    <contour>
      <point x="373" y="-254" type="curve" smooth="yes"/>
      <point x="607" y="-254"/>
      <point x="698" y="-140"/>
      <point x="698" y="36" type="curve" smooth="yes"/>
      <point x="698" y="336" type="line" smooth="yes"/>
      <point x="698" y="489"/>
      <point x="618" y="550"/>
      <point x="497" y="550" type="curve" smooth="yes"/>
      <point x="422" y="550"/>
      <point x="365" y="522"/>
      <point x="340" y="475" type="curve"/>
      <point x="336" y="475" type="line"/>
      <point x="322" y="521"/>
      <point x="287" y="543"/>
      <point x="242" y="543" type="curve" smooth="yes"/>
      <point x="215" y="543"/>
      <point x="196" y="539"/>
      <point x="179" y="533" type="curve" smooth="yes"/>
      <point x="162" y="527"/>
      <point x="147" y="523"/>
      <point x="127" y="523" type="curve" smooth="yes"/>
      <point x="102" y="523"/>
      <point x="75" y="525"/>
      <point x="47" y="550" type="curve"/>
      <point x="28" y="537"/>
      <point x="10" y="514"/>
      <point x="10" y="473" type="curve" smooth="yes"/>
      <point x="10" y="425"/>
      <point x="55" y="400"/>
      <point x="91" y="400" type="curve" smooth="yes"/>
      <point x="126" y="400"/>
      <point x="147" y="415"/>
      <point x="161" y="433" type="curve" smooth="yes"/>
      <point x="177" y="453"/>
      <point x="196" y="472"/>
      <point x="215" y="472" type="curve" smooth="yes"/>
      <point x="234" y="472"/>
      <point x="244" y="457"/>
      <point x="244" y="429" type="curve" smooth="yes"/>
      <point x="244" y="228" type="line"/>
      <point x="419" y="228" type="line"/>
      <point x="419" y="411" type="line" smooth="yes"/>
      <point x="419" y="454"/>
      <point x="433" y="481"/>
      <point x="460" y="481" type="curve" smooth="yes"/>
      <point x="489" y="481"/>
      <point x="503" y="454"/>
      <point x="503" y="411" type="curve" smooth="yes"/>
      <point x="503" y="-4" type="line" smooth="yes"/>
      <point x="503" y="-112"/>
      <point x="456" y="-183"/>
      <point x="374" y="-183" type="curve" smooth="yes"/>
      <point x="304" y="-183"/>
      <point x="254" y="-136"/>
      <point x="254" y="-45" type="curve" smooth="yes"/>
      <point x="254" y="18"/>
      <point x="267" y="55"/>
      <point x="285" y="94" type="curve"/>
      <point x="254" y="111"/>
      <point x="225" y="119"/>
      <point x="199" y="119" type="curve" smooth="yes"/>
      <point x="115" y="119"/>
      <point x="59" y="40"/>
      <point x="59" y="-39" type="curve" smooth="yes"/>
      <point x="59" y="-171"/>
      <point x="184" y="-254"/>
    </contour>
  </outline>
</glyph>
<glyph name="phar-georgian" format="2">
  <advance width="930"/>
  <unicode hex="10E4"/>
  <note>
uni10E4
</note>
  <outline>
    <contour>
      <point x="558" y="-254" type="curve" smooth="yes"/>
      <point x="772" y="-254"/>
      <point x="880" y="-134"/>
      <point x="880" y="-22" type="curve" smooth="yes"/>
      <point x="880" y="81"/>
      <point x="822" y="139"/>
      <point x="728" y="159" type="curve"/>
      <point x="728" y="163" type="line"/>
      <point x="822" y="185"/>
      <point x="888" y="247"/>
      <point x="888" y="352" type="curve" smooth="yes"/>
      <point x="888" y="473"/>
      <point x="783" y="550"/>
      <point x="661" y="550" type="curve" smooth="yes"/>
      <point x="577" y="550"/>
      <point x="517" y="513"/>
      <point x="487" y="450" type="curve"/>
      <point x="482" y="450" type="line"/>
      <point x="454" y="514"/>
      <point x="383" y="550"/>
      <point x="301" y="550" type="curve" smooth="yes"/>
      <point x="143" y="550"/>
      <point x="42" y="453"/>
      <point x="42" y="303" type="curve" smooth="yes"/>
      <point x="42" y="153"/>
      <point x="142" y="60"/>
      <point x="313" y="60" type="curve" smooth="yes"/>
      <point x="474" y="60"/>
      <point x="575" y="153"/>
      <point x="575" y="306" type="curve" smooth="yes"/>
      <point x="575" y="343" type="line" smooth="yes"/>
      <point x="575" y="438"/>
      <point x="589" y="478"/>
      <point x="634" y="478" type="curve" smooth="yes"/>
      <point x="671" y="478"/>
      <point x="693" y="440"/>
      <point x="693" y="332" type="curve" smooth="yes"/>
      <point x="693" y="253"/>
      <point x="674" y="198"/>
      <point x="616" y="198" type="curve" smooth="yes"/>
      <point x="599" y="198" type="line"/>
      <point x="599" y="122" type="line"/>
      <point x="610" y="122" type="line" smooth="yes"/>
      <point x="653" y="122"/>
      <point x="683" y="68"/>
      <point x="683" y="-27" type="curve" smooth="yes"/>
      <point x="683" y="-126"/>
      <point x="644" y="-183"/>
      <point x="558" y="-183" type="curve" smooth="yes"/>
      <point x="487" y="-183"/>
      <point x="440" y="-136"/>
      <point x="440" y="-66" type="curve" smooth="yes"/>
      <point x="440" y="-56"/>
      <point x="441" y="-45"/>
      <point x="443" y="-34" type="curve"/>
      <point x="421" y="-22"/>
      <point x="386" y="-15"/>
      <point x="357" y="-15" type="curve" smooth="yes"/>
      <point x="302" y="-15"/>
      <point x="248" y="-40"/>
      <point x="248" y="-103" type="curve" smooth="yes"/>
      <point x="248" y="-201"/>
      <point x="397" y="-254"/>
    </contour>
    <contour>
      <point x="313" y="131" type="curve" smooth="yes"/>
      <point x="259" y="131"/>
      <point x="240" y="184"/>
      <point x="240" y="303" type="curve" smooth="yes"/>
      <point x="240" y="421"/>
      <point x="259" y="479"/>
      <point x="313" y="479" type="curve" smooth="yes"/>
      <point x="365" y="479"/>
      <point x="386" y="421"/>
      <point x="386" y="303" type="curve" smooth="yes"/>
      <point x="386" y="184"/>
      <point x="365" y="131"/>
    </contour>
  </outline>
</glyph>
<glyph name="khar-georgian" format="2">
  <advance width="647"/>
  <unicode hex="10E5"/>
  <note>
uni10E5
</note>
  <outline>
    <contour>
      <point x="301" y="-254" type="curve" smooth="yes"/>
      <point x="505" y="-254"/>
      <point x="567" y="-134"/>
      <point x="567" y="3" type="curve" smooth="yes"/>
      <point x="567" y="760" type="line"/>
      <point x="318" y="760" type="line"/>
      <point x="318" y="699" type="line"/>
      <point x="324" y="699" type="line" smooth="yes"/>
      <point x="365" y="699"/>
      <point x="372" y="684"/>
      <point x="372" y="639" type="curve" smooth="yes"/>
      <point x="372" y="596" type="line" smooth="yes"/>
      <point x="372" y="557"/>
      <point x="372" y="515"/>
      <point x="374" y="485" type="curve"/>
      <point x="369" y="485" type="line"/>
      <point x="336" y="530"/>
      <point x="282" y="550"/>
      <point x="229" y="550" type="curve" smooth="yes"/>
      <point x="119" y="550"/>
      <point x="57" y="469"/>
      <point x="57" y="380" type="curve" smooth="yes"/>
      <point x="57" y="304"/>
      <point x="103" y="250"/>
      <point x="176" y="250" type="curve" smooth="yes"/>
      <point x="204" y="250"/>
      <point x="235" y="258"/>
      <point x="267" y="270" type="curve"/>
      <point x="253" y="302"/>
      <point x="247" y="335"/>
      <point x="247" y="374" type="curve" smooth="yes"/>
      <point x="247" y="425"/>
      <point x="265" y="468"/>
      <point x="302" y="468" type="curve" smooth="yes"/>
      <point x="362" y="468"/>
      <point x="372" y="394"/>
      <point x="372" y="298" type="curve" smooth="yes"/>
      <point x="372" y="-7" type="line" smooth="yes"/>
      <point x="372" y="-140"/>
      <point x="353" y="-183"/>
      <point x="302" y="-183" type="curve" smooth="yes"/>
      <point x="252" y="-183"/>
      <point x="232" y="-136"/>
      <point x="232" y="-45" type="curve" smooth="yes"/>
      <point x="232" y="18"/>
      <point x="245" y="55"/>
      <point x="263" y="94" type="curve"/>
      <point x="232" y="111"/>
      <point x="203" y="119"/>
      <point x="177" y="119" type="curve" smooth="yes"/>
      <point x="93" y="119"/>
      <point x="37" y="40"/>
      <point x="37" y="-39" type="curve" smooth="yes"/>
      <point x="37" y="-171"/>
      <point x="132" y="-254"/>
    </contour>
  </outline>
</glyph>
<glyph name="ghan-georgian" format="2">
  <advance width="899"/>
  <unicode hex="10E6"/>
  <note>
uni10E6
</note>
  <outline>
    <contour>
      <point x="545" y="-254" type="curve"/>
      <point x="605" y="-254"/>
      <point x="664" y="-240"/>
      <point x="664" y="-185" type="curve" smooth="yes"/>
      <point x="664" y="-108"/>
      <point x="569" y="-60"/>
      <point x="453" y="-29" type="curve" smooth="yes"/>
      <point x="300" y="12"/>
      <point x="239" y="109"/>
      <point x="239" y="268" type="curve" smooth="yes"/>
      <point x="239" y="418"/>
      <point x="259" y="478"/>
      <point x="299" y="478" type="curve" smooth="yes"/>
      <point x="339" y="478"/>
      <point x="355" y="438"/>
      <point x="355" y="343" type="curve" smooth="yes"/>
      <point x="355" y="179" type="line"/>
      <point x="544" y="179" type="line"/>
      <point x="544" y="343" type="line" smooth="yes"/>
      <point x="544" y="438"/>
      <point x="558" y="478"/>
      <point x="598" y="478" type="curve" smooth="yes"/>
      <point x="638" y="478"/>
      <point x="660" y="418"/>
      <point x="660" y="271" type="curve" smooth="yes"/>
      <point x="660" y="169"/>
      <point x="635" y="93"/>
      <point x="590" y="83" type="curve"/>
      <point x="590" y="39"/>
      <point x="612" y="10"/>
      <point x="661" y="10" type="curve" smooth="yes"/>
      <point x="762" y="10"/>
      <point x="857" y="113"/>
      <point x="857" y="271" type="curve" smooth="yes"/>
      <point x="857" y="458"/>
      <point x="752" y="550"/>
      <point x="620" y="550" type="curve" smooth="yes"/>
      <point x="536" y="550"/>
      <point x="478" y="513"/>
      <point x="452" y="450" type="curve"/>
      <point x="447" y="450" type="line"/>
      <point x="423" y="513"/>
      <point x="364" y="550"/>
      <point x="281" y="550" type="curve" smooth="yes"/>
      <point x="137" y="550"/>
      <point x="42" y="458"/>
      <point x="42" y="268" type="curve" smooth="yes"/>
      <point x="42" y="99"/>
      <point x="133" y="-26"/>
      <point x="274" y="-81" type="curve"/>
      <point x="274" y="-85" type="line"/>
      <point x="221" y="-94"/>
      <point x="172" y="-120"/>
      <point x="143" y="-148" type="curve"/>
      <point x="175" y="-194" type="line"/>
      <point x="214" y="-163"/>
      <point x="274" y="-144"/>
      <point x="351" y="-144" type="curve" smooth="yes"/>
      <point x="459" y="-144"/>
      <point x="545" y="-176"/>
    </contour>
  </outline>
</glyph>
<glyph name="qar-georgian" format="2">
  <advance width="647"/>
  <unicode hex="10E7"/>
  <note>
uni10E7
</note>
  <outline>
    <contour>
      <point x="306" y="-254" type="curve" smooth="yes"/>
      <point x="476" y="-254"/>
      <point x="572" y="-150"/>
      <point x="572" y="3" type="curve" smooth="yes"/>
      <point x="572" y="536" type="line"/>
      <point x="377" y="536" type="line"/>
      <point x="377" y="422" type="line" smooth="yes"/>
      <point x="377" y="337"/>
      <point x="367" y="263"/>
      <point x="307" y="263" type="curve" smooth="yes"/>
      <point x="260" y="263"/>
      <point x="242" y="306"/>
      <point x="242" y="407" type="curve" smooth="yes"/>
      <point x="242" y="446"/>
      <point x="248" y="498"/>
      <point x="262" y="530" type="curve"/>
      <point x="230" y="542"/>
      <point x="209" y="550"/>
      <point x="181" y="550" type="curve" smooth="yes"/>
      <point x="108" y="550"/>
      <point x="52" y="477"/>
      <point x="52" y="391" type="curve" smooth="yes"/>
      <point x="52" y="252"/>
      <point x="124" y="181"/>
      <point x="234" y="181" type="curve" smooth="yes"/>
      <point x="287" y="181"/>
      <point x="344" y="201"/>
      <point x="377" y="246" type="curve"/>
      <point x="383" y="246" type="line"/>
      <point x="380" y="208"/>
      <point x="377" y="171"/>
      <point x="377" y="133" type="curve" smooth="yes"/>
      <point x="377" y="-7" type="line" smooth="yes"/>
      <point x="377" y="-140"/>
      <point x="357" y="-183"/>
      <point x="307" y="-183" type="curve" smooth="yes"/>
      <point x="257" y="-183"/>
      <point x="237" y="-143"/>
      <point x="237" y="-60" type="curve" smooth="yes"/>
      <point x="237" y="-2"/>
      <point x="245" y="22"/>
      <point x="262" y="61" type="curve"/>
      <point x="231" y="78"/>
      <point x="202" y="86"/>
      <point x="176" y="86" type="curve" smooth="yes"/>
      <point x="95" y="86"/>
      <point x="42" y="26"/>
      <point x="42" y="-51" type="curve" smooth="yes"/>
      <point x="42" y="-171"/>
      <point x="146" y="-254"/>
    </contour>
  </outline>
</glyph>
<glyph name="shin-georgian" format="2">
  <advance width="702"/>
  <unicode hex="10E8"/>
  <note>
uni10E8
</note>
  <outline>
    <contour>
      <point x="356" y="-14" type="curve" smooth="yes"/>
      <point x="532" y="-14"/>
      <point x="627" y="91"/>
      <point x="627" y="262" type="curve" smooth="yes"/>
      <point x="627" y="540" type="line" smooth="yes"/>
      <point x="627" y="702"/>
      <point x="561" y="774"/>
      <point x="425" y="774" type="curve" smooth="yes"/>
      <point x="352" y="774"/>
      <point x="307" y="749"/>
      <point x="287" y="699" type="curve"/>
      <point x="283" y="699" type="line"/>
      <point x="262" y="749"/>
      <point x="209" y="774"/>
      <point x="147" y="774" type="curve" smooth="yes"/>
      <point x="43" y="774"/>
      <point x="-20" y="733"/>
      <point x="-20" y="652" type="curve" smooth="yes"/>
      <point x="-20" y="587"/>
      <point x="26" y="554"/>
      <point x="85" y="554" type="curve" smooth="yes"/>
      <point x="107" y="554"/>
      <point x="129" y="558"/>
      <point x="150" y="565" type="curve"/>
      <point x="146" y="576"/>
      <point x="141" y="600"/>
      <point x="141" y="631" type="curve" smooth="yes"/>
      <point x="141" y="684"/>
      <point x="149" y="709"/>
      <point x="172" y="709" type="curve" smooth="yes"/>
      <point x="198" y="709"/>
      <point x="205" y="679"/>
      <point x="205" y="631" type="curve" smooth="yes"/>
      <point x="205" y="582" type="line"/>
      <point x="365" y="582" type="line"/>
      <point x="365" y="631" type="line" smooth="yes"/>
      <point x="365" y="676"/>
      <point x="374" y="705"/>
      <point x="398" y="705" type="curve" smooth="yes"/>
      <point x="422" y="705"/>
      <point x="430" y="676"/>
      <point x="430" y="631" type="curve" smooth="yes"/>
      <point x="430" y="556" type="line" smooth="yes"/>
      <point x="430" y="527"/>
      <point x="430" y="472"/>
      <point x="432" y="442" type="curve"/>
      <point x="427" y="442" type="line"/>
      <point x="399" y="480"/>
      <point x="359" y="509"/>
      <point x="286" y="509" type="curve" smooth="yes"/>
      <point x="142" y="509"/>
      <point x="87" y="398"/>
      <point x="87" y="262" type="curve" smooth="yes"/>
      <point x="87" y="94"/>
      <point x="184" y="-14"/>
    </contour>
    <contour>
      <point x="357" y="57" type="curve" smooth="yes"/>
      <point x="300" y="57"/>
      <point x="281" y="125"/>
      <point x="281" y="248" type="curve" smooth="yes"/>
      <point x="281" y="358"/>
      <point x="300" y="428"/>
      <point x="355" y="428" type="curve" smooth="yes"/>
      <point x="420" y="428"/>
      <point x="430" y="334"/>
      <point x="430" y="248" type="curve" smooth="yes"/>
      <point x="430" y="125"/>
      <point x="420" y="57"/>
    </contour>
  </outline>
</glyph>
<glyph name="chin-georgian" format="2">
  <advance width="649"/>
  <unicode hex="10E9"/>
  <note>
uni10E9
</note>
  <outline>
    <contour>
      <point x="416" y="-9" type="curve" smooth="yes"/>
      <point x="527" y="-9"/>
      <point x="607" y="94"/>
      <point x="607" y="255" type="curve" smooth="yes"/>
      <point x="607" y="393"/>
      <point x="528" y="471"/>
      <point x="416" y="471" type="curve" smooth="yes"/>
      <point x="339" y="471"/>
      <point x="301" y="435"/>
      <point x="277" y="398" type="curve"/>
      <point x="269" y="398" type="line"/>
      <point x="272" y="433"/>
      <point x="273" y="450"/>
      <point x="273" y="479" type="curve" smooth="yes"/>
      <point x="273" y="496" type="line"/>
      <point x="422" y="533"/>
      <point x="551" y="554"/>
      <point x="551" y="650" type="curve" smooth="yes"/>
      <point x="551" y="740"/>
      <point x="440" y="774"/>
      <point x="329" y="774" type="curve" smooth="yes"/>
      <point x="173" y="774"/>
      <point x="80" y="685"/>
      <point x="80" y="536" type="curve" smooth="yes"/>
      <point x="80" y="0" type="line"/>
      <point x="275" y="0" type="line"/>
      <point x="275" y="221" type="line" smooth="yes"/>
      <point x="275" y="321"/>
      <point x="289" y="371"/>
      <point x="343" y="371" type="curve" smooth="yes"/>
      <point x="379" y="371"/>
      <point x="410" y="343"/>
      <point x="410" y="247" type="curve" smooth="yes"/>
      <point x="410" y="140"/>
      <point x="397" y="73"/>
      <point x="359" y="64" type="curve"/>
      <point x="359" y="20"/>
      <point x="371" y="-9"/>
    </contour>
    <contour>
      <point x="273" y="558" type="curve"/>
      <point x="273" y="615" type="line" smooth="yes"/>
      <point x="273" y="679"/>
      <point x="296" y="703"/>
      <point x="329" y="703" type="curve" smooth="yes"/>
      <point x="359" y="703"/>
      <point x="375" y="683"/>
      <point x="375" y="652" type="curve" smooth="yes"/>
      <point x="375" y="606"/>
      <point x="338" y="577"/>
    </contour>
  </outline>
</glyph>
<glyph name="can-georgian" format="2">
  <advance width="728"/>
  <unicode hex="10EA"/>
  <note>
uni10EA
</note>
  <outline>
    <contour>
      <point x="380" y="-254" type="curve" smooth="yes"/>
      <point x="584" y="-254"/>
      <point x="691" y="-151"/>
      <point x="691" y="-25" type="curve" smooth="yes"/>
      <point x="691" y="102"/>
      <point x="624" y="163"/>
      <point x="525" y="181" type="curve"/>
      <point x="525" y="185" type="line"/>
      <point x="624" y="203"/>
      <point x="672" y="250"/>
      <point x="672" y="312" type="curve" smooth="yes"/>
      <point x="672" y="363"/>
      <point x="637" y="396"/>
      <point x="602" y="420" type="curve" smooth="yes"/>
      <point x="566" y="444"/>
      <point x="534" y="467"/>
      <point x="534" y="497" type="curve" smooth="yes"/>
      <point x="534" y="508"/>
      <point x="536" y="518"/>
      <point x="541" y="528" type="curve"/>
      <point x="522" y="542"/>
      <point x="501" y="550"/>
      <point x="464" y="550" type="curve" smooth="yes"/>
      <point x="416" y="550"/>
      <point x="371" y="525"/>
      <point x="371" y="470" type="curve" smooth="yes"/>
      <point x="371" y="415"/>
      <point x="398" y="390"/>
      <point x="425" y="367" type="curve" smooth="yes"/>
      <point x="452" y="344"/>
      <point x="478" y="322"/>
      <point x="478" y="280" type="curve" smooth="yes"/>
      <point x="478" y="243"/>
      <point x="450" y="223"/>
      <point x="416" y="223" type="curve" smooth="yes"/>
      <point x="367" y="223" type="line"/>
      <point x="367" y="142" type="line"/>
      <point x="396" y="142" type="line" smooth="yes"/>
      <point x="470" y="142"/>
      <point x="495" y="96"/>
      <point x="495" y="-25" type="curve" smooth="yes"/>
      <point x="495" y="-117"/>
      <point x="466" y="-183"/>
      <point x="380" y="-183" type="curve" smooth="yes"/>
      <point x="263" y="-183"/>
      <point x="239" y="-20"/>
      <point x="239" y="155" type="curve" smooth="yes"/>
      <point x="239" y="358"/>
      <point x="276" y="428"/>
      <point x="309" y="496" type="curve"/>
      <point x="216" y="550" type="line"/>
      <point x="126" y="473"/>
      <point x="42" y="373"/>
      <point x="42" y="155" type="curve" smooth="yes"/>
      <point x="42" y="-132"/>
      <point x="168" y="-254"/>
    </contour>
  </outline>
</glyph>
<glyph name="jil-georgian" format="2">
  <advance width="664"/>
  <unicode hex="10EB"/>
  <note>
uni10EB
</note>
  <outline>
    <contour>
      <point x="313" y="-14" type="curve" smooth="yes"/>
      <point x="489" y="-14"/>
      <point x="584" y="91"/>
      <point x="584" y="274" type="curve" smooth="yes"/>
      <point x="584" y="760" type="line"/>
      <point x="333" y="760" type="line"/>
      <point x="333" y="699" type="line"/>
      <point x="339" y="699" type="line" smooth="yes"/>
      <point x="380" y="699"/>
      <point x="387" y="684"/>
      <point x="387" y="639" type="curve" smooth="yes"/>
      <point x="387" y="596" type="line" smooth="yes"/>
      <point x="387" y="557"/>
      <point x="387" y="512"/>
      <point x="389" y="482" type="curve"/>
      <point x="384" y="482" type="line"/>
      <point x="356" y="520"/>
      <point x="316" y="549"/>
      <point x="243" y="549" type="curve" smooth="yes"/>
      <point x="96" y="549"/>
      <point x="42" y="434"/>
      <point x="42" y="274" type="curve" smooth="yes"/>
      <point x="42" y="90"/>
      <point x="144" y="-14"/>
    </contour>
    <contour>
      <point x="314" y="57" type="curve" smooth="yes"/>
      <point x="257" y="57"/>
      <point x="238" y="125"/>
      <point x="238" y="268" type="curve" smooth="yes"/>
      <point x="238" y="398"/>
      <point x="257" y="468"/>
      <point x="312" y="468" type="curve" smooth="yes"/>
      <point x="377" y="468"/>
      <point x="387" y="374"/>
      <point x="387" y="268" type="curve" smooth="yes"/>
      <point x="387" y="125"/>
      <point x="377" y="57"/>
    </contour>
  </outline>
</glyph>
<glyph name="cil-georgian" format="2">
  <advance width="681"/>
  <unicode hex="10EC"/>
  <note>
uni10EC
</note>
  <guideline x="322" y="71" angle="281.9566"/>
  <outline>
    <contour>
      <point x="245" y="-240" type="line"/>
      <point x="417" y="-240" type="line"/>
      <point x="584" y="146" type="line" smooth="yes"/>
      <point x="602" y="188"/>
      <point x="618" y="254"/>
      <point x="618" y="312" type="curve" smooth="yes"/>
      <point x="618" y="420"/>
      <point x="546" y="509"/>
      <point x="418" y="509" type="curve" smooth="yes"/>
      <point x="325" y="509"/>
      <point x="274" y="468"/>
      <point x="252" y="407" type="curve"/>
      <point x="247" y="407" type="line"/>
      <point x="220" y="530" type="line" smooth="yes"/>
      <point x="211" y="570"/>
      <point x="205" y="611"/>
      <point x="205" y="642" type="curve" smooth="yes"/>
      <point x="205" y="680"/>
      <point x="215" y="705"/>
      <point x="238" y="705" type="curve" smooth="yes"/>
      <point x="258" y="705"/>
      <point x="269" y="679"/>
      <point x="269" y="631" type="curve" smooth="yes"/>
      <point x="269" y="582" type="line"/>
      <point x="429" y="582" type="line"/>
      <point x="429" y="631" type="line" smooth="yes"/>
      <point x="429" y="679"/>
      <point x="436" y="709"/>
      <point x="462" y="709" type="curve" smooth="yes"/>
      <point x="485" y="709"/>
      <point x="493" y="684"/>
      <point x="493" y="631" type="curve" smooth="yes"/>
      <point x="493" y="600"/>
      <point x="488" y="576"/>
      <point x="484" y="565" type="curve"/>
      <point x="505" y="558"/>
      <point x="527" y="554"/>
      <point x="549" y="554" type="curve" smooth="yes"/>
      <point x="608" y="554"/>
      <point x="654" y="587"/>
      <point x="654" y="652" type="curve" smooth="yes"/>
      <point x="654" y="733"/>
      <point x="591" y="774"/>
      <point x="490" y="774" type="curve" smooth="yes"/>
      <point x="425" y="774"/>
      <point x="372" y="749"/>
      <point x="351" y="699" type="curve"/>
      <point x="347" y="699" type="line"/>
      <point x="327" y="749"/>
      <point x="282" y="774"/>
      <point x="189" y="774" type="curve" smooth="yes"/>
      <point x="83" y="774"/>
      <point x="10" y="706"/>
      <point x="10" y="590" type="curve" smooth="yes"/>
      <point x="10" y="487"/>
      <point x="45" y="390"/>
      <point x="85" y="264" type="curve" smooth="yes"/>
    </contour>
    <contour>
      <point x="359" y="-130" type="curve"/>
      <point x="354" y="-99"/>
      <point x="348" y="-51"/>
      <point x="340" y="-14" type="curve" smooth="yes"/>
      <point x="307" y="146" type="line" smooth="yes"/>
      <point x="294" y="210"/>
      <point x="286" y="267"/>
      <point x="286" y="322" type="curve" smooth="yes"/>
      <point x="286" y="378"/>
      <point x="301" y="428"/>
      <point x="354" y="428" type="curve" smooth="yes"/>
      <point x="410" y="428"/>
      <point x="421" y="359"/>
      <point x="421" y="312" type="curve" smooth="yes"/>
      <point x="421" y="230"/>
      <point x="413" y="181"/>
      <point x="405" y="135" type="curve" smooth="yes"/>
      <point x="379" y="-14" type="line" smooth="yes"/>
      <point x="372" y="-52"/>
      <point x="364" y="-99"/>
    </contour>
  </outline>
</glyph>
<glyph name="char-georgian" format="2">
  <advance width="730"/>
  <unicode hex="10ED"/>
  <note>
uni10ED
</note>
  <outline>
    <contour>
      <point x="703" y="461" type="curve" smooth="yes"/>
      <point x="703" y="540"/>
      <point x="646" y="592"/>
      <point x="584" y="592" type="curve" smooth="yes"/>
      <point x="572" y="592"/>
      <point x="560" y="590"/>
      <point x="548" y="586" type="curve"/>
      <point x="560" y="543"/>
      <point x="565" y="503"/>
      <point x="565" y="469" type="curve" smooth="yes"/>
      <point x="565" y="388"/>
      <point x="543" y="338"/>
      <point x="503" y="308" type="curve"/>
      <point x="503" y="760" type="line"/>
      <point x="230" y="760" type="line"/>
      <point x="230" y="699" type="line"/>
      <point x="253" y="699" type="line" smooth="yes"/>
      <point x="290" y="699"/>
      <point x="301" y="692"/>
      <point x="301" y="639" type="curve" smooth="yes"/>
      <point x="301" y="516" type="line"/>
      <point x="278" y="536"/>
      <point x="246" y="550"/>
      <point x="203" y="550" type="curve" smooth="yes"/>
      <point x="102" y="550"/>
      <point x="37" y="487"/>
      <point x="37" y="396" type="curve" smooth="yes"/>
      <point x="37" y="303"/>
      <point x="108" y="205"/>
      <point x="305" y="200" type="curve"/>
      <point x="317" y="145"/>
      <point x="347" y="110"/>
      <point x="384" y="72" type="curve" smooth="yes"/>
      <point x="420" y="35"/>
      <point x="446" y="-4"/>
      <point x="446" y="-65" type="curve" smooth="yes"/>
      <point x="446" y="-143"/>
      <point x="415" y="-183"/>
      <point x="363" y="-183" type="curve" smooth="yes"/>
      <point x="309" y="-183"/>
      <point x="279" y="-143"/>
      <point x="279" y="-60" type="curve" smooth="yes"/>
      <point x="279" y="-2"/>
      <point x="287" y="22"/>
      <point x="304" y="61" type="curve"/>
      <point x="273" y="78"/>
      <point x="244" y="86"/>
      <point x="218" y="86" type="curve" smooth="yes"/>
      <point x="137" y="86"/>
      <point x="84" y="26"/>
      <point x="84" y="-51" type="curve" smooth="yes"/>
      <point x="84" y="-171"/>
      <point x="188" y="-254"/>
      <point x="363" y="-254" type="curve" smooth="yes"/>
      <point x="513" y="-254"/>
      <point x="643" y="-198"/>
      <point x="643" y="-48" type="curve" smooth="yes"/>
      <point x="643" y="31"/>
      <point x="613" y="85"/>
      <point x="575" y="123" type="curve" smooth="yes"/>
      <point x="538" y="160"/>
      <point x="518" y="187"/>
      <point x="507" y="223" type="curve"/>
      <point x="635" y="259"/>
      <point x="703" y="340"/>
    </contour>
    <contour>
      <point x="208" y="402" type="curve" smooth="yes"/>
      <point x="208" y="455"/>
      <point x="231" y="491"/>
      <point x="259" y="491" type="curve" smooth="yes"/>
      <point x="283" y="491"/>
      <point x="301" y="468"/>
      <point x="301" y="414" type="curve" smooth="yes"/>
      <point x="301" y="275" type="line"/>
      <point x="230" y="289"/>
      <point x="208" y="336"/>
    </contour>
  </outline>
</glyph>
<glyph name="xan-georgian" format="2">
  <advance width="680"/>
  <unicode hex="10EE"/>
  <note>
uni10EE
</note>
  <outline>
    <contour>
      <point x="437" y="549" type="curve" smooth="yes"/>
      <point x="364" y="549"/>
      <point x="324" y="520"/>
      <point x="296" y="482" type="curve"/>
      <point x="291" y="482" type="line"/>
      <point x="293" y="512"/>
      <point x="293" y="557"/>
      <point x="293" y="596" type="curve" smooth="yes"/>
      <point x="293" y="760" type="line"/>
      <point x="22" y="760" type="line"/>
      <point x="22" y="699" type="line"/>
      <point x="37" y="699" type="line" smooth="yes"/>
      <point x="67" y="699"/>
      <point x="96" y="688"/>
      <point x="96" y="637" type="curve"/>
      <point x="96" y="274" type="line" smooth="yes"/>
      <point x="96" y="91"/>
      <point x="191" y="-14"/>
      <point x="367" y="-14" type="curve" smooth="yes"/>
      <point x="536" y="-14"/>
      <point x="638" y="90"/>
      <point x="638" y="274" type="curve" smooth="yes"/>
      <point x="638" y="434"/>
      <point x="584" y="549"/>
    </contour>
    <contour>
      <point x="366" y="57" type="curve" smooth="yes"/>
      <point x="303" y="57"/>
      <point x="293" y="125"/>
      <point x="293" y="268" type="curve" smooth="yes"/>
      <point x="293" y="374"/>
      <point x="303" y="468"/>
      <point x="368" y="468" type="curve" smooth="yes"/>
      <point x="423" y="468"/>
      <point x="442" y="398"/>
      <point x="442" y="268" type="curve" smooth="yes"/>
      <point x="442" y="125"/>
      <point x="423" y="57"/>
    </contour>
  </outline>
</glyph>
<glyph name="jhan-georgian" format="2">
  <advance width="838"/>
  <unicode hex="10EF"/>
  <note>
uni10EF
</note>
  <outline>
    <contour>
      <point x="682" y="245" type="curve" smooth="yes"/>
      <point x="654" y="245"/>
      <point x="623" y="237"/>
      <point x="593" y="225" type="curve"/>
      <point x="605" y="193"/>
      <point x="611" y="160"/>
      <point x="611" y="124" type="curve" smooth="yes"/>
      <point x="611" y="83"/>
      <point x="603" y="57"/>
      <point x="582" y="57" type="curve" smooth="yes"/>
      <point x="565" y="57"/>
      <point x="558" y="76"/>
      <point x="548" y="117" type="curve" smooth="yes"/>
      <point x="517" y="239" type="line"/>
      <point x="650" y="295"/>
      <point x="753" y="342"/>
      <point x="753" y="436" type="curve" smooth="yes"/>
      <point x="753" y="513"/>
      <point x="698" y="550"/>
      <point x="631" y="550" type="curve" smooth="yes"/>
      <point x="572" y="550"/>
      <point x="508" y="527"/>
      <point x="508" y="477" type="curve" smooth="yes"/>
      <point x="508" y="468"/>
      <point x="510" y="459"/>
      <point x="514" y="449" type="curve"/>
      <point x="527" y="456"/>
      <point x="539" y="459"/>
      <point x="550" y="459" type="curve" smooth="yes"/>
      <point x="571" y="459"/>
      <point x="590" y="446"/>
      <point x="590" y="424" type="curve" smooth="yes"/>
      <point x="590" y="391"/>
      <point x="563" y="362"/>
      <point x="495" y="326" type="curve"/>
      <point x="474" y="411" type="line" smooth="yes"/>
      <point x="452" y="499"/>
      <point x="380" y="549"/>
      <point x="249" y="549" type="curve" smooth="yes"/>
      <point x="140" y="549"/>
      <point x="29" y="500"/>
      <point x="29" y="400" type="curve" smooth="yes"/>
      <point x="29" y="344"/>
      <point x="75" y="290"/>
      <point x="148" y="290" type="curve" smooth="yes"/>
      <point x="176" y="290"/>
      <point x="207" y="298"/>
      <point x="237" y="310" type="curve"/>
      <point x="225" y="342"/>
      <point x="219" y="375"/>
      <point x="219" y="411" type="curve" smooth="yes"/>
      <point x="219" y="452"/>
      <point x="227" y="478"/>
      <point x="248" y="478" type="curve" smooth="yes"/>
      <point x="265" y="478"/>
      <point x="271" y="459"/>
      <point x="282" y="418" type="curve" smooth="yes"/>
      <point x="327" y="243" type="line"/>
      <point x="251" y="197"/>
      <point x="203" y="149"/>
      <point x="155" y="87" type="curve"/>
      <point x="155" y="14" type="line"/>
      <point x="181" y="14" type="line" smooth="yes"/>
      <point x="242" y="14"/>
      <point x="262" y="-34"/>
      <point x="262" y="-91" type="curve" smooth="yes"/>
      <point x="262" y="-149"/>
      <point x="253" y="-180"/>
      <point x="220" y="-180" type="curve" smooth="yes"/>
      <point x="190" y="-180"/>
      <point x="181" y="-145"/>
      <point x="181" y="-109" type="curve" smooth="yes"/>
      <point x="181" y="-87"/>
      <point x="182" y="-64"/>
      <point x="188" y="-44" type="curve"/>
      <point x="166" y="-33"/>
      <point x="134" y="-28"/>
      <point x="117" y="-28" type="curve" smooth="yes"/>
      <point x="38" y="-28"/>
      <point x="10" y="-80"/>
      <point x="10" y="-122" type="curve" smooth="yes"/>
      <point x="10" y="-198"/>
      <point x="80" y="-254"/>
      <point x="221" y="-254" type="curve" smooth="yes"/>
      <point x="361" y="-254"/>
      <point x="433" y="-182"/>
      <point x="433" y="-97" type="curve" smooth="yes"/>
      <point x="433" y="-28"/>
      <point x="369" y="57"/>
      <point x="246" y="64" type="curve"/>
      <point x="246" y="68" type="line"/>
      <point x="267" y="97"/>
      <point x="296" y="125"/>
      <point x="349" y="157" type="curve"/>
      <point x="351" y="148" type="line" smooth="yes"/>
      <point x="371" y="60"/>
      <point x="460" y="-14"/>
      <point x="581" y="-14" type="curve" smooth="yes"/>
      <point x="690" y="-14"/>
      <point x="801" y="35"/>
      <point x="801" y="135" type="curve" smooth="yes"/>
      <point x="801" y="191"/>
      <point x="755" y="245"/>
    </contour>
  </outline>
</glyph>
<glyph name="hae-georgian" format="2">
  <advance width="583"/>
  <unicode hex="10F0"/>
  <note>
uni10F0
</note>
  <outline>
    <contour>
      <point x="281" y="-14" type="curve" smooth="yes"/>
      <point x="439" y="-14"/>
      <point x="541" y="47"/>
      <point x="541" y="142" type="curve" smooth="yes"/>
      <point x="541" y="209"/>
      <point x="488" y="263"/>
      <point x="397" y="274" type="curve"/>
      <point x="397" y="279" type="line"/>
      <point x="488" y="287"/>
      <point x="533" y="320"/>
      <point x="533" y="375" type="curve" smooth="yes"/>
      <point x="533" y="430"/>
      <point x="488" y="465"/>
      <point x="397" y="465" type="curve"/>
      <point x="397" y="470" type="line"/>
      <point x="488" y="480"/>
      <point x="523" y="514"/>
      <point x="523" y="558" type="curve" smooth="yes"/>
      <point x="523" y="621"/>
      <point x="460" y="651"/>
      <point x="407" y="673" type="curve" smooth="yes"/>
      <point x="363" y="691"/>
      <point x="336" y="706"/>
      <point x="336" y="730" type="curve" smooth="yes"/>
      <point x="336" y="741"/>
      <point x="338" y="750"/>
      <point x="343" y="760" type="curve"/>
      <point x="326" y="770"/>
      <point x="303" y="774"/>
      <point x="266" y="774" type="curve" smooth="yes"/>
      <point x="218" y="774"/>
      <point x="173" y="749"/>
      <point x="173" y="704" type="curve" smooth="yes"/>
      <point x="173" y="650"/>
      <point x="211" y="626"/>
      <point x="251" y="608" type="curve" smooth="yes"/>
      <point x="295" y="588"/>
      <point x="331" y="572"/>
      <point x="331" y="528" type="curve" smooth="yes"/>
      <point x="331" y="501"/>
      <point x="312" y="491"/>
      <point x="280" y="491" type="curve" smooth="yes"/>
      <point x="232" y="491" type="line"/>
      <point x="232" y="420" type="line"/>
      <point x="270" y="420" type="line" smooth="yes"/>
      <point x="321" y="420"/>
      <point x="338" y="398"/>
      <point x="338" y="370" type="curve" smooth="yes"/>
      <point x="338" y="334"/>
      <point x="321" y="320"/>
      <point x="266" y="320" type="curve" smooth="yes"/>
      <point x="232" y="320" type="line"/>
      <point x="232" y="249" type="line"/>
      <point x="270" y="249" type="line" smooth="yes"/>
      <point x="325" y="249"/>
      <point x="345" y="220"/>
      <point x="345" y="151" type="curve" smooth="yes"/>
      <point x="345" y="94"/>
      <point x="324" y="58"/>
      <point x="281" y="58" type="curve" smooth="yes"/>
      <point x="240" y="58"/>
      <point x="218" y="94"/>
      <point x="218" y="145" type="curve" smooth="yes"/>
      <point x="218" y="161"/>
      <point x="219" y="174"/>
      <point x="225" y="193" type="curve"/>
      <point x="208" y="201"/>
      <point x="182" y="205"/>
      <point x="160" y="205" type="curve" smooth="yes"/>
      <point x="70" y="205"/>
      <point x="37" y="165"/>
      <point x="37" y="118" type="curve" smooth="yes"/>
      <point x="37" y="42"/>
      <point x="120" y="-14"/>
    </contour>
  </outline>
</glyph>
<glyph name="he-georgian" format="2">
  <advance width="733"/>
  <unicode hex="10F1"/>
  <note>
uni10F1
</note>
  <outline>
    <contour>
      <point x="390" y="-14" type="curve" smooth="yes"/>
      <point x="584" y="-14"/>
      <point x="691" y="69"/>
      <point x="691" y="155" type="curve" smooth="yes"/>
      <point x="691" y="219"/>
      <point x="638" y="263"/>
      <point x="547" y="274" type="curve"/>
      <point x="547" y="279" type="line"/>
      <point x="638" y="287"/>
      <point x="683" y="320"/>
      <point x="683" y="375" type="curve" smooth="yes"/>
      <point x="683" y="430"/>
      <point x="638" y="465"/>
      <point x="547" y="465" type="curve"/>
      <point x="547" y="470" type="line"/>
      <point x="638" y="480"/>
      <point x="673" y="514"/>
      <point x="673" y="558" type="curve" smooth="yes"/>
      <point x="673" y="619"/>
      <point x="629" y="649"/>
      <point x="591" y="671" type="curve" smooth="yes"/>
      <point x="558" y="690"/>
      <point x="536" y="708"/>
      <point x="536" y="730" type="curve" smooth="yes"/>
      <point x="536" y="741"/>
      <point x="538" y="750"/>
      <point x="543" y="760" type="curve"/>
      <point x="526" y="770"/>
      <point x="503" y="774"/>
      <point x="466" y="774" type="curve" smooth="yes"/>
      <point x="418" y="774"/>
      <point x="373" y="749"/>
      <point x="373" y="704" type="curve" smooth="yes"/>
      <point x="373" y="658"/>
      <point x="397" y="635"/>
      <point x="422" y="616" type="curve" smooth="yes"/>
      <point x="454" y="592"/>
      <point x="481" y="567"/>
      <point x="481" y="528" type="curve" smooth="yes"/>
      <point x="481" y="501"/>
      <point x="462" y="491"/>
      <point x="430" y="491" type="curve" smooth="yes"/>
      <point x="382" y="491" type="line"/>
      <point x="382" y="420" type="line"/>
      <point x="420" y="420" type="line" smooth="yes"/>
      <point x="471" y="420"/>
      <point x="488" y="398"/>
      <point x="488" y="370" type="curve" smooth="yes"/>
      <point x="488" y="334"/>
      <point x="471" y="320"/>
      <point x="416" y="320" type="curve" smooth="yes"/>
      <point x="382" y="320" type="line"/>
      <point x="382" y="249" type="line"/>
      <point x="420" y="249" type="line" smooth="yes"/>
      <point x="475" y="249"/>
      <point x="495" y="210"/>
      <point x="495" y="155" type="curve" smooth="yes"/>
      <point x="495" y="103"/>
      <point x="466" y="57"/>
      <point x="390" y="57" type="curve" smooth="yes"/>
      <point x="263" y="57"/>
      <point x="239" y="220"/>
      <point x="239" y="385" type="curve" smooth="yes"/>
      <point x="239" y="582"/>
      <point x="276" y="652"/>
      <point x="309" y="720" type="curve"/>
      <point x="216" y="774" type="line"/>
      <point x="126" y="697"/>
      <point x="42" y="587"/>
      <point x="42" y="385" type="curve" smooth="yes"/>
      <point x="42" y="108"/>
      <point x="168" y="-14"/>
    </contour>
  </outline>
</glyph>
<glyph name="hie-georgian" format="2">
  <advance width="640"/>
  <unicode hex="10F2"/>
  <note>
uni10F2
</note>
  <outline>
    <contour>
      <point x="121" y="-14" type="curve" smooth="yes"/>
      <point x="166" y="-14"/>
      <point x="244" y="1"/>
      <point x="320" y="55" type="curve"/>
      <point x="395" y="1"/>
      <point x="470" y="-14"/>
      <point x="515" y="-14" type="curve" smooth="yes"/>
      <point x="575" y="-14"/>
      <point x="594" y="33"/>
      <point x="594" y="77" type="curve"/>
      <point x="543" y="77"/>
      <point x="484" y="84"/>
      <point x="431" y="117" type="curve"/>
      <point x="541" y="166"/>
      <point x="598" y="230"/>
      <point x="598" y="338" type="curve" smooth="yes"/>
      <point x="598" y="456"/>
      <point x="489" y="550"/>
      <point x="322" y="550" type="curve" smooth="yes"/>
      <point x="143" y="550"/>
      <point x="42" y="456"/>
      <point x="42" y="338" type="curve"/>
      <point x="46" y="239"/>
      <point x="112" y="166"/>
      <point x="214" y="117" type="curve"/>
      <point x="166" y="84"/>
      <point x="100" y="76"/>
      <point x="46" y="76" type="curve"/>
      <point x="46" y="32"/>
      <point x="65" y="-14"/>
    </contour>
    <contour>
      <point x="322" y="184" type="curve"/>
      <point x="269" y="221"/>
      <point x="239" y="287"/>
      <point x="239" y="358" type="curve" smooth="yes"/>
      <point x="239" y="430"/>
      <point x="265" y="478"/>
      <point x="320" y="478" type="curve" smooth="yes"/>
      <point x="375" y="478"/>
      <point x="401" y="430"/>
      <point x="401" y="358" type="curve" smooth="yes"/>
      <point x="401" y="292"/>
      <point x="368" y="221"/>
    </contour>
  </outline>
</glyph>
<glyph name="we-georgian" format="2">
  <advance width="626"/>
  <unicode hex="10F3"/>
  <note>
uni10F3
</note>
  <outline>
    <contour>
      <point x="311" y="-254" type="curve" smooth="yes"/>
      <point x="491" y="-254"/>
      <point x="589" y="-134"/>
      <point x="589" y="-22" type="curve" smooth="yes"/>
      <point x="589" y="123"/>
      <point x="490" y="209"/>
      <point x="367" y="217" type="curve"/>
      <point x="560" y="440" type="line"/>
      <point x="560" y="536" type="line"/>
      <point x="105" y="536" type="line"/>
      <point x="87" y="308" type="line"/>
      <point x="147" y="308" type="line"/>
      <point x="158" y="350" type="line" smooth="yes"/>
      <point x="170" y="397"/>
      <point x="181" y="411"/>
      <point x="228" y="411" type="curve" smooth="yes"/>
      <point x="425" y="411" type="line"/>
      <point x="243" y="191" type="line"/>
      <point x="243" y="150" type="line"/>
      <point x="279" y="150" type="line" smooth="yes"/>
      <point x="351" y="150"/>
      <point x="392" y="84"/>
      <point x="392" y="-27" type="curve" smooth="yes"/>
      <point x="392" y="-136"/>
      <point x="363" y="-183"/>
      <point x="312" y="-183" type="curve" smooth="yes"/>
      <point x="262" y="-183"/>
      <point x="232" y="-136"/>
      <point x="232" y="-60" type="curve" smooth="yes"/>
      <point x="232" y="-2"/>
      <point x="240" y="22"/>
      <point x="257" y="61" type="curve"/>
      <point x="226" y="78"/>
      <point x="197" y="86"/>
      <point x="171" y="86" type="curve" smooth="yes"/>
      <point x="90" y="86"/>
      <point x="37" y="20"/>
      <point x="37" y="-49" type="curve" smooth="yes"/>
      <point x="37" y="-171"/>
      <point x="142" y="-254"/>
    </contour>
  </outline>
</glyph>
<glyph name="har-georgian" format="2">
  <advance width="605"/>
  <unicode hex="10F4"/>
  <note>
uni10F4
</note>
  <outline>
    <contour>
      <point x="301" y="-254" type="curve" smooth="yes"/>
      <point x="471" y="-254"/>
      <point x="568" y="-150"/>
      <point x="568" y="-14" type="curve" smooth="yes"/>
      <point x="568" y="124"/>
      <point x="484" y="200"/>
      <point x="351" y="208" type="curve"/>
      <point x="549" y="413" type="line"/>
      <point x="549" y="499" type="line"/>
      <point x="357" y="499" type="line" smooth="yes"/>
      <point x="265" y="499"/>
      <point x="215" y="530"/>
      <point x="215" y="610" type="curve" smooth="yes"/>
      <point x="215" y="677"/>
      <point x="245" y="717"/>
      <point x="301" y="717" type="curve" smooth="yes"/>
      <point x="369" y="717"/>
      <point x="391" y="670"/>
      <point x="391" y="580" type="curve"/>
      <point x="463" y="580"/>
      <point x="510" y="600"/>
      <point x="510" y="651" type="curve" smooth="yes"/>
      <point x="510" y="709"/>
      <point x="453" y="774"/>
      <point x="306" y="774" type="curve" smooth="yes"/>
      <point x="175" y="774"/>
      <point x="62" y="714"/>
      <point x="62" y="583" type="curve" smooth="yes"/>
      <point x="62" y="432"/>
      <point x="208" y="384"/>
      <point x="313" y="384" type="curve" smooth="yes"/>
      <point x="414" y="384" type="line"/>
      <point x="222" y="182" type="line"/>
      <point x="222" y="141" type="line"/>
      <point x="258" y="141" type="line" smooth="yes"/>
      <point x="341" y="141"/>
      <point x="372" y="82"/>
      <point x="372" y="-22" type="curve" smooth="yes"/>
      <point x="372" y="-140"/>
      <point x="352" y="-183"/>
      <point x="302" y="-183" type="curve" smooth="yes"/>
      <point x="252" y="-183"/>
      <point x="232" y="-139"/>
      <point x="232" y="-67" type="curve" smooth="yes"/>
      <point x="232" y="-17"/>
      <point x="237" y="7"/>
      <point x="251" y="46" type="curve"/>
      <point x="220" y="63"/>
      <point x="197" y="71"/>
      <point x="171" y="71" type="curve" smooth="yes"/>
      <point x="90" y="71"/>
      <point x="37" y="16"/>
      <point x="37" y="-61" type="curve" smooth="yes"/>
      <point x="37" y="-171"/>
      <point x="141" y="-254"/>
    </contour>
  </outline>
</glyph>
<glyph name="hoe-georgian" format="2">
  <advance width="697"/>
  <unicode hex="10F5"/>
  <note>
uni10F5
</note>
  <outline>
    <contour>
      <point x="285" y="-14" type="curve" smooth="yes"/>
      <point x="437" y="-14"/>
      <point x="558" y="44"/>
      <point x="558" y="203" type="curve" smooth="yes"/>
      <point x="558" y="267" type="line"/>
      <point x="692" y="267" type="line"/>
      <point x="692" y="337" type="line"/>
      <point x="558" y="337" type="line"/>
      <point x="558" y="423" type="line"/>
      <point x="692" y="423" type="line"/>
      <point x="692" y="493" type="line"/>
      <point x="558" y="493" type="line"/>
      <point x="558" y="557" type="line" smooth="yes"/>
      <point x="558" y="716"/>
      <point x="437" y="774"/>
      <point x="296" y="774" type="curve" smooth="yes"/>
      <point x="134" y="774"/>
      <point x="42" y="706"/>
      <point x="42" y="600" type="curve" smooth="yes"/>
      <point x="42" y="482"/>
      <point x="130" y="423"/>
      <point x="337" y="423" type="curve" smooth="yes"/>
      <point x="363" y="423" type="line"/>
      <point x="363" y="337" type="line"/>
      <point x="337" y="337" type="line" smooth="yes"/>
      <point x="130" y="337"/>
      <point x="42" y="278"/>
      <point x="42" y="160" type="curve" smooth="yes"/>
      <point x="42" y="54"/>
      <point x="134" y="-14"/>
    </contour>
    <contour>
      <point x="296" y="57" type="curve" smooth="yes"/>
      <point x="250" y="57"/>
      <point x="239" y="113"/>
      <point x="239" y="159" type="curve" smooth="yes"/>
      <point x="239" y="243"/>
      <point x="251" y="267"/>
      <point x="335" y="267" type="curve" smooth="yes"/>
      <point x="363" y="267" type="line"/>
      <point x="363" y="160" type="line" smooth="yes"/>
      <point x="363" y="105"/>
      <point x="351" y="57"/>
    </contour>
    <contour>
      <point x="335" y="493" type="line" smooth="yes"/>
      <point x="256" y="493"/>
      <point x="239" y="517"/>
      <point x="239" y="601" type="curve" smooth="yes"/>
      <point x="239" y="647"/>
      <point x="250" y="703"/>
      <point x="296" y="703" type="curve" smooth="yes"/>
      <point x="351" y="703"/>
      <point x="363" y="655"/>
      <point x="363" y="600" type="curve" smooth="yes"/>
      <point x="363" y="493" type="line"/>
    </contour>
  </outline>
</glyph>
<glyph name="fi-georgian" format="2">
  <advance width="967"/>
  <unicode hex="10F6"/>
  <note>
uni10F6
</note>
  <outline>
    <contour>
      <point x="318" y="-254" type="curve" smooth="yes"/>
      <point x="496" y="-254"/>
      <point x="580" y="-185"/>
      <point x="580" y="-35" type="curve" smooth="yes"/>
      <point x="580" y="7" type="line" smooth="yes"/>
      <point x="580" y="34"/>
      <point x="579" y="55"/>
      <point x="577" y="75" type="curve"/>
      <point x="582" y="75" type="line"/>
      <point x="610" y="37"/>
      <point x="651" y="6"/>
      <point x="724" y="6" type="curve" smooth="yes"/>
      <point x="850" y="6"/>
      <point x="925" y="94"/>
      <point x="925" y="270" type="curve" smooth="yes"/>
      <point x="925" y="441"/>
      <point x="850" y="530"/>
      <point x="724" y="530" type="curve" smooth="yes"/>
      <point x="651" y="530"/>
      <point x="610" y="504"/>
      <point x="582" y="465" type="curve"/>
      <point x="577" y="465" type="line"/>
      <point x="578" y="480"/>
      <point x="579" y="497"/>
      <point x="579" y="516" type="curve" smooth="yes"/>
      <point x="579" y="591" type="line" smooth="yes"/>
      <point x="579" y="667"/>
      <point x="601" y="695"/>
      <point x="640" y="695" type="curve" smooth="yes"/>
      <point x="686" y="695"/>
      <point x="700" y="670"/>
      <point x="700" y="601" type="curve"/>
      <point x="790" y="601"/>
      <point x="852" y="621"/>
      <point x="852" y="677" type="curve" smooth="yes"/>
      <point x="852" y="708"/>
      <point x="805" y="774"/>
      <point x="648" y="774" type="curve" smooth="yes"/>
      <point x="477" y="774"/>
      <point x="388" y="694"/>
      <point x="388" y="552" type="curve" smooth="yes"/>
      <point x="388" y="516" type="line" smooth="yes"/>
      <point x="388" y="499"/>
      <point x="390" y="482"/>
      <point x="391" y="465" type="curve"/>
      <point x="385" y="465" type="line"/>
      <point x="358" y="501"/>
      <point x="315" y="530"/>
      <point x="240" y="530" type="curve" smooth="yes"/>
      <point x="112" y="530"/>
      <point x="42" y="444"/>
      <point x="42" y="270" type="curve" smooth="yes"/>
      <point x="42" y="91"/>
      <point x="112" y="6"/>
      <point x="240" y="6" type="curve" smooth="yes"/>
      <point x="315" y="6"/>
      <point x="358" y="39"/>
      <point x="385" y="75" type="curve"/>
      <point x="391" y="75" type="line"/>
      <point x="389" y="47"/>
      <point x="386" y="8"/>
      <point x="386" y="-29" type="curve" smooth="yes"/>
      <point x="386" y="-71" type="line" smooth="yes"/>
      <point x="386" y="-147"/>
      <point x="365" y="-175"/>
      <point x="326" y="-175" type="curve" smooth="yes"/>
      <point x="280" y="-175"/>
      <point x="266" y="-140"/>
      <point x="266" y="-80" type="curve"/>
      <point x="176" y="-80"/>
      <point x="114" y="-106"/>
      <point x="114" y="-162" type="curve" smooth="yes"/>
      <point x="114" y="-223"/>
      <point x="208" y="-254"/>
    </contour>
    <contour>
      <point x="309" y="87" type="curve" smooth="yes"/>
      <point x="258" y="87"/>
      <point x="237" y="152"/>
      <point x="237" y="268" type="curve" smooth="yes"/>
      <point x="237" y="343"/>
      <point x="245" y="449"/>
      <point x="309" y="449" type="curve" smooth="yes"/>
      <point x="370" y="449"/>
      <point x="386" y="384"/>
      <point x="386" y="270" type="curve" smooth="yes"/>
      <point x="386" y="156"/>
      <point x="370" y="87"/>
    </contour>
    <contour>
      <point x="658" y="87" type="curve" smooth="yes"/>
      <point x="598" y="87"/>
      <point x="580" y="163"/>
      <point x="580" y="270" type="curve" smooth="yes"/>
      <point x="580" y="377"/>
      <point x="598" y="449"/>
      <point x="658" y="449" type="curve" smooth="yes"/>
      <point x="710" y="449"/>
      <point x="729" y="377"/>
      <point x="729" y="270" type="curve" smooth="yes"/>
      <point x="729" y="158"/>
      <point x="710" y="87"/>
    </contour>
  </outline>
</glyph>
<glyph name="yn-georgian" format="2">
  <advance width="597"/>
  <unicode hex="10F7"/>
  <note>
uni10F7
</note>
  <anchor x="299" y="536" name="top"/>
  <outline>
    <contour>
      <point x="285" y="-254" type="curve" smooth="yes"/>
      <point x="466" y="-254"/>
      <point x="560" y="-171"/>
      <point x="560" y="-71" type="curve" smooth="yes"/>
      <point x="560" y="-14"/>
      <point x="507" y="46"/>
      <point x="446" y="46" type="curve" smooth="yes"/>
      <point x="420" y="46"/>
      <point x="391" y="38"/>
      <point x="360" y="21" type="curve"/>
      <point x="377" y="-18"/>
      <point x="385" y="-42"/>
      <point x="385" y="-80" type="curve" smooth="yes"/>
      <point x="385" y="-143"/>
      <point x="345" y="-183"/>
      <point x="284" y="-183" type="curve" smooth="yes"/>
      <point x="224" y="-183"/>
      <point x="179" y="-143"/>
      <point x="179" y="-76" type="curve" smooth="yes"/>
      <point x="179" y="9"/>
      <point x="245" y="43"/>
      <point x="333" y="97" type="curve" smooth="yes"/>
      <point x="430" y="157"/>
      <point x="520" y="209"/>
      <point x="520" y="345" type="curve" smooth="yes"/>
      <point x="520" y="456"/>
      <point x="450" y="550"/>
      <point x="304" y="550" type="curve" smooth="yes"/>
      <point x="169" y="550"/>
      <point x="82" y="491"/>
      <point x="82" y="417" type="curve" smooth="yes"/>
      <point x="82" y="357"/>
      <point x="135" y="331"/>
      <point x="174" y="331" type="curve" smooth="yes"/>
      <point x="200" y="331"/>
      <point x="233" y="336"/>
      <point x="254" y="345" type="curve"/>
      <point x="250" y="356"/>
      <point x="245" y="380"/>
      <point x="245" y="411" type="curve" smooth="yes"/>
      <point x="245" y="449"/>
      <point x="265" y="485"/>
      <point x="307" y="485" type="curve" smooth="yes"/>
      <point x="343" y="485"/>
      <point x="373" y="457"/>
      <point x="373" y="398" type="curve" smooth="yes"/>
      <point x="373" y="318"/>
      <point x="303" y="275"/>
      <point x="227" y="229" type="curve" smooth="yes"/>
      <point x="126" y="168"/>
      <point x="37" y="102"/>
      <point x="37" y="-33" type="curve" smooth="yes"/>
      <point x="37" y="-147"/>
      <point x="116" y="-254"/>
    </contour>
  </outline>
</glyph>
<glyph name="elifi-georgian" format="2">
  <advance width="647"/>
  <unicode hex="10F8"/>
  <note>
uni10F8
</note>
  <outline>
    <contour>
      <point x="341" y="-254" type="curve" smooth="yes"/>
      <point x="501" y="-254"/>
      <point x="605" y="-171"/>
      <point x="605" y="-51" type="curve" smooth="yes"/>
      <point x="605" y="26"/>
      <point x="552" y="86"/>
      <point x="471" y="86" type="curve" smooth="yes"/>
      <point x="445" y="86"/>
      <point x="416" y="78"/>
      <point x="385" y="61" type="curve"/>
      <point x="402" y="22"/>
      <point x="410" y="-2"/>
      <point x="410" y="-60" type="curve" smooth="yes"/>
      <point x="410" y="-143"/>
      <point x="390" y="-183"/>
      <point x="340" y="-183" type="curve" smooth="yes"/>
      <point x="290" y="-183"/>
      <point x="270" y="-140"/>
      <point x="270" y="-7" type="curve" smooth="yes"/>
      <point x="270" y="133" type="line" smooth="yes"/>
      <point x="270" y="171"/>
      <point x="267" y="208"/>
      <point x="264" y="246" type="curve"/>
      <point x="270" y="246" type="line"/>
      <point x="303" y="201"/>
      <point x="360" y="181"/>
      <point x="413" y="181" type="curve" smooth="yes"/>
      <point x="523" y="181"/>
      <point x="595" y="252"/>
      <point x="595" y="391" type="curve" smooth="yes"/>
      <point x="595" y="477"/>
      <point x="539" y="550"/>
      <point x="466" y="550" type="curve" smooth="yes"/>
      <point x="438" y="550"/>
      <point x="417" y="542"/>
      <point x="385" y="530" type="curve"/>
      <point x="399" y="498"/>
      <point x="405" y="446"/>
      <point x="405" y="407" type="curve" smooth="yes"/>
      <point x="405" y="306"/>
      <point x="387" y="263"/>
      <point x="340" y="263" type="curve" smooth="yes"/>
      <point x="280" y="263"/>
      <point x="270" y="337"/>
      <point x="270" y="422" type="curve" smooth="yes"/>
      <point x="270" y="536" type="line"/>
      <point x="75" y="536" type="line"/>
      <point x="75" y="3" type="line" smooth="yes"/>
      <point x="75" y="-150"/>
      <point x="171" y="-254"/>
    </contour>
  </outline>
</glyph>
<glyph name="turnedgan-georgian" format="2">
  <advance width="641"/>
  <unicode hex="10F9"/>
  <note>
uni10F9
</note>
  <outline>
    <contour>
      <point x="322" y="550" type="curve" smooth="yes"/>
      <point x="148" y="550"/>
      <point x="42" y="457"/>
      <point x="42" y="265" type="curve" smooth="yes"/>
      <point x="42" y="125"/>
      <point x="110" y="39"/>
      <point x="213" y="9" type="curve"/>
      <point x="213" y="4" type="line"/>
      <point x="150" y="-12"/>
      <point x="110" y="-62"/>
      <point x="110" y="-111" type="curve" smooth="yes"/>
      <point x="110" y="-211"/>
      <point x="227" y="-254"/>
      <point x="333" y="-254" type="curve" smooth="yes"/>
      <point x="464" y="-254"/>
      <point x="555" y="-205"/>
      <point x="555" y="-131" type="curve" smooth="yes"/>
      <point x="555" y="-81"/>
      <point x="509" y="-55"/>
      <point x="450" y="-55" type="curve" smooth="yes"/>
      <point x="428" y="-55"/>
      <point x="386" y="-60"/>
      <point x="365" y="-69" type="curve"/>
      <point x="369" y="-80"/>
      <point x="374" y="-104"/>
      <point x="374" y="-125" type="curve" smooth="yes"/>
      <point x="374" y="-159"/>
      <point x="363" y="-189"/>
      <point x="333" y="-189" type="curve" smooth="yes"/>
      <point x="300" y="-189"/>
      <point x="290" y="-159"/>
      <point x="290" y="-116" type="curve" smooth="yes"/>
      <point x="290" y="-62"/>
      <point x="307" y="-22"/>
      <point x="378" y="-7" type="curve" smooth="yes"/>
      <point x="521" y="23"/>
      <point x="599" y="97"/>
      <point x="599" y="265" type="curve" smooth="yes"/>
      <point x="599" y="457"/>
      <point x="494" y="550"/>
    </contour>
    <contour>
      <point x="320" y="479" type="curve" smooth="yes"/>
      <point x="380" y="479"/>
      <point x="401" y="406"/>
      <point x="401" y="265" type="curve" smooth="yes"/>
      <point x="401" y="128"/>
      <point x="381" y="58"/>
      <point x="321" y="58" type="curve" smooth="yes"/>
      <point x="261" y="58"/>
      <point x="239" y="128"/>
      <point x="239" y="265" type="curve" smooth="yes"/>
      <point x="239" y="406"/>
      <point x="260" y="479"/>
    </contour>
  </outline>
</glyph>
<glyph name="ain-georgian" format="2">
  <advance width="556"/>
  <unicode hex="10FA"/>
  <note>
uni10FA
</note>
  <outline>
    <contour>
      <point x="104" y="-113" type="line"/>
      <point x="513" y="52" type="line"/>
      <point x="513" y="134" type="line"/>
      <point x="460" y="106"/>
      <point x="408" y="81"/>
      <point x="353" y="81" type="curve" smooth="yes"/>
      <point x="266" y="81"/>
      <point x="238" y="148"/>
      <point x="238" y="278" type="curve" smooth="yes"/>
      <point x="238" y="443"/>
      <point x="266" y="482"/>
      <point x="305" y="482" type="curve" smooth="yes"/>
      <point x="348" y="482"/>
      <point x="360" y="416"/>
      <point x="360" y="343" type="curve"/>
      <point x="498" y="343"/>
      <point x="519" y="403"/>
      <point x="519" y="444" type="curve" smooth="yes"/>
      <point x="519" y="496"/>
      <point x="466" y="551"/>
      <point x="304" y="551" type="curve" smooth="yes"/>
      <point x="157" y="551"/>
      <point x="42" y="473"/>
      <point x="42" y="276" type="curve" smooth="yes"/>
      <point x="42" y="113"/>
      <point x="128" y="28"/>
      <point x="224" y="9" type="curve"/>
      <point x="104" y="-36" type="line"/>
    </contour>
  </outline>
</glyph>
<glyph name="paragraph-georgian" format="2">
  <advance width="642"/>
  <unicode hex="10FB"/>
  <note>
uni10FB
</note>
  <outline>
    <contour>
      <point x="484" y="175" type="curve" smooth="yes"/>
      <point x="538" y="175"/>
      <point x="580" y="197"/>
      <point x="580" y="264" type="curve" smooth="yes"/>
      <point x="580" y="331"/>
      <point x="538" y="352"/>
      <point x="484" y="352" type="curve" smooth="yes"/>
      <point x="433" y="352"/>
      <point x="388" y="331"/>
      <point x="388" y="264" type="curve" smooth="yes"/>
      <point x="388" y="197"/>
      <point x="433" y="175"/>
    </contour>
    <contour>
      <point x="159" y="-9" type="curve" smooth="yes"/>
      <point x="213" y="-9"/>
      <point x="255" y="13"/>
      <point x="255" y="80" type="curve" smooth="yes"/>
      <point x="255" y="148"/>
      <point x="213" y="169"/>
      <point x="159" y="169" type="curve" smooth="yes"/>
      <point x="108" y="169"/>
      <point x="63" y="148"/>
      <point x="63" y="80" type="curve" smooth="yes"/>
      <point x="63" y="13"/>
      <point x="108" y="-9"/>
    </contour>
    <contour>
      <point x="159" y="370" type="curve" smooth="yes"/>
      <point x="213" y="370"/>
      <point x="255" y="392"/>
      <point x="255" y="459" type="curve" smooth="yes"/>
      <point x="255" y="527"/>
      <point x="213" y="548"/>
      <point x="159" y="548" type="curve" smooth="yes"/>
      <point x="108" y="548"/>
      <point x="63" y="527"/>
      <point x="63" y="459" type="curve" smooth="yes"/>
      <point x="63" y="392"/>
      <point x="108" y="370"/>
    </contour>
  </outline>
</glyph>
<glyph name="narMod-georgian" format="2">
  <advance width="398"/>
  <unicode hex="10FC"/>
  <note>
uni10FC
</note>
  <outline>
    <contour>
      <point x="202" y="381" type="curve" smooth="yes"/>
      <point x="318" y="381"/>
      <point x="373" y="452"/>
      <point x="373" y="542" type="curve" smooth="yes"/>
      <point x="373" y="636"/>
      <point x="342" y="698"/>
      <point x="242" y="698" type="curve" smooth="yes"/>
      <point x="200" y="698"/>
      <point x="188" y="682"/>
      <point x="173" y="660" type="curve"/>
      <point x="170" y="660" type="line"/>
      <point x="171" y="678"/>
      <point x="171" y="693"/>
      <point x="171" y="703" type="curve" smooth="yes"/>
      <point x="171" y="721" type="line" smooth="yes"/>
      <point x="171" y="748"/>
      <point x="172" y="767"/>
      <point x="203" y="767" type="curve" smooth="yes"/>
      <point x="249" y="767"/>
      <point x="243" y="729"/>
      <point x="294" y="729" type="curve" smooth="yes"/>
      <point x="327" y="729"/>
      <point x="351" y="750"/>
      <point x="351" y="780" type="curve" smooth="yes"/>
      <point x="351" y="803"/>
      <point x="340" y="818"/>
      <point x="328" y="824" type="curve"/>
      <point x="312" y="813"/>
      <point x="294" y="809"/>
      <point x="274" y="809" type="curve" smooth="yes"/>
      <point x="243" y="809"/>
      <point x="219" y="822"/>
      <point x="177" y="822" type="curve" smooth="yes"/>
      <point x="90" y="822"/>
      <point x="29" y="783"/>
      <point x="29" y="693" type="curve" smooth="yes"/>
      <point x="29" y="542" type="line" smooth="yes"/>
      <point x="29" y="450"/>
      <point x="82" y="381"/>
    </contour>
    <contour>
      <point x="202" y="421" type="curve" smooth="yes"/>
      <point x="177" y="421"/>
      <point x="171" y="450"/>
      <point x="171" y="534" type="curve" smooth="yes"/>
      <point x="171" y="623"/>
      <point x="176" y="653"/>
      <point x="202" y="653" type="curve" smooth="yes"/>
      <point x="223" y="653"/>
      <point x="234" y="623"/>
      <point x="234" y="534" type="curve" smooth="yes"/>
      <point x="234" y="450"/>
      <point x="224" y="421"/>
    </contour>
  </outline>
</glyph>
<glyph name="aen-georgian" format="2">
  <advance width="597"/>
  <unicode hex="10FD"/>
  <outline>
    <contour>
      <point x="312" y="-14" type="curve" smooth="yes"/>
      <point x="481" y="-14"/>
      <point x="560" y="93"/>
      <point x="560" y="207" type="curve" smooth="yes"/>
      <point x="560" y="342"/>
      <point x="471" y="408"/>
      <point x="370" y="469" type="curve" smooth="yes"/>
      <point x="294" y="515"/>
      <point x="230" y="561"/>
      <point x="230" y="632" type="curve" smooth="yes"/>
      <point x="230" y="683"/>
      <point x="254" y="709"/>
      <point x="290" y="709" type="curve" smooth="yes"/>
      <point x="332" y="709"/>
      <point x="352" y="683"/>
      <point x="352" y="645" type="curve" smooth="yes"/>
      <point x="352" y="614"/>
      <point x="347" y="590"/>
      <point x="343" y="579" type="curve"/>
      <point x="364" y="570"/>
      <point x="397" y="565"/>
      <point x="423" y="565" type="curve" smooth="yes"/>
      <point x="462" y="565"/>
      <point x="515" y="591"/>
      <point x="515" y="651" type="curve" smooth="yes"/>
      <point x="515" y="715"/>
      <point x="428" y="774"/>
      <point x="293" y="774" type="curve" smooth="yes"/>
      <point x="153" y="774"/>
      <point x="74" y="690"/>
      <point x="74" y="589" type="curve" smooth="yes"/>
      <point x="74" y="461"/>
      <point x="167" y="397"/>
      <point x="264" y="337" type="curve" smooth="yes"/>
      <point x="352" y="283"/>
      <point x="418" y="249"/>
      <point x="418" y="164" type="curve" smooth="yes"/>
      <point x="418" y="97"/>
      <point x="373" y="57"/>
      <point x="313" y="57" type="curve" smooth="yes"/>
      <point x="252" y="57"/>
      <point x="212" y="97"/>
      <point x="212" y="160" type="curve" smooth="yes"/>
      <point x="212" y="198"/>
      <point x="220" y="222"/>
      <point x="237" y="261" type="curve"/>
      <point x="206" y="278"/>
      <point x="177" y="286"/>
      <point x="151" y="286" type="curve" smooth="yes"/>
      <point x="90" y="286"/>
      <point x="37" y="226"/>
      <point x="37" y="169" type="curve" smooth="yes"/>
      <point x="37" y="69"/>
      <point x="131" y="-14"/>
    </contour>
  </outline>
</glyph>
<glyph name="hardsign-georgian" format="2">
  <advance width="640"/>
  <unicode hex="10FE"/>
  <outline>
    <contour>
      <point x="121" y="550" type="curve" smooth="yes"/>
      <point x="65" y="550"/>
      <point x="46" y="504"/>
      <point x="46" y="460" type="curve"/>
      <point x="100" y="460"/>
      <point x="166" y="452"/>
      <point x="214" y="419" type="curve"/>
      <point x="112" y="370"/>
      <point x="46" y="297"/>
      <point x="42" y="198" type="curve"/>
      <point x="42" y="80"/>
      <point x="143" y="-14"/>
      <point x="322" y="-14" type="curve" smooth="yes"/>
      <point x="489" y="-14"/>
      <point x="598" y="80"/>
      <point x="598" y="198" type="curve" smooth="yes"/>
      <point x="598" y="306"/>
      <point x="541" y="370"/>
      <point x="431" y="419" type="curve"/>
      <point x="484" y="452"/>
      <point x="543" y="459"/>
      <point x="594" y="459" type="curve"/>
      <point x="594" y="503"/>
      <point x="575" y="550"/>
      <point x="515" y="550" type="curve" smooth="yes"/>
      <point x="470" y="550"/>
      <point x="395" y="535"/>
      <point x="320" y="481" type="curve"/>
      <point x="244" y="535"/>
      <point x="166" y="550"/>
    </contour>
    <contour>
      <point x="322" y="352" type="curve"/>
      <point x="368" y="315"/>
      <point x="401" y="244"/>
      <point x="401" y="178" type="curve" smooth="yes"/>
      <point x="401" y="106"/>
      <point x="375" y="58"/>
      <point x="320" y="58" type="curve" smooth="yes"/>
      <point x="265" y="58"/>
      <point x="239" y="106"/>
      <point x="239" y="178" type="curve" smooth="yes"/>
      <point x="239" y="249"/>
      <point x="269" y="315"/>
    </contour>
  </outline>
</glyph>
<glyph name="labial-georgian" format="2">
  <advance width="641"/>
  <unicode hex="10FF"/>
  <outline>
    <contour>
      <point x="319" y="-14" type="curve" smooth="yes"/>
      <point x="503" y="-14"/>
      <point x="599" y="79"/>
      <point x="599" y="271" type="curve" smooth="yes"/>
      <point x="599" y="458"/>
      <point x="494" y="550"/>
      <point x="322" y="550" type="curve" smooth="yes"/>
      <point x="138" y="550"/>
      <point x="42" y="458"/>
      <point x="42" y="271" type="curve" smooth="yes"/>
      <point x="42" y="79"/>
      <point x="147" y="-14"/>
    </contour>
    <contour>
      <point x="321" y="57" type="curve" smooth="yes"/>
      <point x="261" y="57"/>
      <point x="240" y="130"/>
      <point x="240" y="271" type="curve" smooth="yes"/>
      <point x="240" y="408"/>
      <point x="260" y="478"/>
      <point x="320" y="478" type="curve" smooth="yes"/>
      <point x="380" y="478"/>
      <point x="402" y="408"/>
      <point x="402" y="271" type="curve" smooth="yes"/>
      <point x="402" y="130"/>
      <point x="381" y="57"/>
    </contour>
  </outline>
</glyph>
<glyph name="An-georgian" format="2">
  <advance width="638"/>
  <unicode hex="1C90"/>
  <anchor x="323" y="714" name="top"/>
  <outline>
    <contour>
      <point x="317" y="-10" type="curve" smooth="yes"/>
      <point x="470" y="-10"/>
      <point x="592" y="71"/>
      <point x="592" y="233" type="curve" smooth="yes"/>
      <point x="592" y="344"/>
      <point x="537" y="407"/>
      <point x="488" y="465" type="curve" smooth="yes"/>
      <point x="446" y="515"/>
      <point x="407" y="560"/>
      <point x="407" y="631" type="curve" smooth="yes"/>
      <point x="407" y="658"/>
      <point x="412" y="680"/>
      <point x="422" y="699" type="curve"/>
      <point x="400" y="714"/>
      <point x="371" y="725"/>
      <point x="336" y="725" type="curve" smooth="yes"/>
      <point x="276" y="725"/>
      <point x="222" y="683"/>
      <point x="222" y="611" type="curve" smooth="yes"/>
      <point x="222" y="520"/>
      <point x="263" y="466"/>
      <point x="305" y="411" type="curve" smooth="yes"/>
      <point x="347" y="356"/>
      <point x="390" y="301"/>
      <point x="390" y="206" type="curve" smooth="yes"/>
      <point x="390" y="109"/>
      <point x="367" y="63"/>
      <point x="317" y="63" type="curve" smooth="yes"/>
      <point x="271" y="63"/>
      <point x="243" y="109"/>
      <point x="243" y="206" type="curve" smooth="yes"/>
      <point x="243" y="260"/>
      <point x="248" y="303"/>
      <point x="265" y="339" type="curve"/>
      <point x="236" y="355"/>
      <point x="203" y="365"/>
      <point x="168" y="365" type="curve" smooth="yes"/>
      <point x="97" y="365"/>
      <point x="41" y="306"/>
      <point x="41" y="215" type="curve" smooth="yes"/>
      <point x="41" y="74"/>
      <point x="146" y="-10"/>
    </contour>
  </outline>
</glyph>
<glyph name="Ban-georgian" format="2">
  <advance width="673"/>
  <unicode hex="1C91"/>
  <outline>
    <contour>
      <point x="334" y="-10" type="curve" smooth="yes"/>
      <point x="524" y="-10"/>
      <point x="627" y="77"/>
      <point x="627" y="255" type="curve" smooth="yes"/>
      <point x="627" y="425"/>
      <point x="514" y="515"/>
      <point x="336" y="515" type="curve" smooth="yes"/>
      <point x="159" y="515"/>
      <point x="46" y="430"/>
      <point x="46" y="255" type="curve" smooth="yes"/>
      <point x="46" y="77"/>
      <point x="157" y="-10"/>
    </contour>
    <contour>
      <point x="336" y="59" type="curve" smooth="yes"/>
      <point x="273" y="59"/>
      <point x="254" y="126"/>
      <point x="254" y="255" type="curve" smooth="yes"/>
      <point x="254" y="382"/>
      <point x="272" y="446"/>
      <point x="335" y="446" type="curve" smooth="yes"/>
      <point x="399" y="446"/>
      <point x="419" y="382"/>
      <point x="419" y="255" type="curve" smooth="yes"/>
      <point x="419" y="126"/>
      <point x="400" y="59"/>
    </contour>
    <contour>
      <point x="256" y="479" type="curve"/>
      <point x="435" y="482" type="line"/>
      <point x="452" y="503"/>
      <point x="459" y="526"/>
      <point x="459" y="545" type="curve" smooth="yes"/>
      <point x="459" y="618"/>
      <point x="367" y="625"/>
      <point x="367" y="674" type="curve" smooth="yes"/>
      <point x="367" y="685"/>
      <point x="370" y="695"/>
      <point x="375" y="703" type="curve"/>
      <point x="355" y="717"/>
      <point x="331" y="725"/>
      <point x="287" y="725" type="curve" smooth="yes"/>
      <point x="232" y="725"/>
      <point x="176" y="701"/>
      <point x="176" y="647" type="curve" smooth="yes"/>
      <point x="176" y="578"/>
      <point x="268" y="578"/>
      <point x="268" y="521" type="curve" smooth="yes"/>
      <point x="268" y="512"/>
      <point x="266" y="499"/>
    </contour>
  </outline>
</glyph>
<glyph name="Gan-georgian" format="2">
  <advance width="663"/>
  <unicode hex="1C92"/>
  <outline>
    <contour>
      <point x="329" y="-10" type="curve" smooth="yes"/>
      <point x="506" y="-10"/>
      <point x="622" y="77"/>
      <point x="622" y="248" type="curve" smooth="yes"/>
      <point x="622" y="370"/>
      <point x="553" y="459"/>
      <point x="442" y="483" type="curve"/>
      <point x="442" y="488" type="line"/>
      <point x="508" y="500"/>
      <point x="559" y="546"/>
      <point x="559" y="593" type="curve" smooth="yes"/>
      <point x="559" y="690"/>
      <point x="438" y="725"/>
      <point x="319" y="725" type="curve" smooth="yes"/>
      <point x="174" y="725"/>
      <point x="80" y="683"/>
      <point x="80" y="611" type="curve" smooth="yes"/>
      <point x="80" y="565"/>
      <point x="129" y="536"/>
      <point x="188" y="536" type="curve" smooth="yes"/>
      <point x="221" y="536"/>
      <point x="263" y="544"/>
      <point x="284" y="554" type="curve"/>
      <point x="280" y="565"/>
      <point x="275" y="587"/>
      <point x="275" y="606" type="curve" smooth="yes"/>
      <point x="275" y="629"/>
      <point x="287" y="657"/>
      <point x="319" y="657" type="curve" smooth="yes"/>
      <point x="354" y="657"/>
      <point x="365" y="629"/>
      <point x="365" y="598" type="curve" smooth="yes"/>
      <point x="365" y="532"/>
      <point x="333" y="510"/>
      <point x="263" y="498" type="curve" smooth="yes"/>
      <point x="125" y="475"/>
      <point x="41" y="398"/>
      <point x="41" y="247" type="curve" smooth="yes"/>
      <point x="41" y="76"/>
      <point x="152" y="-10"/>
    </contour>
    <contour>
      <point x="331" y="59" type="curve" smooth="yes"/>
      <point x="268" y="59"/>
      <point x="249" y="118"/>
      <point x="249" y="247" type="curve" smooth="yes"/>
      <point x="249" y="374"/>
      <point x="267" y="436"/>
      <point x="330" y="436" type="curve" smooth="yes"/>
      <point x="394" y="436"/>
      <point x="414" y="374"/>
      <point x="414" y="247" type="curve" smooth="yes"/>
      <point x="414" y="118"/>
      <point x="395" y="59"/>
    </contour>
  </outline>
</glyph>
<glyph name="En-georgian" format="2">
  <advance width="673"/>
  <unicode hex="1C94"/>
  <anchor x="329" y="714" name="top"/>
  <outline>
    <contour>
      <point x="320" y="-9" type="curve" smooth="yes"/>
      <point x="519" y="-9"/>
      <point x="596" y="108"/>
      <point x="596" y="229" type="curve" smooth="yes"/>
      <point x="596" y="498" type="line" smooth="yes"/>
      <point x="596" y="649"/>
      <point x="475" y="725"/>
      <point x="328" y="725" type="curve" smooth="yes"/>
      <point x="181" y="725"/>
      <point x="62" y="651"/>
      <point x="62" y="558" type="curve" smooth="yes"/>
      <point x="62" y="497"/>
      <point x="109" y="445"/>
      <point x="190" y="445" type="curve" smooth="yes"/>
      <point x="217" y="445"/>
      <point x="248" y="453"/>
      <point x="282" y="466" type="curve"/>
      <point x="268" y="496"/>
      <point x="261" y="526"/>
      <point x="261" y="565" type="curve" smooth="yes"/>
      <point x="261" y="606"/>
      <point x="281" y="655"/>
      <point x="328" y="655" type="curve" smooth="yes"/>
      <point x="384" y="655"/>
      <point x="396" y="601"/>
      <point x="396" y="509" type="curve" smooth="yes"/>
      <point x="396" y="218" type="line" smooth="yes"/>
      <point x="396" y="110"/>
      <point x="382" y="61"/>
      <point x="320" y="61" type="curve" smooth="yes"/>
      <point x="267" y="61"/>
      <point x="246" y="100"/>
      <point x="246" y="183" type="curve" smooth="yes"/>
      <point x="246" y="240"/>
      <point x="259" y="275"/>
      <point x="278" y="313" type="curve"/>
      <point x="249" y="329"/>
      <point x="219" y="338"/>
      <point x="190" y="338" type="curve" smooth="yes"/>
      <point x="99" y="338"/>
      <point x="41" y="261"/>
      <point x="41" y="188" type="curve" smooth="yes"/>
      <point x="41" y="67"/>
      <point x="145" y="-9"/>
    </contour>
  </outline>
</glyph>
